<svg xmlns="http://www.w3.org/2000/svg"  viewBox="0 0 100 100" width="500px" height="500px"><path fill="#60be92" d="M49.078,18.432c0.2,0.3,0.1,0.6-0.1,0.8c-0.3,0.1-0.6,0-0.7-0.2c-3.9-6.9-10.7-8.8-10.7-8.8	c-0.2-0.1-0.4-0.3-0.4-0.5c0-0.3,0.2-0.5,0.5-0.5h0.1C37.778,9.232,44.978,11.332,49.078,18.432z"/><path fill="#1f212b" d="M48.978,19.232c-0.3,0.1-0.6,0-0.7-0.2c-3.9-6.9-10.7-8.8-10.7-8.8c-0.2-0.1-0.4-0.3-0.4-0.5	c0-0.3,0.2-0.5,0.5-0.5h0.1c0,0,7.2,2.1,11.3,9.2C49.278,18.732,49.178,19.032,48.978,19.232z"/><path fill="#60be92" d="M33.036,7.239c-0.997,17.1,18.944,15.6,18.944,15.6S53.376,4.039,33.036,7.239z"/><path fill="#1f212b" d="M49.078,18.432c0.2,0.3,0.1,0.6-0.1,0.8c-0.3,0.1-0.6,0-0.7-0.2c-3.9-6.9-10.7-8.8-10.7-8.8	c-0.2-0.1-0.4-0.3-0.4-0.5c0-0.3,0.2-0.5,0.5-0.5h0.1C37.778,9.232,44.978,11.332,49.078,18.432z"/><path fill="#1f212b" d="M49.278,31.532c0,0,1.974-2.174,2-2.2c0.7-9,6.3-13.1,6.5-13.3c0.4-0.3,0.6-0.9,0.2-1.4	c-0.3-0.5-0.9-0.6-1.4-0.2c-0.2,0.1-2.5,1.9-4.5,5.4c-0.2-1.8-0.7-4.1-1.8-6.3s-3-4.4-5.8-5.7c-1.4-0.7-3.1-1.2-5-1.4	c-1-0.1-2-0.1-3.2-0.1c-1.1,0-2.3,0.2-3.6,0.4c-0.2,0-0.4,0.2-0.4,0.5c-0.3,4.4,0.8,7.6,2.6,10c1.8,2.4,4.3,3.8,6.8,4.7	c3.5,1.3,7.1,1.5,8.9,1.5c-0.8,2.2-1.3,4.8-1.3,8C49.278,31.532,49.278,31.532,49.278,31.532z M35.678,16.432	c-1.6-2.1-2.5-5-2.4-8.9c1.7-0.2,3.3-0.3,4.7-0.3c0.5,0,0.9,0,1.4,0.1c1.9,0.2,3.4,0.7,4.7,1.3c2.6,1.3,4.3,3.2,5.3,5.3	c1.9,3.8,1.8,7.6,1.8,8.3c-0.7,0-4.8,0.2-9.2-1.4C39.578,19.932,37.278,18.632,35.678,16.432z"/><path fill="#1f212b" d="M48.978,19.232c-0.3,0.1-0.6,0-0.7-0.2c-3.9-6.9-10.7-8.8-10.7-8.8c-0.2-0.1-0.4-0.3-0.4-0.5	c0-0.3,0.2-0.5,0.5-0.5h0.1c0,0,7.2,2.1,11.3,9.2C49.278,18.732,49.178,19.032,48.978,19.232z"/><path fill="#eddc67" d="M79,70c0-1.444-0.168-2.852-0.475-4.218C76.288,53.943,66.763,49.576,65,39c-1.2-7.6-8-16-14-12	c-6-4-12.8,4.4-14,12c-1.763,10.576-11.288,14.943-13.525,26.782C23.168,67.148,23,68.556,23,70c0,0.146,0.01,0.289,0.013,0.434	C23.01,70.624,23,70.807,23,71h0.031C23.667,83.327,36.004,93,51,93s27.333-9.673,27.969-22H79c0-0.193-0.01-0.376-0.013-0.566	C78.99,70.289,79,70.146,79,70z"/><path fill="none" stroke="#1f212b" stroke-linecap="round" stroke-linejoin="round" stroke-miterlimit="10" stroke-width="2" d="M79,70	c0-1.444-0.168-2.852-0.475-4.218C76.288,53.943,66.763,49.576,65,39c-1.2-7.6-8-16-14-12c-6-4-12.8,4.4-14,12	c-1.763,10.576-11.288,14.943-13.525,26.782C23.168,67.148,23,68.556,23,70c0,0.146,0.01,0.289,0.013,0.434	C23.01,70.624,23,70.807,23,71h0.031C23.667,83.327,36.004,93,51,93s27.333-9.673,27.969-22H79c0-0.193-0.01-0.376-0.013-0.566	C78.99,70.289,79,70.146,79,70z"/><path fill="none" stroke="#1f212b" stroke-linecap="round" stroke-miterlimit="10" d="M62,86.368 c7.163-2.975,12.123-8.781,12.474-15.6c0.004-0.064,0.008-0.128,0.014-0.192l-0.001-0.05c-0.002-0.071-0.001-0.143,0.001-0.214 L74.5,70c0-1.064-0.123-2.152-0.365-3.233c-0.012-0.05-0.021-0.1-0.031-0.15c-0.947-5.015-3.544-8.522-6.294-12.236 c-3.051-4.121-6.205-8.382-7.248-14.641c-0.523-3.311-2.29-6.371-4.061-8.025 M48,88.352c0.982,0.098,1.984,0.148,3,0.148 c2.438,0,4.789-0.289,7-0.828 M39.5,86.154c1.416,0.623,2.922,1.134,4.5,1.518 M34.895,83.5c0.514,0.38,1.049,0.741,1.605,1.084 M79,71h0.01H79z"/></svg>