<svg xmlns="http://www.w3.org/2000/svg"  viewBox="0 0 100 100" width="500px" height="500px"><path fill="none" stroke="#1f212b" stroke-linecap="round" stroke-linejoin="round" stroke-miterlimit="10" stroke-width="2" d="M51.734,24.586c0-10.3-4.63-12.086-7.234-12.086"/><path fill="#a2a2cc" d="M49.5,87.897C35.384,87.897,21,68.952,21,50.36C21,31.602,30.232,19,43.973,19	c3.522,0,6.435,2.071,6.465,2.092l0.529,0.382l0.558-0.339C51.56,21.114,55.057,19,57.694,19C67.062,19,78,27.035,78,49.681	C78,68.253,63.351,87.897,49.5,87.897z"/><path fill="none" stroke="#1f212b" stroke-linecap="round" stroke-linejoin="round" stroke-miterlimit="10" stroke-width="2" d="M49.5,87.897C35.384,87.897,21,68.952,21,50.36C21,31.602,30.232,19,43.973,19c3.522,0,6.435,2.071,6.465,2.092l0.529,0.382	l0.558-0.339C51.56,21.114,55.057,19,57.694,19C67.062,19,78,27.035,78,49.681C78,68.253,63.351,87.897,49.5,87.897z"/><path fill="none" stroke="#1f212b" stroke-linecap="round" stroke-miterlimit="10" d="M53.442,24c-2.758-3.059-6.012-5-9.568-5"/><path fill="none" stroke="#1f212b" stroke-linecap="round" stroke-miterlimit="10" d="M58.064,31c-0.697-1.413-1.467-2.757-2.3-4"/><path fill="none" stroke="#1f212b" stroke-linecap="round" stroke-miterlimit="10" d="M56.5,75.5c0,0,6-9.059,6-26.302	c0-4.785-1.127-10.247-3.102-15.198"/></svg>