<svg xmlns="http://www.w3.org/2000/svg"  viewBox="0 0 100 100" width="500px" height="500px"><path fill="#60bd91" d="M76.628,34.125c-5.626,5.626-15.472,4.22-15.472,4.22s-1.402-9.848,4.22-15.47	c5.626-5.624,15.47-4.218,15.47-4.218S82.254,28.497,76.628,34.125z"/><path fill="#a0d2a1" d="M62.56,40.445C75.29,41.859,89.5,56.5,89.5,56.5s1.346-10.399-8.554-17.469	C71.046,31.959,62.56,40.445,62.56,40.445z M59.274,36.943C57.86,24.215,43.5,10.5,43.5,10.5s10.5-1,17.188,8.055	C67.758,28.457,59.274,36.943,59.274,36.943z"/><path fill="none" stroke="#1f212b" stroke-linecap="round" stroke-linejoin="round" stroke-miterlimit="10" stroke-width="2" d="M62.431,40.944C75.221,42.358,89.5,56.5,89.5,56.5s1.351-9.9-8.596-16.97c-2.705-1.924-5.552-2.925-7.904-3.03	c1.368-0.632,2.953-1.218,4.068-2.376C82,29,81.5,18.5,81.5,18.5s-11-0.5-15.737,4.374c-1.009,1.038-1.652,2.41-2.263,3.626	c-0.173-2.234-1.182-4.868-2.95-7.446C54,9.5,43.5,10.5,43.5,10.5s14.209,14.214,15.629,26.942"/><path fill="#f05b6c" d="M71.582,72.276c-10.4,10.404-40.067,21.328-51.626,9.769c-11.561-11.559-0.637-41.224,9.767-51.627	c10.404-10.404,23.325-4.582,34.884,6.979C76.164,48.953,81.987,61.872,71.582,72.276z"/><path fill="none" stroke="#1f212b" stroke-linecap="round" stroke-linejoin="round" stroke-miterlimit="10" stroke-width="2" d="M71.582,72.276c-10.4,10.404-40.067,21.328-51.626,9.769c-11.561-11.559-0.637-41.224,9.767-51.627	c10.404-10.404,23.325-4.582,34.884,6.979C76.164,48.953,81.987,61.872,71.582,72.276z"/><path fill="#f9e65c" d="M25.626,77.5c-0.345,0-0.622-0.101-0.821-0.3c-1.333-1.333,2.42-6.117,2.733-6.43 c0.494-0.494,1.151-0.766,1.848-0.766c0.698,0,1.354,0.272,1.849,0.766s0.766,1.151,0.766,1.849s-0.272,1.354-0.767,1.848 C30.586,75.116,27.263,77.5,25.626,77.5z M44.126,73c-0.345,0-0.622-0.101-0.821-0.3c-0.555-0.555-0.344-1.655,0.664-3.46 c0.705-1.261,1.624-2.525,2.071-2.973c0.495-0.494,1.151-0.767,1.849-0.767s1.354,0.272,1.849,0.767 c1.019,1.019,1.019,2.677,0,3.698C49.089,70.615,45.765,73,44.126,73z M61.626,67.5c-0.345,0-0.621-0.101-0.82-0.3 c-1.333-1.334,2.42-6.116,2.733-6.429c0.494-0.494,1.15-0.767,1.848-0.767s1.354,0.272,1.848,0.767 c1.018,1.018,1.018,2.675,0,3.695C66.585,65.116,63.264,67.5,61.626,67.5z M29.63,59c-0.345,0-0.622-0.101-0.821-0.3 c-1.334-1.334,2.421-6.118,2.734-6.431c0.494-0.494,1.151-0.767,1.849-0.767c0.697,0,1.354,0.272,1.848,0.767 s0.766,1.151,0.766,1.849c0,0.698-0.272,1.354-0.766,1.848C34.59,56.616,31.268,59,29.63,59z M50.627,52.5 c-0.345,0-0.622-0.101-0.821-0.3c-0.555-0.555-0.344-1.654,0.664-3.46c0.704-1.261,1.623-2.525,2.071-2.973 C53.036,45.272,53.693,45,54.391,45s1.354,0.272,1.849,0.767c1.019,1.019,1.019,2.677,0,3.698 C55.589,50.115,52.266,52.5,50.627,52.5z M34.63,42.497c-0.345,0-0.622-0.101-0.821-0.3c-1.333-1.333,2.42-6.117,2.733-6.43 C37.037,35.272,37.693,35,38.391,35s1.354,0.272,1.848,0.767s0.767,1.15,0.767,1.848s-0.272,1.354-0.767,1.848 C39.589,40.112,36.268,42.497,34.63,42.497z"/><path fill="#1f212b" d="M38.391,35.5c0.541,0,1.081,0.207,1.495,0.62c0.827,0.827,0.827,2.163,0,2.989 c-0.72,0.72-3.901,2.887-5.256,2.887c-0.2,0-0.361-0.047-0.467-0.154c-0.827-0.827,1.907-4.896,2.734-5.723 C37.309,35.707,37.85,35.5,38.391,35.5 M54.39,45.5c0.541,0,1.082,0.207,1.495,0.62c0.827,0.827,0.825,2.164,0,2.991 C55.165,49.832,51.982,52,50.627,52c-0.2,0-0.361-0.047-0.467-0.154c-0.827-0.827,1.908-4.899,2.735-5.726 C53.309,45.707,53.849,45.5,54.39,45.5 M33.391,52.003c0.541,0,1.081,0.207,1.495,0.62c0.827,0.827,0.825,2.165,0,2.99 c-0.72,0.72-3.902,2.888-5.256,2.888c-0.2,0-0.361-0.047-0.467-0.154c-0.827-0.827,1.907-4.897,2.734-5.723 C32.31,52.209,32.851,52.003,33.391,52.003 M65.387,60.505c0.541,0,1.081,0.207,1.494,0.62c0.826,0.826,0.824,2.162,0,2.989 C66.161,64.833,62.98,67,61.626,67c-0.2,0-0.361-0.047-0.467-0.154c-0.826-0.826,1.907-4.895,2.733-5.722 C64.305,60.711,64.846,60.505,65.387,60.505 M47.89,66c0.541,0,1.082,0.207,1.496,0.62c0.827,0.827,0.825,2.164,0,2.991 c-0.721,0.72-3.904,2.889-5.259,2.889c-0.2,0-0.361-0.047-0.467-0.154c-0.827-0.827,1.908-4.899,2.735-5.726 C46.808,66.207,47.349,66,47.89,66 M29.387,70.503c0.541,0,1.081,0.207,1.495,0.62c0.827,0.827,0.827,2.165,0,2.989 C30.162,74.833,26.981,77,25.626,77c-0.2,0-0.361-0.047-0.467-0.154c-0.827-0.827,1.907-4.896,2.734-5.723 C28.306,70.71,28.847,70.503,29.387,70.503 M38.391,34.5C38.391,34.5,38.391,34.5,38.391,34.5c-0.831,0-1.613,0.324-2.202,0.913 c-0.049,0.049-4.528,5.342-2.734,7.137c0.204,0.204,0.573,0.447,1.174,0.447c1.855,0,5.356-2.573,5.963-3.18 c1.214-1.214,1.214-3.189,0-4.404C40.004,34.824,39.222,34.5,38.391,34.5L38.391,34.5z M54.39,44.5 c-0.831,0-1.614,0.324-2.203,0.913c-0.049,0.049-4.53,5.345-2.735,7.14C49.657,52.757,50.026,53,50.627,53 c1.856,0,5.358-2.574,5.965-3.182c1.213-1.216,1.213-3.192,0-4.405C56.004,44.824,55.222,44.5,54.39,44.5L54.39,44.5z M33.391,51.003c-0.831,0-1.613,0.324-2.202,0.913c-0.481,0.481-1.418,1.766-2.153,3.081c-0.773,1.385-1.539,3.099-0.581,4.056 c0.204,0.204,0.573,0.447,1.174,0.447c1.855,0,5.356-2.573,5.963-3.181c0.588-0.588,0.912-1.369,0.912-2.201 c0-0.832-0.324-1.615-0.912-2.203C35.005,51.327,34.222,51.003,33.391,51.003L33.391,51.003z M65.387,59.505 c-0.831,0-1.613,0.324-2.201,0.913c-0.049,0.049-4.527,5.342-2.733,7.136C60.656,67.757,61.025,68,61.626,68 c1.855,0,5.355-2.573,5.962-3.18c1.213-1.216,1.212-3.191,0-4.403C66.999,59.829,66.218,59.505,65.387,59.505L65.387,59.505z M47.89,65C47.89,65,47.89,65,47.89,65c-0.832,0-1.614,0.324-2.203,0.913c-0.482,0.482-1.419,1.766-2.154,3.083 c-0.774,1.386-1.539,3.1-0.581,4.058c0.204,0.204,0.573,0.447,1.174,0.447c1.856,0,5.358-2.574,5.966-3.182 c1.214-1.216,1.213-3.192,0-4.405C49.504,65.324,48.722,65,47.89,65L47.89,65z M29.388,69.503 C29.388,69.503,29.388,69.503,29.388,69.503c-0.831,0-1.613,0.324-2.202,0.913c-0.049,0.049-4.528,5.342-2.734,7.137 C24.656,77.757,25.025,78,25.626,78c1.855,0,5.356-2.573,5.963-3.18c0.588-0.586,0.912-1.368,0.913-2.199 c0.001-0.832-0.324-1.615-0.913-2.205C31,69.828,30.219,69.503,29.388,69.503L29.388,69.503z"/><path fill="none" stroke="#1f212b" stroke-linecap="round" stroke-linejoin="round" stroke-miterlimit="10" stroke-width="2" d="M63.5,26.5c0,0,0.5,5-2.5,7.5"/><path fill="none" stroke="#1f212b" stroke-linecap="round" stroke-linejoin="round" stroke-miterlimit="10" stroke-width="2" d="M73,36.5c0,0-3.5-0.5-7,2"/><path fill="none" stroke="#1f212b" stroke-linecap="round" stroke-linejoin="round" stroke-miterlimit="10" d="M76.138,28	c-0.784,2.097-2.28,4.286-5.138,5"/><path fill="none" stroke="#1f212b" stroke-linecap="round" stroke-linejoin="round" stroke-miterlimit="10" d="M77,23.5	c0,0,0,0.599-0.123,1.5"/></svg>