<svg xmlns="http://www.w3.org/2000/svg"  viewBox="0 0 100 100" width="500px" height="500px"><path fill="#f15b6c" d="M83.294,59.871c-0.055-0.215-0.123-0.428-0.187-0.642c-0.084-0.27-0.162-0.54-0.26-0.808 c-0.189-0.523-0.4-1.043-0.649-1.556c-3.581-7.41-12.041-10.856-18.895-7.697c-0.85,0.392-1.623,0.884-2.35,1.416 c-1.68,1.23-3.031,2.866-3.031,2.866c-1.667,0.059-4.957,0.481-6.533,1.208c-6.854,3.159-9.507,11.726-5.926,19.136 c0.248,0.514,0.525,1.004,0.818,1.478c0.149,0.244,0.314,0.475,0.474,0.71c0.128,0.185,0.254,0.372,0.389,0.55 c5.283,7.123,15.667,9.61,24.728,5.435C80.932,77.789,85.567,68.381,83.294,59.871z"/><path fill="#1f212b" d="M62.798,85c-6.434,0-12.549-2.773-16.332-7.874c-0.115-0.152-0.23-0.318-0.345-0.484l-0.173-0.251 c-0.135-0.196-0.27-0.393-0.395-0.598c-0.335-0.542-0.618-1.055-0.865-1.564c-1.93-3.991-2.22-8.554-0.797-12.519 c1.286-3.585,3.845-6.413,7.204-7.961c1.412-0.65,3.927-1.059,5.809-1.224c0.561-0.054,1.036,0.358,1.084,0.909 c0.049,0.55-0.358,1.035-0.908,1.083c-1.767,0.155-4.043,0.54-5.148,1.048c-2.868,1.322-5.055,3.744-6.158,6.82 c-1.243,3.463-0.982,7.463,0.714,10.973c0.217,0.447,0.469,0.901,0.769,1.388c0.109,0.178,0.224,0.344,0.339,0.511l0.173,0.251 c0.098,0.142,0.194,0.284,0.298,0.42c5.116,6.897,15.003,9.051,23.512,5.129c8.495-3.915,13.068-12.716,10.875-20.928 c-0.043-0.162-0.09-0.317-0.138-0.473l-0.097-0.318c-0.059-0.192-0.117-0.384-0.187-0.574c-0.198-0.547-0.397-1.025-0.609-1.463 c-3.341-6.912-11.228-10.151-17.576-7.225c-0.067,0.031-0.13,0.067-0.192,0.103l-0.201,0.11c-0.487,0.254-1.094,0.064-1.349-0.426 c-0.254-0.49-0.063-1.094,0.427-1.349l0.139-0.077c0.111-0.062,0.222-0.124,0.339-0.178c7.336-3.38,16.404,0.285,20.214,8.17 c0.242,0.5,0.468,1.04,0.689,1.651c0.08,0.222,0.15,0.447,0.219,0.672l0.099,0.322c0.056,0.182,0.11,0.363,0.157,0.545 c2.443,9.148-2.591,18.931-11.971,23.254C69.298,84.31,66.008,85,62.798,85z"/><path fill="#1f212b" d="M59.493,61.995c-0.275,0-0.498-0.223-0.499-0.498c-0.001-0.275,0.222-0.5,0.497-0.502 c0.108-0.001,2.658-0.049,3.527-2.658c0.088-0.262,0.371-0.403,0.633-0.316s0.403,0.37,0.316,0.632 C63.085,61.296,60.655,61.995,59.493,61.995z"/><path fill="#f37e98" d="M55.791,69.232c0.042-0.277,0.089-0.552,0.117-0.833C55.965,67.851,56,67.296,56,66.732 C56,58.596,49.95,52,42.486,52c-2.351,0-4.561,0.657-6.486,1.808C34.074,52.657,31.865,52,29.514,52C22.05,52,16,58.596,16,66.732 c0,0.564,0.035,1.119,0.092,1.666c0.028,0.281,0.075,0.556,0.117,0.833c0.034,0.219,0.066,0.439,0.109,0.654 C17.957,78.469,26.134,85,36,85c9.866,0,18.043-6.531,19.682-15.114C55.725,69.67,55.757,69.451,55.791,69.232z"/><path fill="#1f212b" d="M36,86c-10.212,0-18.902-6.698-20.664-15.927c-0.037-0.189-0.068-0.389-0.1-0.59 c0-0.001-0.016-0.101-0.016-0.102l-0.027-0.173c-0.036-0.235-0.072-0.47-0.097-0.709C15.032,67.869,15,67.291,15,66.732 C15,58.057,21.511,51,29.514,51c2.445,0,4.866,0.674,6.999,1.95c0.475,0.284,0.629,0.897,0.346,1.372 c-0.284,0.474-0.899,0.628-1.371,0.345C33.663,53.576,31.598,53,29.514,53C22.613,53,17,59.16,17,66.732 c0,0.489,0.028,1,0.087,1.563c0.021,0.206,0.052,0.405,0.083,0.605l0.043,0.277c0.026,0.172,0.053,0.344,0.086,0.512 C18.883,77.985,26.747,84,36,84s17.117-6.015,18.699-14.302c0.035-0.177,0.062-0.349,0.088-0.521l0.043-0.277 c0.031-0.2,0.063-0.4,0.083-0.603C54.972,67.732,55,67.221,55,66.732C55,59.16,49.387,53,42.486,53 c-0.429,0-0.876,0.029-1.367,0.087c-0.552,0.069-1.046-0.326-1.112-0.874c-0.065-0.548,0.325-1.046,0.874-1.112 C41.452,51.033,41.978,51,42.486,51C50.489,51,57,58.057,57,66.732c0,0.559-0.032,1.137-0.097,1.77 c-0.024,0.236-0.061,0.471-0.097,0.707l-0.043,0.275c-0.031,0.201-0.063,0.401-0.102,0.598C54.902,79.302,46.212,86,36,86z"/><path fill="#1f212b" d="M35.5 61c-4.448 0-4.5-3.465-4.5-3.5 0-.276.224-.5.5-.5.275 0 .498.222.5.497l0 0C32.003 57.753 32.131 60 35.5 60c.276 0 .5.224.5.5S35.776 61 35.5 61zM32 57.5h.01H32zM25.499 76c-.081 0-.162-.02-.238-.061-.068-.037-1.687-.938-2.913-3.201-.132-.243-.042-.546.201-.678.241-.13.545-.043.678.201 1.077 1.987 2.5 2.792 2.515 2.8.24.133.329.437.196.679C25.847 75.906 25.676 76 25.499 76zM21.589 69c-.251 0-.468-.189-.496-.445C21.029 67.985 21 67.491 21 67c0-6.6 4.091-8.849 4.266-8.941.242-.129.544-.037.674.206.131.243.039.545-.203.677C25.584 59.023 22 61.029 22 67c0 .453.027.912.087 1.445.03.274-.167.521-.441.552C21.626 68.999 21.607 69 21.589 69z"/><g><path fill="#60be92" d="M62.5,18.5c-4,0-6,1-6,1c-6,19,15,17,18,22c0,0,1-3,1-7C75.5,27.74,72.5,18.5,62.5,18.5z"/><path fill="#1f212b" d="M74.5,42c-0.175,0-0.338-0.091-0.429-0.243c-0.815-1.358-3.295-2.203-6.167-3.181 c-6.841-2.329-16.21-5.519-11.881-19.227c0.041-0.129,0.132-0.236,0.253-0.297C56.362,19.01,58.429,18,62.5,18 C72.465,18,76,26.889,76,34.5c0,4.035-0.983,7.033-1.025,7.158c-0.063,0.185-0.226,0.317-0.42,0.339 C74.536,41.999,74.518,42,74.5,42z M56.909,19.868c-3.871,12.592,4.547,15.457,11.317,17.763c2.534,0.862,4.781,1.627,6.048,2.816 C74.563,39.286,75,37.1,75,34.5C75,27.35,71.727,19,62.5,19C59.357,19,57.48,19.639,56.909,19.868z"/><path fill="#1f212b" d="M72.5 36c-.205 0-.397-.127-.471-.332-.249-.696-.507-1.348-.769-1.976-.106-.255.014-.548.269-.654.253-.106.547.014.653.269.27.644.533 1.312.788 2.024.093.26-.042.546-.303.639C72.612 35.991 72.556 36 72.5 36zM70.298 31c-.178 0-.35-.095-.44-.263C65.231 22.156 59.554 22 59.497 22c-.275-.003-.498-.228-.496-.503C59.003 21.222 59.225 21 59.5 21h.001c.255 0 6.307.116 11.237 9.263.131.243.04.546-.203.677C70.46 30.981 70.378 31 70.298 31z"/></g><g><path fill="#1f212b" d="M56,20c-0.243,0-0.484-0.089-0.672-0.26c-0.306-0.277-0.409-0.714-0.262-1.099 c0.537-1.396,0.901-2.865,0.905-2.88C56.081,15.314,56.482,15,56.942,15h1.851c0.331,0,0.641,0.164,0.827,0.438 c0.187,0.274,0.225,0.623,0.103,0.931c-0.038,0.096-0.96,2.368-3.275,3.526C56.306,19.965,56.152,20,56,20z"/><path fill="#1f212b" d="M59.001,59c-0.354,0-0.697-0.188-0.879-0.521C57.872,58.021,52,47.104,52,34 c0-4.774,0.804-9.538,2.457-14.563c0.173-0.525,0.739-0.812,1.263-0.637c0.524,0.172,0.81,0.738,0.638,1.262 C55.774,21.834,54,27.226,54,34c0,12.599,5.819,23.414,5.878,23.521c0.265,0.485,0.086,1.092-0.399,1.357 C59.327,58.961,59.163,59,59.001,59z"/><path fill="#1f212b" d="M36,58c-0.553,0-1-0.448-1-1c0-8.609,1.907-29.536,19.572-37.904 c0.496-0.236,1.095-0.024,1.331,0.476c0.237,0.499,0.023,1.096-0.476,1.332C38.796,28.782,37,48.771,37,57 C37,57.552,36.553,58,36,58z"/></g></svg>