<svg xmlns="http://www.w3.org/2000/svg"  viewBox="0 0 100 100" width="500px" height="500px"><path fill="#f15b6c" d="M50,37.44C53.715,33.567,58.761,31,64.669,31C75.898,31,85,39.761,85,50.569 C85,71,71.846,81.786,69,84c-2.25,1.75-4.625,3-9,3c-3.947,0-7.688-2.222-10-4.954C47.688,84.778,43.947,87,40,87 c-4.375,0-6.75-1.25-9-3c-2.846-2.214-16-13-16-33.431C15,39.761,24.102,31,35.331,31C41.239,31,46.285,33.567,50,37.44z"/><path fill="#1f212b" d="M60,88c-3.527,0-7.268-1.691-10-4.472C47.268,86.309,43.527,88,40,88 c-4.553,0-7.136-1.284-9.614-3.21C25.459,80.957,14,69.949,14,50.569C14,39.227,23.569,30,35.331,30c3.187,0,6.251,0.713,9.11,2.12 c0.496,0.244,0.699,0.843,0.456,1.339c-0.243,0.496-0.845,0.7-1.339,0.456C40.977,32.644,38.208,32,35.331,32 C24.672,32,16,40.33,16,50.569c0,18.498,10.919,28.99,15.614,32.642C33.828,84.933,36.003,86,40,86c3.939,0,7.354-2.376,9.236-4.6 c0.381-0.449,1.146-0.449,1.527,0C52.646,83.624,56.061,86,60,86c3.997,0,6.172-1.067,8.386-2.79 C73.081,79.559,84,69.066,84,50.569C84,40.33,75.328,32,64.669,32c-6.666,0-11.264,3.335-13.947,6.133 c-0.383,0.398-1.015,0.412-1.414,0.029c-0.398-0.382-0.412-1.015-0.029-1.414C53.452,32.396,58.918,30,64.669,30 C76.431,30,86,39.227,86,50.569c0,19.38-11.459,30.388-16.386,34.22C67.136,86.716,64.553,88,60,88z"/><path fill="#fefdef" d="M64.669,35.5c-5.434,0-9.21,2.749-11.421,5.055c-0.683,0.712-2.358,2.819-2.855,3.447L50,44.499 l-0.393-0.496c-0.36-0.455-1.336-1.682-2.108-2.597l0.382-0.322c-0.302-0.358-0.575-0.672-0.769-0.874 c-0.641-0.669-1.416-1.372-2.315-2.04v0l-0.305,0.411c-0.608-0.451-1.262-0.889-1.993-1.281l0.236-0.44 c-0.934-0.502-1.968-0.935-3.099-1.259L39.5,36.081c-1.263-0.36-2.649-0.581-4.169-0.581c-0.62,0-1.229,0.043-1.831,0.109 l-0.065-0.496c-1.064,0.119-2.081,0.326-3.074,0.63l0.138,0.48c-6.373,1.949-11,7.64-11,14.345 c0,16.956,9.974,26.543,14.262,29.879C35.257,81.61,36.666,82.5,40,82.5c2.26,0,4.837-1.319,6.565-3.361 c0.856-1.012,2.108-1.593,3.435-1.593s2.578,0.581,3.435,1.593C55.163,81.181,57.74,82.5,60,82.5c3.334,0,4.743-0.89,6.238-2.053 C70.526,77.112,80.5,67.524,80.5,50.568C80.5,42.26,73.398,35.5,64.669,35.5z"/><path fill="#1f212b" d="M60,83c-2.4,0-5.128-1.389-6.947-3.538c-0.762-0.9-1.874-1.416-3.053-1.416 s-2.291,0.516-3.053,1.416C45.128,81.611,42.4,83,40,83c-3.488,0-5.027-0.978-6.545-2.158C29.109,77.461,19,67.745,19,50.568 c0-6.789,4.563-12.746,11.354-14.823c0.266-0.083,0.544,0.068,0.625,0.332c0.08,0.264-0.068,0.544-0.332,0.625 C24.278,38.649,20,44.222,20,50.568c0,16.735,9.839,26.194,14.069,29.484C35.534,81.193,36.817,82,40,82 c2.119,0,4.546-1.25,6.184-3.185c0.952-1.125,2.343-1.77,3.816-1.77s2.864,0.645,3.816,1.77C55.454,80.75,57.881,82,60,82 c3.183,0,4.466-0.807,5.93-1.947C70.161,76.763,80,67.304,80,50.568C80,42.535,73.122,36,64.669,36 c-5.257,0-8.916,2.665-11.06,4.901c-0.663,0.691-2.33,2.787-2.824,3.412l-0.394,0.496c-0.189,0.239-0.594,0.239-0.783,0 l-0.393-0.495c-0.454-0.574-1.371-1.724-2.098-2.586c-0.179-0.211-0.151-0.526,0.06-0.705c0.21-0.176,0.526-0.151,0.704,0.06 c0.734,0.87,1.659,2.03,2.118,2.61v0l0.001-0.001c0.643-0.813,2.212-2.78,2.886-3.484C55.166,37.833,59.06,35,64.669,35 C73.674,35,81,41.984,81,50.568c0,17.177-10.109,26.893-14.456,30.273C65.027,82.022,63.488,83,60,83z"/><path fill="#1f212b" d="M39.5 36.581c-.045 0-.092-.006-.138-.019C38.057 36.189 36.7 36 35.331 36c-.547 0-1.128.035-1.776.106-.273.024-.521-.167-.552-.442-.03-.274.168-.521.442-.552C34.13 35.037 34.747 35 35.331 35c1.462 0 2.91.202 4.307.6.265.076.419.353.343.618C39.918 36.438 39.718 36.581 39.5 36.581zM44.5 39.07c-.104 0-.208-.032-.298-.099-.616-.457-1.269-.872-1.938-1.232-.243-.131-.335-.434-.204-.677s.436-.334.677-.204c.713.383 1.406.824 2.062 1.31.222.165.269.478.104.699C44.804 39 44.652 39.07 44.5 39.07z"/><g><path fill="#1f212b" d="M50,38c-0.553,0-1-0.448-1-1c0-11.384,7.116-16.597,7.419-16.814 c0.449-0.321,1.073-0.217,1.395,0.233c0.32,0.449,0.218,1.072-0.23,1.393l0,0C57.314,22.006,51,26.687,51,37 C51,37.552,50.553,38,50,38z"/></g><g><path fill="#60be92" d="M32.546,12.877C31.503,29.965,51.5,28.5,51.5,28.5S52.854,9.706,32.546,12.877z"/><path fill="#1f212b" d="M50.262,29.036c-2.887,0-9.971-0.484-14.452-4.911c-2.785-2.752-4.052-6.546-3.763-11.278 c0.015-0.235,0.189-0.428,0.422-0.464c6.452-1.006,11.444,0.063,14.835,3.185c5.22,4.803,4.719,12.637,4.695,12.969 c-0.019,0.248-0.215,0.444-0.463,0.462C51.454,29.005,50.991,29.036,50.262,29.036z M33.024,13.311 c-0.178,4.241,0.994,7.637,3.484,10.099c4.629,4.577,12.54,4.662,14.507,4.611c0.021-1.699-0.209-7.875-4.395-11.722 C43.534,13.461,38.959,12.456,33.024,13.311z"/><path fill="#1f212b" d="M48.5,25c-0.173,0-0.342-0.09-0.435-0.252C44.212,18.003,37.431,16,37.362,15.981 c-0.266-0.076-0.419-0.353-0.343-0.618c0.075-0.265,0.349-0.421,0.618-0.344c0.294,0.084,7.242,2.138,11.297,9.233 c0.137,0.24,0.054,0.545-0.187,0.682C48.67,24.979,48.585,25,48.5,25z"/></g><g><path fill="#b77748" d="M45.5 60.5c0 2-2 4-2 4s-2-2-2-4 2-4 2-4S45.5 58.5 45.5 60.5zM58.5 60.5c0 2-2 4-2 4s-2-2-2-4 2-4 2-4S58.5 58.5 58.5 60.5z"/><path fill="#1f212b" d="M43.5 65c-.128 0-.256-.049-.354-.146C43.059 64.766 41 62.682 41 60.5s2.059-4.266 2.146-4.354c.195-.195.512-.195.707 0C43.941 56.234 46 58.318 46 60.5s-2.059 4.266-2.146 4.354C43.756 64.951 43.628 65 43.5 65zM43.5 57.25c-.538.644-1.5 1.972-1.5 3.25s.962 2.607 1.5 3.25c.538-.644 1.5-1.972 1.5-3.25S44.038 57.893 43.5 57.25zM56.5 65c-.128 0-.256-.049-.354-.146C56.059 64.766 54 62.682 54 60.5s2.059-4.266 2.146-4.354c.195-.195.512-.195.707 0C56.941 56.234 59 58.318 59 60.5s-2.059 4.266-2.146 4.354C56.756 64.951 56.628 65 56.5 65zM56.5 57.25c-.538.644-1.5 1.972-1.5 3.25s.962 2.607 1.5 3.25c.538-.644 1.5-1.972 1.5-3.25S57.038 57.893 56.5 57.25z"/></g></svg>