<svg xmlns="http://www.w3.org/2000/svg"  viewBox="0 0 100 100" width="500px" height="500px"><polygon fill="#1f212b" points="69.302,61.367 21.926,76.216 36.775,28.84 61.877,36.265"/><path fill="#787ab5" d="M39.603,37.325c-2.917,2.917-7.69,2.917-10.607,0s-2.917-7.69,0-10.607s7.69-2.917,10.607,0 S42.52,34.409,39.603,37.325z"/><path fill="#787ab5" d="M71.423,69.145c-2.917,2.917-7.69,2.917-10.607,0s-2.917-7.69,0-10.607s7.69-2.917,10.607,0 S74.34,66.228,71.423,69.145z"/><circle cx="44.907" cy="42.629" r="7.5" fill="#787ab5"/><circle cx="48.796" cy="28.133" r="7.5" fill="#787ab5"/><circle cx="55.513" cy="53.235" r="7.5" fill="#787ab5"/><circle cx="37.129" cy="71.62" r="7.5" fill="#787ab5"/><path fill="#787ab5" d="M46.321,62.428c-2.917,2.917-7.69,2.917-10.607,0s-2.917-7.69,0-10.607s7.69-2.917,10.607,0 S49.238,59.511,46.321,62.428z"/><circle cx="22.633" cy="75.509" r="7.5" fill="#787ab5"/><circle cx="30.411" cy="46.518" r="7.5" fill="#787ab5"/><circle cx="26.522" cy="61.013" r="7.5" fill="#787ab5"/><circle cx="70.009" cy="49.346" r="7.5" fill="#787ab5"/><path fill="#787ab5" d="M64.687,43.987c-2.907,2.907-7.663,2.907-10.569,0c-2.907-2.907-2.907-7.663,0-10.569 c2.907-2.907,7.663-2.907,10.569,0C67.594,36.324,67.594,41.08,64.687,43.987z"/><path fill="#787ab5" d="M56.928,73.034c-2.917,2.917-7.69,2.917-10.607,0s-2.917-7.69,0-10.607s7.69-2.917,10.607,0 S59.844,70.117,56.928,73.034z"/><path fill="none" stroke="#1f212b" stroke-linecap="round" stroke-linejoin="round" stroke-miterlimit="10" stroke-width="2" d="M39.603,37.325c-2.917,2.917-7.69,2.917-10.607,0s-2.917-7.69,0-10.607s7.69-2.917,10.607,0S42.52,34.409,39.603,37.325z"/><path fill="none" stroke="#1f212b" stroke-linecap="round" stroke-linejoin="round" stroke-miterlimit="10" stroke-width="2" d="M71.423,69.145c-2.917,2.917-7.69,2.917-10.607,0s-2.917-7.69,0-10.607s7.69-2.917,10.607,0S74.34,66.228,71.423,69.145z"/><circle cx="44.907" cy="42.629" r="7.5" fill="none" stroke="#1f212b" stroke-linecap="round" stroke-linejoin="round" stroke-miterlimit="10" stroke-width="2"/><circle cx="48.796" cy="28.133" r="7.5" fill="none" stroke="#1f212b" stroke-linecap="round" stroke-linejoin="round" stroke-miterlimit="10" stroke-width="2"/><circle cx="55.513" cy="53.235" r="7.5" fill="none" stroke="#1f212b" stroke-linecap="round" stroke-linejoin="round" stroke-miterlimit="10" stroke-width="2"/><circle cx="37.129" cy="71.62" r="7.5" fill="none" stroke="#1f212b" stroke-linecap="round" stroke-linejoin="round" stroke-miterlimit="10" stroke-width="2"/><circle cx="22.633" cy="75.509" r="7.5" fill="none" stroke="#1f212b" stroke-linecap="round" stroke-linejoin="round" stroke-miterlimit="10" stroke-width="2"/><circle cx="26.522" cy="61.013" r="7.5" fill="none" stroke="#1f212b" stroke-linecap="round" stroke-linejoin="round" stroke-miterlimit="10" stroke-width="2"/><circle cx="70.009" cy="49.346" r="7.5" fill="none" stroke="#1f212b" stroke-linecap="round" stroke-linejoin="round" stroke-miterlimit="10" stroke-width="2"/><path fill="none" stroke="#1f212b" stroke-linecap="round" stroke-linejoin="round" stroke-miterlimit="10" stroke-width="2" d="M56.928,73.034c-2.917,2.917-7.69,2.917-10.607,0s-2.917-7.69,0-10.607s7.69-2.917,10.607,0S59.844,70.117,56.928,73.034z"/><path fill="none" stroke="#1f212b" stroke-linecap="round" stroke-linejoin="round" stroke-miterlimit="10" stroke-width="2" d="M64.687,43.987c-2.907,2.907-7.663,2.907-10.569,0c-2.907-2.907-2.907-7.663,0-10.569c2.907-2.907,7.663-2.907,10.569,0 C67.594,36.324,67.594,41.08,64.687,43.987z"/><path fill="none" stroke="#1f212b" stroke-linecap="round" stroke-linejoin="round" stroke-miterlimit="10" stroke-width="2" d="M46.321,62.428c-2.917,2.917-7.69,2.917-10.607,0s-2.917-7.69,0-10.607s7.69-2.917,10.607,0S49.238,59.511,46.321,62.428z"/><circle cx="30.411" cy="46.518" r="7.5" fill="none" stroke="#1f212b" stroke-linecap="round" stroke-linejoin="round" stroke-miterlimit="10" stroke-width="2"/><path fill="none" stroke="#1f212b" stroke-linecap="round" stroke-linejoin="round" stroke-miterlimit="10" stroke-width="2" d="M65,33.5c0,0,9.745-15.331,25.5-12.5"/><path fill="none" stroke="#1f212b" stroke-linecap="round" stroke-linejoin="round" stroke-miterlimit="10" stroke-width="2" d="M62,23c-2.061-0.023-2.577-7.764,3.5-7.5c7.641,0.332,4.5,12,4.5,12"/><g><path fill="#60be92" d="M86.805,23.631c-3.48-1.997-5.722-2.131-5.722-2.131c-14.768,13.426,4.506,22.182,4.603,28.001 c0,0,2.378-2.094,4.388-5.551C93.471,38.108,95.505,28.624,86.805,23.631z"/><path fill="#1f212b" d="M85.434,49.933c-0.152-0.087-0.248-0.247-0.251-0.424c-0.027-1.581-1.759-3.549-3.766-5.828 c-4.781-5.428-11.329-12.863-0.673-22.55c0.101-0.091,0.233-0.138,0.369-0.13c0.096,0.007,2.402,0.166,5.943,2.198 c8.669,4.975,7.277,14.423,3.452,21.001c-2.028,3.487-4.39,5.588-4.489,5.675c-0.148,0.128-0.356,0.161-0.536,0.083 C85.466,49.95,85.45,49.942,85.434,49.933z M81.253,22.022c-9.696,8.95-3.812,15.63,0.918,21.003 c1.771,2.01,3.342,3.793,3.846,5.453c0.835-0.859,2.314-2.53,3.62-4.777c3.593-6.18,4.942-15.031-3.085-19.637 C83.819,22.494,81.865,22.109,81.253,22.022z"/><path fill="#1f212b" d="M86.71,43.749c-0.178-0.102-0.282-0.308-0.243-0.522c0.133-0.726,0.236-1.418,0.324-2.092 c0.036-0.273,0.288-0.467,0.563-0.431c0.273,0.035,0.469,0.285,0.433,0.559c-0.089,0.691-0.196,1.4-0.332,2.143 c-0.05,0.271-0.311,0.451-0.585,0.401C86.812,43.797,86.758,43.777,86.71,43.749z M87.307,38.328 c-0.155-0.089-0.257-0.257-0.251-0.447c0.287-9.727-4.573-12.696-4.623-12.724c-0.238-0.14-0.319-0.446-0.179-0.682 c0.14-0.237,0.445-0.318,0.684-0.18l0.001,0c0.222,0.127,5.429,3.249,5.121,13.616c-0.008,0.275-0.24,0.492-0.517,0.484 C87.457,38.393,87.376,38.368,87.307,38.328z"/></g></svg>