<svg xmlns="http://www.w3.org/2000/svg"  viewBox="0 0 100 100" width="500px" height="500px"><path fill="#df5f80" d="M40,70c-4.971,0-9,3.358-9,7.5s4.029,7.5,9,7.5s9-3.358,9-7.5S44.971,70,40,70z"/><path fill="#df5f80" d="M63,70c-4.971,0-9,3.358-9,7.5s4.029,7.5,9,7.5s9-3.358,9-7.5S67.971,70,63,70z"/><path fill="none" stroke="#1f212b" stroke-linecap="round" stroke-linejoin="round" stroke-miterlimit="10" stroke-width="2" d="M40,70	c-4.971,0-9,3.358-9,7.5s4.029,7.5,9,7.5s9-3.358,9-7.5S44.971,70,40,70z"/><path fill="none" stroke="#1f212b" stroke-linecap="round" stroke-linejoin="round" stroke-miterlimit="10" stroke-width="2" d="M63,70	c-4.971,0-9,3.358-9,7.5s4.029,7.5,9,7.5s9-3.358,9-7.5S67.971,70,63,70z"/><path fill="#df5f80" d="M51.5,72c-5.247,0-9.5,3.582-9.5,8s4.253,8,9.5,8l0,0c5.247,0,9.5-3.582,9.5-8S56.747,72,51.5,72z"/><path fill="#df5f80" d="M34,60c-5.523,0-10,3.806-10,8.5S28.477,77,34,77s10-3.806,10-8.5S39.523,60,34,60z"/><path fill="none" stroke="#1f212b" stroke-linecap="round" stroke-linejoin="round" stroke-miterlimit="10" stroke-width="2" d="M51.5,72c-5.247,0-9.5,3.582-9.5,8s4.253,8,9.5,8l0,0c5.247,0,9.5-3.582,9.5-8S56.747,72,51.5,72z"/><path fill="#df5f80" d="M68,60c-5.523,0-10,3.806-10,8.5S62.477,77,68,77s10-3.806,10-8.5S73.523,60,68,60L68,60z"/><path fill="none" stroke="#1f212b" stroke-linecap="round" stroke-linejoin="round" stroke-miterlimit="10" stroke-width="2" d="M68,60	c-5.523,0-10,3.806-10,8.5S62.477,77,68,77s10-3.806,10-8.5S73.523,60,68,60L68,60z"/><path fill="none" stroke="#1f212b" stroke-linecap="round" stroke-linejoin="round" stroke-miterlimit="10" stroke-width="2" d="M34,60	c-5.523,0-10,3.806-10,8.5S28.477,77,34,77s10-3.806,10-8.5S39.523,60,34,60z"/><path fill="#df5f80" d="M44.5,59.5c-5.523,0-10,4.029-10,9s4.477,9,10,9s10-4.029,10-9S50.023,59.5,44.5,59.5z"/><path fill="none" stroke="#1f212b" stroke-linecap="round" stroke-linejoin="round" stroke-miterlimit="10" stroke-width="2" d="M44.5,59.5c-5.523,0-10,4.029-10,9s4.477,9,10,9s10-4.029,10-9S50.023,59.5,44.5,59.5z"/><path fill="#df5f80" d="M56.5,59.5c-5.523,0-10,4.029-10,9s4.477,9,10,9s10-4.029,10-9S62.023,59.5,56.5,59.5z"/><path fill="none" stroke="#1f212b" stroke-linecap="round" stroke-linejoin="round" stroke-miterlimit="10" stroke-width="2" d="M56.5,59.5c-5.523,0-10,4.029-10,9s4.477,9,10,9s10-4.029,10-9S62.023,59.5,56.5,59.5z"/><path fill="#a0d2a1" d="M69.432,39.292c-2.892-0.084-9.094-0.868-10.264-3.79c-0.796-1.986,0.802-4.992,4.626-8.704 c3.238-0.428,9.908-1.412,14.23-2.726C76.466,28.2,71.708,35.834,69.432,39.292z"/><path fill="#a0d2a1" d="M45.78,38.31c-6.678-0.258-15.378-1.11-16.816-2.444c-2.332-2.166-6.134-6.938-7.97-11.964 c6.774,1.534,14.37,1.662,16.684,1.662l0.312-0.002L45.78,38.31z"/><path fill="none" stroke="#1f212b" stroke-linecap="round" stroke-linejoin="round" stroke-miterlimit="10" stroke-width="2" d="M50.5,32.242c0-8.004,0.424-16.752,10-20.742"/><path fill="#a0d2a1" d="M45.242,35.9c-4.428,0-8.84-3.034-9.61-3.586c-0.716-1.046-5.288-8.268-1.868-17.794 c7.042,9.05,15.958,14.148,18.988,15.88c0.08,0.046,0.158,0.09,0.23,0.13C51.218,34.096,48.62,35.9,45.242,35.9z"/><path fill="#a0d2a1" d="M45.22,32.482c4.312-2.158,14.36-7.62,23.284-15.688c-0.498,6.154-4.346,17.856-6.194,22.022 L45.22,32.482z"/><path fill="none" stroke="#1f212b" stroke-linecap="round" stroke-miterlimit="10" d="M67,26.342 c3.416-0.52,7.852-1.306,11.024-2.27c-0.74,1.96-2.201,4.71-3.775,7.428"/><path fill="none" stroke="#1f212b" stroke-linecap="round" stroke-miterlimit="10" d="M25.499,31.928 c-1.716-2.285-3.441-5.113-4.505-8.026c3.961,0.897,8.203,1.313,11.506,1.504"/><path fill="none" stroke="#1f212b" stroke-linecap="round" stroke-miterlimit="10" d="M45.242,35.9 c-4.428,0-8.84-3.034-9.61-3.586c-0.716-1.046-5.288-8.268-1.868-17.794c7.042,9.05,15.958,14.148,18.988,15.88 c0.08,0.046,0.158,0.09,0.23,0.13C51.218,34.096,48.62,35.9,45.242,35.9z"/><path fill="none" stroke="#1f212b" stroke-linecap="round" stroke-miterlimit="10" d="M45.22,32.482 c4.312-2.158,14.36-7.62,23.284-15.688c-0.498,6.154-4.346,17.856-6.194,22.022L45.22,32.482z"/><path fill="#df5f80" d="M72,46c-5.523,0-10,3.806-10,8.5S66.477,63,72,63c5.523,0,10-3.806,10-8.5S77.523,46,72,46L72,46z"/><path fill="#df5f80" d="M30,46c-5.523,0-10,3.806-10,8.5S24.477,63,30,63s10-3.806,10-8.5S35.523,46,30,46z"/><path fill="none" stroke="#1f212b" stroke-linecap="round" stroke-linejoin="round" stroke-miterlimit="10" stroke-width="2" d="M72,46	c-5.523,0-10,3.806-10,8.5S66.477,63,72,63c5.523,0,10-3.806,10-8.5S77.523,46,72,46L72,46z"/><path fill="none" stroke="#1f212b" stroke-linecap="round" stroke-linejoin="round" stroke-miterlimit="10" stroke-width="2" d="M30,46	c-5.523,0-10,3.806-10,8.5S24.477,63,30,63s10-3.806,10-8.5S35.523,46,30,46z"/><path fill="#df5f80" d="M42.5,46C36.701,46,32,50.029,32,55s4.701,9,10.5,9S53,59.971,53,55S48.299,46,42.5,46z"/><path fill="none" stroke="#1f212b" stroke-linecap="round" stroke-linejoin="round" stroke-miterlimit="10" stroke-width="2" d="M42.5,46C36.701,46,32,50.029,32,55s4.701,9,10.5,9S53,59.971,53,55S48.299,46,42.5,46z"/><path fill="#df5f80" d="M27,32c-5.523,0-10,3.806-10,8.5S21.477,49,27,49s10-3.806,10-8.5S32.523,32,27,32z"/><path fill="#df5f80" d="M58.5,46C52.701,46,48,50.029,48,55s4.701,9,10.5,9S69,59.971,69,55S64.299,46,58.5,46z"/><path fill="none" stroke="#1f212b" stroke-linecap="round" stroke-linejoin="round" stroke-miterlimit="10" stroke-width="2" d="M58.5,46C52.701,46,48,50.029,48,55s4.701,9,10.5,9S69,59.971,69,55S64.299,46,58.5,46z"/><path fill="#df5f80" d="M75.5,32c-5.247,0-9.5,3.806-9.5,8.5s4.253,8.5,9.5,8.5s9.5-3.806,9.5-8.5S80.747,32,75.5,32z"/><path fill="none" stroke="#1f212b" stroke-linecap="round" stroke-linejoin="round" stroke-miterlimit="10" stroke-width="2" d="M75.5,32c-5.247,0-9.5,3.806-9.5,8.5s4.253,8.5,9.5,8.5s9.5-3.806,9.5-8.5S80.747,32,75.5,32z"/><path fill="#df5f80" d="M64.5,29.5c-6.627,0-12,4.477-12,10s5.373,10,12,10s12-4.477,12-10S71.127,29.5,64.5,29.5z"/><path fill="none" stroke="#1f212b" stroke-linecap="round" stroke-linejoin="round" stroke-miterlimit="10" stroke-width="2" d="M64.5,29.5c-6.627,0-12,4.477-12,10s5.373,10,12,10s12-4.477,12-10S71.127,29.5,64.5,29.5z"/><path fill="none" stroke="#1f212b" stroke-linecap="round" stroke-linejoin="round" stroke-miterlimit="10" stroke-width="2" d="M27,32c-5.523,0-10,3.806-10,8.5S21.477,49,27,49s10-3.806,10-8.5S32.523,32,27,32z"/><path fill="#df5f80" d="M38,29.5c-6.627,0-12,4.365-12,9.75S31.373,49,38,49s12-4.365,12-9.75S44.627,29.5,38,29.5z"/><path fill="none" stroke="#1f212b" stroke-linecap="round" stroke-linejoin="round" stroke-miterlimit="10" stroke-width="2" d="M38,29.5c-6.627,0-12,4.365-12,9.75S31.373,49,38,49s12-4.365,12-9.75S44.627,29.5,38,29.5z"/><path fill="#df5f80" d="M51.5,29.5c-7.456,0-13.5,4.365-13.5,9.75S44.044,49,51.5,49S65,44.635,65,39.25 S58.956,29.5,51.5,29.5z"/><path fill="none" stroke="#1f212b" stroke-linecap="round" stroke-linejoin="round" stroke-miterlimit="10" stroke-width="2" d="M51.5,29.5c-7.456,0-13.5,4.365-13.5,9.75S44.044,49,51.5,49S65,44.635,65,39.25S58.956,29.5,51.5,29.5z"/></svg>