<svg xmlns="http://www.w3.org/2000/svg" xmlns:xlink="http://www.w3.org/1999/xlink" width="100" zoomAndPan="magnify" viewBox="0 0 75 74.999997" height="100" preserveAspectRatio="xMidYMid meet" version="1.0"><defs><clipPath id="id1"><path d="M 47 27 L 73.5 27 L 73.5 54 L 47 54 Z M 47 27 " clip-rule="nonzero"/></clipPath><clipPath id="id2"><path d="M 57.101562 20 L 63.992188 20 L 63.992188 27.0625 L 57.101562 27.0625 Z M 57.101562 20 " clip-rule="nonzero"/></clipPath><clipPath id="id3"><path d="M 57.101562 20 L 60 20 L 60 23 L 57.101562 23 Z M 57.101562 20 " clip-rule="nonzero"/></clipPath><clipPath id="id4"><path d="M 22.921875 13 L 29.011719 13 L 29.011719 19.234375 L 22.921875 19.234375 Z M 22.921875 13 " clip-rule="nonzero"/></clipPath><clipPath id="id5"><path d="M 26 12 L 29.011719 12 L 29.011719 14 L 26 14 Z M 26 12 " clip-rule="nonzero"/></clipPath><clipPath id="id6"><path d="M 25 11.945312 L 27 11.945312 L 27 14 L 25 14 Z M 25 11.945312 " clip-rule="nonzero"/></clipPath><clipPath id="id7"><path d="M 12.152344 31.753906 L 16.953125 31.753906 L 16.953125 38.921875 L 12.152344 38.921875 Z M 12.152344 31.753906 " clip-rule="nonzero"/></clipPath><clipPath id="id8"><path d="M 12.152344 33 L 16.953125 33 L 16.953125 38.921875 L 12.152344 38.921875 Z M 12.152344 33 " clip-rule="nonzero"/></clipPath><clipPath id="id9"><path d="M 14 33 L 16.953125 33 L 16.953125 38.921875 L 14 38.921875 Z M 14 33 " clip-rule="nonzero"/></clipPath><clipPath id="id10"><path d="M 12.152344 32 L 15 32 L 15 34 L 12.152344 34 Z M 12.152344 32 " clip-rule="nonzero"/></clipPath><clipPath id="id11"><path d="M 56.148438 44 L 61.761719 44 L 61.761719 49.519531 L 56.148438 49.519531 Z M 56.148438 44 " clip-rule="nonzero"/></clipPath><clipPath id="id12"><path d="M 56.148438 43.007812 L 58 43.007812 L 58 45 L 56.148438 45 Z M 56.148438 43.007812 " clip-rule="nonzero"/></clipPath><clipPath id="id13"><path d="M 38.15625 22.476562 L 44.992188 22.476562 L 44.992188 25 L 38.15625 25 Z M 38.15625 22.476562 " clip-rule="nonzero"/></clipPath><clipPath id="id14"><path d="M 38.15625 23 L 44.992188 23 L 44.992188 29.535156 L 38.15625 29.535156 Z M 38.15625 23 " clip-rule="nonzero"/></clipPath><clipPath id="id15"><path d="M 38.15625 22.476562 L 42 22.476562 L 42 25 L 38.15625 25 Z M 38.15625 22.476562 " clip-rule="nonzero"/></clipPath><clipPath id="id16"><path d="M 48.128906 33 L 53.492188 33 L 53.492188 38.550781 L 48.128906 38.550781 Z M 48.128906 33 " clip-rule="nonzero"/></clipPath><clipPath id="id17"><path d="M 50 32.125 L 53.492188 32.125 L 53.492188 34 L 50 34 Z M 50 32.125 " clip-rule="nonzero"/></clipPath><clipPath id="id18"><path d="M 50 32.125 L 52 32.125 L 52 34 L 50 34 Z M 50 32.125 " clip-rule="nonzero"/></clipPath><clipPath id="id19"><path d="M 39 7.101562 L 41 7.101562 L 41 10 L 39 10 Z M 39 7.101562 " clip-rule="nonzero"/></clipPath><clipPath id="id20"><path d="M 36.964844 7.101562 L 41.765625 7.101562 L 41.765625 14 L 36.964844 14 Z M 36.964844 7.101562 " clip-rule="nonzero"/></clipPath><clipPath id="id21"><path d="M 36.964844 8 L 41.765625 8 L 41.765625 14.269531 L 36.964844 14.269531 Z M 36.964844 8 " clip-rule="nonzero"/></clipPath><clipPath id="id22"><path d="M 37 7.101562 L 40 7.101562 L 40 10 L 37 10 Z M 37 7.101562 " clip-rule="nonzero"/></clipPath><clipPath id="id23"><path d="M 8.863281 45.289062 L 15 45.289062 L 15 48 L 8.863281 48 Z M 8.863281 45.289062 " clip-rule="nonzero"/></clipPath><clipPath id="id24"><path d="M 8.863281 46 L 15.703125 46 L 15.703125 52.351562 L 8.863281 52.351562 Z M 8.863281 46 " clip-rule="nonzero"/></clipPath><clipPath id="id25"><path d="M 8.863281 45.289062 L 13 45.289062 L 13 48 L 8.863281 48 Z M 8.863281 45.289062 " clip-rule="nonzero"/></clipPath><clipPath id="id26"><path d="M 10 20 L 16.09375 20 L 16.09375 26.304688 L 10 26.304688 Z M 10 20 " clip-rule="nonzero"/></clipPath><clipPath id="id27"><path d="M 9.816406 20 L 12 20 L 12 22 L 9.816406 22 Z M 9.816406 20 " clip-rule="nonzero"/></clipPath><clipPath id="id28"><path d="M 27 28 L 32.507812 28 L 32.507812 33.742188 L 27 33.742188 Z M 27 28 " clip-rule="nonzero"/></clipPath><clipPath id="id29"><path d="M 26.824219 27.148438 L 28 27.148438 L 28 29 L 26.824219 29 Z M 26.824219 27.148438 " clip-rule="nonzero"/></clipPath><clipPath id="id30"><path d="M 48.359375 16 L 54.449219 16 L 54.449219 22.1875 L 48.359375 22.1875 Z M 48.359375 16 " clip-rule="nonzero"/></clipPath><clipPath id="id31"><path d="M 51 15 L 54.449219 15 L 54.449219 17 L 51 17 Z M 51 15 " clip-rule="nonzero"/></clipPath><clipPath id="id32"><path d="M 51 14.898438 L 53 14.898438 L 53 17 L 51 17 Z M 51 14.898438 " clip-rule="nonzero"/></clipPath><clipPath id="id33"><path d="M 63 33.046875 L 65 33.046875 L 65 36 L 63 36 Z M 63 33.046875 " clip-rule="nonzero"/></clipPath><clipPath id="id34"><path d="M 61.367188 33.046875 L 66.171875 33.046875 L 66.171875 40 L 61.367188 40 Z M 61.367188 33.046875 " clip-rule="nonzero"/></clipPath><clipPath id="id35"><path d="M 61.367188 34 L 66.171875 34 L 66.171875 40.214844 L 61.367188 40.214844 Z M 61.367188 34 " clip-rule="nonzero"/></clipPath><clipPath id="id36"><path d="M 61.367188 33.046875 L 64 33.046875 L 64 36 L 61.367188 36 Z M 61.367188 33.046875 " clip-rule="nonzero"/></clipPath></defs><path fill="rgb(21.958923%, 31.759644%, 15.289307%)" d="M 41.964844 24.535156 C 37.839844 24.535156 34.101562 26.203125 31.382812 28.898438 C 28.859375 26.988281 25.71875 25.851562 22.3125 25.851562 C 13.992188 25.851562 7.25 32.617188 7.25 40.960938 C 7.25 49.304688 13.992188 56.070312 22.3125 56.070312 C 26.4375 56.070312 30.175781 54.40625 32.898438 51.707031 C 35.417969 53.621094 38.5625 54.757812 41.964844 54.757812 C 50.285156 54.757812 57.027344 47.992188 57.027344 39.648438 C 57.027344 31.300781 50.285156 24.535156 41.964844 24.535156 " fill-opacity="1" fill-rule="nonzero"/><path fill="rgb(57.649231%, 25.099182%, 16.079712%)" d="M 31.695312 86.992188 C 31.695312 86.992188 36.804688 63.796875 30.820312 52.835938 C 24.835938 41.878906 14.980469 33.402344 14.980469 33.402344 C 14.980469 33.402344 18.5 35.875 24.835938 41.878906 C 31.171875 47.882812 28.003906 44.703125 27.300781 29.871094 C 27.300781 29.871094 30.117188 42.9375 31.878906 43.292969 C 33.636719 43.644531 33.285156 41.523438 37.511719 36.933594 C 37.511719 36.933594 33.285156 44.703125 33.988281 48.234375 C 34.695312 51.765625 42.351562 40.722656 44.222656 33.992188 C 45.445312 29.605469 41.066406 45.976562 44.261719 45.601562 C 46.386719 45.355469 48.402344 38.996094 51.144531 38.777344 C 51.144531 38.777344 43.746094 47.148438 41.71875 52.957031 C 39.6875 58.769531 38.136719 67.988281 38.496094 73.492188 C 38.855469 79 41.121094 86.992188 41.121094 86.992188 L 31.695312 86.992188 " fill-opacity="1" fill-rule="nonzero"/><path fill="rgb(37.649536%, 48.629761%, 20.388794%)" d="M 32.351562 28.480469 C 32.351562 37.433594 25.117188 44.691406 16.191406 44.691406 C 7.265625 44.691406 0.03125 37.433594 0.03125 28.480469 C 0.03125 19.527344 7.265625 12.265625 16.191406 12.265625 C 25.117188 12.265625 32.351562 19.527344 32.351562 28.480469 " fill-opacity="1" fill-rule="nonzero"/><path fill="rgb(37.649536%, 48.629761%, 20.388794%)" d="M 24.269531 45.019531 C 24.269531 50.585938 19.773438 55.097656 14.226562 55.097656 C 8.675781 55.097656 4.179688 50.585938 4.179688 45.019531 C 4.179688 39.453125 8.675781 34.945312 14.226562 34.945312 C 19.773438 34.945312 24.269531 39.453125 24.269531 45.019531 " fill-opacity="1" fill-rule="nonzero"/><path fill="rgb(37.649536%, 48.629761%, 20.388794%)" d="M 56.496094 19.058594 C 56.496094 29.585938 47.988281 38.121094 37.496094 38.121094 C 27.003906 38.121094 18.496094 29.585938 18.496094 19.058594 C 18.496094 8.53125 27.003906 0 37.496094 0 C 47.988281 0 56.496094 8.53125 56.496094 19.058594 " fill-opacity="1" fill-rule="nonzero"/><path fill="rgb(37.649536%, 48.629761%, 20.388794%)" d="M 72.195312 27.273438 C 72.195312 36.886719 64.425781 44.679688 54.84375 44.679688 C 45.265625 44.679688 37.496094 36.886719 37.496094 27.273438 C 37.496094 17.664062 45.265625 9.871094 54.84375 9.871094 C 64.425781 9.871094 72.195312 17.664062 72.195312 27.273438 " fill-opacity="1" fill-rule="nonzero"/><g clip-path="url(#id1)"><path fill="rgb(37.649536%, 48.629761%, 20.388794%)" d="M 73.492188 40.304688 C 73.492188 47.535156 67.644531 53.402344 60.433594 53.402344 C 53.222656 53.402344 47.378906 47.535156 47.378906 40.304688 C 47.378906 33.070312 53.222656 27.207031 60.433594 27.207031 C 67.644531 27.207031 73.492188 33.070312 73.492188 40.304688 " fill-opacity="1" fill-rule="nonzero"/></g><path fill="rgb(37.649536%, 48.629761%, 20.388794%)" d="M 60.425781 18.542969 C 57.832031 18.542969 55.726562 20.648438 55.726562 23.242188 C 55.726562 25.839844 57.832031 27.941406 60.425781 27.941406 C 63.023438 27.941406 65.125 25.839844 65.125 23.242188 C 65.125 20.648438 63.023438 18.542969 60.425781 18.542969 " fill-opacity="1" fill-rule="nonzero"/><g clip-path="url(#id2)"><path fill="rgb(95.689392%, 56.469727%, 4.708862%)" d="M 57.695312 23.863281 C 57.695312 22.117188 59.101562 20.703125 60.84375 20.703125 C 62.582031 20.703125 63.992188 22.117188 63.992188 23.863281 C 63.992188 25.605469 62.582031 27.019531 60.84375 27.019531 C 59.101562 27.019531 57.695312 25.605469 57.695312 23.863281 Z M 57.695312 23.863281 " fill-opacity="1" fill-rule="nonzero"/></g><g clip-path="url(#id3)"><path fill="rgb(39.99939%, 12.939453%, 7.449341%)" d="M 59.300781 21.582031 C 59.25 21.53125 59.148438 21.542969 59.039062 21.605469 C 58.410156 21.082031 57.390625 20.90625 57.34375 20.898438 C 57.238281 20.882812 57.140625 20.953125 57.125 21.054688 C 57.105469 21.160156 57.175781 21.257812 57.28125 21.277344 C 57.289062 21.277344 58.222656 21.4375 58.773438 21.878906 C 58.71875 21.980469 58.710938 22.074219 58.757812 22.125 C 58.832031 22.199219 59.015625 22.136719 59.164062 21.988281 C 59.3125 21.839844 59.375 21.65625 59.300781 21.582031 Z M 59.300781 21.582031 " fill-opacity="1" fill-rule="nonzero"/></g><path fill="rgb(36.079407%, 56.858826%, 23.139954%)" d="M 61.128906 20.320312 C 61.128906 20.320312 60.535156 21.148438 59.789062 21.332031 C 59.21875 21.46875 58.464844 21.484375 58.390625 21.308594 C 58.3125 21.132812 58.6875 20.554688 59.335938 20.273438 C 59.984375 19.996094 61.128906 20.320312 61.128906 20.320312 Z M 61.128906 20.320312 " fill-opacity="1" fill-rule="nonzero"/><path fill="rgb(37.649536%, 48.629761%, 20.388794%)" d="M 25.875 10.683594 C 23.15625 10.683594 20.953125 12.886719 20.953125 15.605469 C 20.953125 18.324219 23.15625 20.53125 25.875 20.53125 C 28.59375 20.53125 30.796875 18.324219 30.796875 15.605469 C 30.796875 12.886719 28.59375 10.683594 25.875 10.683594 " fill-opacity="1" fill-rule="nonzero"/><g clip-path="url(#id4)"><path fill="rgb(86.669922%, 18.03894%, 26.669312%)" d="M 27.179688 13.378906 C 26.574219 13.378906 26.574219 13.582031 25.964844 13.582031 C 25.359375 13.582031 25.359375 13.378906 24.75 13.378906 C 23.941406 13.378906 22.929688 13.785156 22.929688 15.195312 C 22.929688 17.417969 24.144531 19.234375 24.953125 19.234375 C 25.5625 19.234375 25.5625 19.035156 25.964844 19.035156 C 26.371094 19.035156 26.371094 19.234375 26.980469 19.234375 C 27.789062 19.234375 29.003906 17.417969 29.003906 15.195312 C 29.003906 13.785156 27.992188 13.378906 27.179688 13.378906 Z M 27.179688 13.378906 " fill-opacity="1" fill-rule="nonzero"/></g><g clip-path="url(#id5)"><path fill="rgb(46.669006%, 69.799805%, 33.329773%)" d="M 26.167969 13.378906 C 26.167969 13.378906 26.777344 12.570312 27.789062 12.570312 C 28.597656 12.570312 29.003906 12.976562 29.003906 12.976562 C 29.003906 12.976562 28.195312 13.582031 27.585938 13.582031 C 26.980469 13.582031 26.167969 13.378906 26.167969 13.378906 Z M 26.167969 13.378906 " fill-opacity="1" fill-rule="nonzero"/></g><g clip-path="url(#id6)"><path fill="rgb(39.99939%, 12.939453%, 7.449341%)" d="M 25.964844 13.984375 C 25.855469 13.984375 25.765625 13.894531 25.765625 13.785156 C 25.765625 13.089844 26.007812 12.449219 26.429688 12.023438 C 26.511719 11.945312 26.636719 11.945312 26.71875 12.023438 C 26.796875 12.105469 26.796875 12.230469 26.71875 12.3125 C 26.367188 12.65625 26.167969 13.195312 26.167969 13.785156 C 26.167969 13.894531 26.078125 13.984375 25.964844 13.984375 Z M 25.964844 13.984375 " fill-opacity="1" fill-rule="nonzero"/></g><path fill="rgb(37.649536%, 48.629761%, 20.388794%)" d="M 14.652344 30.515625 C 11.976562 30.515625 9.8125 32.683594 9.8125 35.355469 C 9.8125 38.027344 11.976562 40.195312 14.652344 40.195312 C 17.324219 40.195312 19.488281 38.027344 19.488281 35.355469 C 19.488281 32.683594 17.324219 30.515625 14.652344 30.515625 " fill-opacity="1" fill-rule="nonzero"/><path fill="rgb(100%, 100%, 100%)" d="M 15.195312 32.355469 C 15.195312 32.355469 14.714844 32.847656 14.714844 33.785156 " fill-opacity="1" fill-rule="nonzero"/><g clip-path="url(#id7)"><path stroke-linecap="butt" transform="matrix(0.160074, 0, 0, 0.159138, 10.711737, 31.718189)" fill="none" stroke-linejoin="miter" d="M 28.009394 4.004585 C 28.009394 4.004585 25.007853 7.097426 25.007853 12.988552 " stroke="rgb(47.44873%, 33.329773%, 28.239441%)" stroke-width="2" stroke-opacity="1" stroke-miterlimit="10"/></g><g clip-path="url(#id8)"><path fill="rgb(79.60968%, 42.349243%, 90.19928%)" d="M 16.953125 35.855469 C 16.953125 37.175781 15.882812 38.878906 14.554688 38.878906 C 13.226562 38.878906 12.152344 37.175781 12.152344 35.855469 C 12.152344 34.296875 12.855469 33.152344 14.714844 33.785156 C 16.21875 33.132812 16.953125 34.535156 16.953125 35.855469 Z M 16.953125 35.855469 " fill-opacity="1" fill-rule="nonzero"/></g><g clip-path="url(#id9)"><path fill="rgb(29.019165%, 7.839966%, 54.899597%)" d="M 15.976562 36.269531 C 16.011719 36.191406 16.011719 36.09375 16.011719 36.015625 L 16.042969 35.761719 C 16.042969 35.679688 16.042969 35.585938 16.042969 35.488281 C 16.042969 35.394531 16.042969 35.316406 16.027344 35.234375 C 16.011719 35.15625 15.996094 35.058594 15.976562 34.980469 C 15.960938 34.902344 15.929688 34.820312 15.914062 34.742188 C 15.867188 34.582031 15.800781 34.4375 15.738281 34.28125 C 15.65625 34.152344 15.59375 34.011719 15.515625 33.898438 C 15.449219 33.804688 15.386719 33.707031 15.304688 33.628906 C 15.113281 33.644531 14.921875 33.691406 14.699219 33.785156 C 15.53125 34.421875 15.707031 35.679688 15.707031 35.761719 L 15.707031 36 C 15.707031 36.078125 15.707031 36.15625 15.691406 36.238281 C 15.675781 36.316406 15.675781 36.398438 15.65625 36.476562 C 15.65625 36.554688 15.640625 36.636719 15.625 36.699219 C 15.59375 36.84375 15.5625 36.984375 15.515625 37.128906 C 15.464844 37.257812 15.417969 37.382812 15.371094 37.496094 C 15.355469 37.558594 15.320312 37.605469 15.304688 37.652344 C 15.273438 37.703125 15.257812 37.75 15.226562 37.796875 C 15.179688 37.894531 15.144531 37.972656 15.113281 38.035156 C 15.066406 38.164062 15.035156 38.242188 15.035156 38.242188 C 15.035156 38.242188 15.082031 38.179688 15.160156 38.050781 C 15.210938 37.988281 15.257812 37.925781 15.304688 37.828125 C 15.335938 37.78125 15.371094 37.734375 15.402344 37.703125 C 15.433594 37.652344 15.449219 37.605469 15.480469 37.542969 C 15.546875 37.429688 15.609375 37.304688 15.675781 37.175781 C 15.738281 37.050781 15.785156 36.890625 15.835938 36.746094 C 15.867188 36.667969 15.882812 36.585938 15.898438 36.507812 C 15.929688 36.429688 15.960938 36.347656 15.976562 36.269531 Z M 15.976562 36.269531 " fill-opacity="1" fill-rule="nonzero"/></g><g clip-path="url(#id10)"><path fill="rgb(29.798889%, 68.629456%, 31.369019%)" d="M 14.714844 33.785156 C 14.714844 33.785156 14.503906 31.796875 12.472656 32.515625 C 12.695312 34.582031 14.714844 33.785156 14.714844 33.785156 Z M 14.714844 33.785156 " fill-opacity="1" fill-rule="nonzero"/></g><path fill="rgb(37.649536%, 48.629761%, 20.388794%)" d="M 58.980469 41.324219 C 56.273438 41.324219 54.078125 43.519531 54.078125 46.226562 C 54.078125 48.933594 56.273438 51.128906 58.980469 51.128906 C 61.6875 51.128906 63.882812 48.933594 63.882812 46.226562 C 63.882812 43.519531 61.6875 41.324219 58.980469 41.324219 " fill-opacity="1" fill-rule="nonzero"/><g clip-path="url(#id11)"><path fill="rgb(65.098572%, 82.749939%, 53.329468%)" d="M 57.039062 44.5625 C 57.320312 44.007812 58.390625 44.226562 59.136719 44.945312 C 59.609375 45.402344 60.550781 45.210938 61.15625 45.792969 C 61.769531 46.382812 61.726562 47.441406 60.621094 48.570312 C 59.726562 49.476562 58.5 49.476562 57.769531 48.839844 C 57 48.167969 57.335938 47.324219 56.996094 46.449219 C 56.65625 45.570312 56.238281 44.613281 57.039062 44.5625 Z M 57.039062 44.5625 " fill-opacity="1" fill-rule="nonzero"/></g><g clip-path="url(#id12)"><path fill="rgb(39.99939%, 12.939453%, 7.449341%)" d="M 57.128906 44.640625 C 57.050781 44.71875 56.933594 44.726562 56.859375 44.65625 C 56.296875 44.113281 56.171875 43.328125 56.167969 43.289062 C 56.15625 43.183594 56.230469 43.082031 56.332031 43.0625 C 56.4375 43.042969 56.53125 43.109375 56.542969 43.210938 C 56.546875 43.21875 56.660156 43.914062 57.132812 44.371094 C 57.207031 44.441406 57.203125 44.5625 57.128906 44.640625 Z M 57.128906 44.640625 " fill-opacity="1" fill-rule="nonzero"/></g><path fill="rgb(37.649536%, 48.629761%, 20.388794%)" d="M 41.609375 20.914062 C 38.949219 20.914062 36.789062 23.070312 36.789062 25.730469 C 36.789062 28.390625 38.949219 30.546875 41.609375 30.546875 C 44.269531 30.546875 46.425781 28.390625 46.425781 25.730469 C 46.425781 23.070312 44.269531 20.914062 41.609375 20.914062 " fill-opacity="1" fill-rule="nonzero"/><g clip-path="url(#id13)"><path fill="rgb(36.079407%, 56.858826%, 23.139954%)" d="M 38.167969 23.480469 C 38.167969 23.480469 39.121094 22.496094 40.121094 22.496094 C 41.316406 22.496094 41.671875 23.464844 41.671875 23.464844 C 41.671875 23.464844 41.792969 22.679688 42.648438 22.679688 C 43.503906 22.679688 44.003906 23.292969 44.003906 23.292969 C 44.003906 23.292969 43.308594 23.710938 43.101562 23.796875 C 42.554688 24.023438 40.878906 24.496094 40.097656 24.300781 C 39.316406 24.105469 38.167969 23.480469 38.167969 23.480469 Z M 38.167969 23.480469 " fill-opacity="1" fill-rule="nonzero"/></g><g clip-path="url(#id14)"><path fill="rgb(100%, 53.329468%, 42.349243%)" d="M 41.476562 23.652344 C 41.476562 23.652344 41.679688 23.472656 42.648438 23.472656 C 43.925781 23.472656 44.992188 24.417969 44.992188 26.011719 C 44.992188 28.273438 42.070312 29.519531 42.070312 29.519531 C 42.070312 29.519531 38.15625 29.308594 38.15625 26 C 38.15625 24.046875 39.472656 23.453125 40.304688 23.453125 C 41.273438 23.453125 41.476562 23.652344 41.476562 23.652344 Z M 41.476562 23.652344 " fill-opacity="1" fill-rule="nonzero"/></g><g clip-path="url(#id15)"><path fill="rgb(46.669006%, 69.799805%, 33.329773%)" d="M 38.167969 23.480469 C 38.167969 23.480469 39.121094 22.496094 40.121094 22.496094 C 41.316406 22.496094 41.671875 23.464844 41.671875 23.464844 C 41.671875 23.464844 40.878906 24.496094 40.097656 24.300781 C 39.316406 24.105469 38.167969 23.480469 38.167969 23.480469 Z M 38.167969 23.480469 " fill-opacity="1" fill-rule="nonzero"/></g><path fill="rgb(86.669922%, 18.03894%, 26.669312%)" d="M 42.453125 28.359375 C 42.417969 28.359375 42.378906 28.347656 42.34375 28.328125 C 42.253906 28.265625 42.230469 28.144531 42.289062 28.054688 C 42.292969 28.050781 42.648438 27.484375 42.648438 26.199219 C 42.648438 24.9375 41.753906 24.203125 41.746094 24.195312 C 41.660156 24.128906 41.648438 24.003906 41.714844 23.921875 C 41.78125 23.835938 41.90625 23.820312 41.988281 23.890625 C 42.03125 23.925781 43.039062 24.75 43.039062 26.199219 C 43.039062 27.617188 42.632812 28.246094 42.617188 28.273438 C 42.578125 28.328125 42.515625 28.359375 42.453125 28.359375 Z M 42.453125 28.359375 " fill-opacity="1" fill-rule="nonzero"/><path fill="rgb(37.649536%, 48.629761%, 20.388794%)" d="M 50.730469 31.015625 C 48.335938 31.015625 46.390625 32.957031 46.390625 35.351562 C 46.390625 37.75 48.335938 39.691406 50.730469 39.691406 C 53.125 39.691406 55.070312 37.75 55.070312 35.351562 C 55.070312 32.957031 53.125 31.015625 50.730469 31.015625 " fill-opacity="1" fill-rule="nonzero"/><g clip-path="url(#id16)"><path fill="rgb(86.669922%, 18.03894%, 26.669312%)" d="M 51.882812 33.390625 C 51.34375 33.390625 51.34375 33.566406 50.808594 33.566406 C 50.273438 33.566406 50.273438 33.390625 49.738281 33.390625 C 49.023438 33.390625 48.132812 33.746094 48.132812 34.992188 C 48.132812 36.949219 49.203125 38.550781 49.917969 38.550781 C 50.453125 38.550781 50.453125 38.375 50.808594 38.375 C 51.167969 38.375 51.167969 38.550781 51.703125 38.550781 C 52.417969 38.550781 53.488281 36.949219 53.488281 34.992188 C 53.488281 33.746094 52.59375 33.390625 51.882812 33.390625 Z M 51.882812 33.390625 " fill-opacity="1" fill-rule="nonzero"/></g><g clip-path="url(#id17)"><path fill="rgb(46.669006%, 69.799805%, 33.329773%)" d="M 50.988281 33.390625 C 50.988281 33.390625 51.523438 32.679688 52.417969 32.679688 C 53.128906 32.679688 53.488281 33.035156 53.488281 33.035156 C 53.488281 33.035156 52.773438 33.566406 52.238281 33.566406 C 51.703125 33.566406 50.988281 33.390625 50.988281 33.390625 Z M 50.988281 33.390625 " fill-opacity="1" fill-rule="nonzero"/></g><g clip-path="url(#id18)"><path fill="rgb(39.99939%, 12.939453%, 7.449341%)" d="M 50.808594 33.921875 C 50.710938 33.921875 50.632812 33.84375 50.632812 33.746094 C 50.632812 33.132812 50.84375 32.566406 51.21875 32.195312 C 51.289062 32.125 51.402344 32.125 51.472656 32.195312 C 51.542969 32.265625 51.542969 32.378906 51.472656 32.449219 C 51.164062 32.753906 50.988281 33.226562 50.988281 33.746094 C 50.988281 33.84375 50.910156 33.921875 50.808594 33.921875 Z M 50.808594 33.921875 " fill-opacity="1" fill-rule="nonzero"/></g><path fill="rgb(37.649536%, 48.629761%, 20.388794%)" d="M 39.460938 5.863281 C 36.789062 5.863281 34.625 8.027344 34.625 10.699219 C 34.625 13.375 36.789062 15.539062 39.460938 15.539062 C 42.136719 15.539062 44.300781 13.375 44.300781 10.699219 C 44.300781 8.027344 42.136719 5.863281 39.460938 5.863281 " fill-opacity="1" fill-rule="nonzero"/><g clip-path="url(#id19)"><path fill="rgb(100%, 100%, 100%)" d="M 40.003906 7.703125 C 40.003906 7.703125 39.523438 8.195312 39.523438 9.132812 " fill-opacity="1" fill-rule="nonzero"/></g><g clip-path="url(#id20)"><path stroke-linecap="butt" transform="matrix(0.160074, 0, 0, 0.159138, 35.523265, 7.06464)" fill="none" stroke-linejoin="miter" d="M 27.991059 4.012155 C 27.991059 4.012155 24.989518 7.104996 24.989518 12.996122 " stroke="rgb(47.44873%, 33.329773%, 28.239441%)" stroke-width="2" stroke-opacity="1" stroke-miterlimit="10"/></g><g clip-path="url(#id21)"><path fill="rgb(79.60968%, 42.349243%, 90.19928%)" d="M 41.765625 11.203125 C 41.765625 12.523438 40.695312 14.226562 39.363281 14.226562 C 38.035156 14.226562 36.964844 12.523438 36.964844 11.203125 C 36.964844 9.644531 37.667969 8.496094 39.523438 9.132812 C 41.03125 8.480469 41.765625 9.882812 41.765625 11.203125 Z M 41.765625 11.203125 " fill-opacity="1" fill-rule="nonzero"/></g><path fill="rgb(29.019165%, 7.839966%, 54.899597%)" d="M 40.789062 11.617188 C 40.820312 11.535156 40.820312 11.441406 40.820312 11.363281 L 40.855469 11.105469 C 40.855469 11.027344 40.855469 10.933594 40.855469 10.835938 C 40.855469 10.742188 40.855469 10.660156 40.835938 10.582031 C 40.820312 10.503906 40.804688 10.40625 40.789062 10.328125 C 40.773438 10.246094 40.742188 10.167969 40.726562 10.089844 C 40.675781 9.929688 40.613281 9.785156 40.550781 9.625 C 40.46875 9.5 40.40625 9.355469 40.324219 9.246094 C 40.261719 9.148438 40.199219 9.054688 40.117188 8.972656 C 39.925781 8.988281 39.734375 9.039062 39.507812 9.132812 C 40.339844 9.769531 40.515625 11.027344 40.515625 11.105469 L 40.515625 11.34375 C 40.515625 11.425781 40.515625 11.503906 40.5 11.585938 C 40.484375 11.664062 40.484375 11.742188 40.46875 11.824219 C 40.46875 11.902344 40.453125 11.980469 40.4375 12.046875 C 40.40625 12.1875 40.375 12.332031 40.324219 12.476562 C 40.277344 12.601562 40.230469 12.730469 40.179688 12.839844 C 40.164062 12.90625 40.132812 12.953125 40.117188 13 C 40.085938 13.046875 40.070312 13.097656 40.039062 13.144531 C 39.988281 13.238281 39.957031 13.320312 39.925781 13.382812 C 39.878906 13.507812 39.84375 13.589844 39.84375 13.589844 C 39.84375 13.589844 39.894531 13.527344 39.972656 13.398438 C 40.019531 13.335938 40.070312 13.269531 40.117188 13.175781 C 40.148438 13.128906 40.179688 13.078125 40.214844 13.046875 C 40.246094 13 40.261719 12.953125 40.292969 12.890625 C 40.359375 12.777344 40.421875 12.648438 40.484375 12.523438 C 40.550781 12.394531 40.597656 12.238281 40.644531 12.09375 C 40.675781 12.015625 40.695312 11.933594 40.710938 11.855469 C 40.742188 11.773438 40.773438 11.695312 40.789062 11.617188 Z M 40.789062 11.617188 " fill-opacity="1" fill-rule="nonzero"/><g clip-path="url(#id22)"><path fill="rgb(29.798889%, 68.629456%, 31.369019%)" d="M 39.523438 9.132812 C 39.523438 9.132812 39.316406 7.144531 37.285156 7.859375 C 37.507812 9.929688 39.523438 9.132812 39.523438 9.132812 Z M 39.523438 9.132812 " fill-opacity="1" fill-rule="nonzero"/></g><path fill="rgb(37.649536%, 48.629761%, 20.388794%)" d="M 12.316406 43.730469 C 9.65625 43.730469 7.5 45.886719 7.5 48.546875 C 7.5 51.207031 9.65625 53.363281 12.316406 53.363281 C 14.976562 53.363281 17.132812 51.207031 17.132812 48.546875 C 17.132812 45.886719 14.976562 43.730469 12.316406 43.730469 " fill-opacity="1" fill-rule="nonzero"/><g clip-path="url(#id23)"><path fill="rgb(36.079407%, 56.858826%, 23.139954%)" d="M 8.875 46.292969 C 8.875 46.292969 9.828125 45.3125 10.828125 45.3125 C 12.027344 45.3125 12.382812 46.28125 12.382812 46.28125 C 12.382812 46.28125 12.503906 45.496094 13.359375 45.496094 C 14.214844 45.496094 14.714844 46.109375 14.714844 46.109375 C 14.714844 46.109375 14.019531 46.527344 13.808594 46.613281 C 13.261719 46.839844 11.585938 47.3125 10.804688 47.117188 C 10.023438 46.917969 8.875 46.292969 8.875 46.292969 Z M 8.875 46.292969 " fill-opacity="1" fill-rule="nonzero"/></g><g clip-path="url(#id24)"><path fill="rgb(100%, 53.329468%, 42.349243%)" d="M 12.1875 46.464844 C 12.1875 46.464844 12.390625 46.289062 13.359375 46.289062 C 14.636719 46.289062 15.703125 47.234375 15.703125 48.828125 C 15.703125 51.089844 12.78125 52.335938 12.78125 52.335938 C 12.78125 52.335938 8.863281 52.125 8.863281 48.816406 C 8.863281 46.863281 10.183594 46.269531 11.011719 46.269531 C 11.980469 46.269531 12.1875 46.464844 12.1875 46.464844 Z M 12.1875 46.464844 " fill-opacity="1" fill-rule="nonzero"/></g><g clip-path="url(#id25)"><path fill="rgb(46.669006%, 69.799805%, 33.329773%)" d="M 8.875 46.292969 C 8.875 46.292969 9.828125 45.3125 10.828125 45.3125 C 12.027344 45.3125 12.382812 46.28125 12.382812 46.28125 C 12.382812 46.28125 11.585938 47.3125 10.804688 47.117188 C 10.023438 46.921875 8.875 46.292969 8.875 46.292969 Z M 8.875 46.292969 " fill-opacity="1" fill-rule="nonzero"/></g><path fill="rgb(86.669922%, 18.03894%, 26.669312%)" d="M 13.164062 51.175781 C 13.125 51.175781 13.085938 51.164062 13.054688 51.140625 C 12.964844 51.082031 12.941406 50.960938 13 50.871094 C 13.003906 50.867188 13.359375 50.300781 13.359375 49.015625 C 13.359375 47.753906 12.464844 47.019531 12.453125 47.011719 C 12.371094 46.945312 12.355469 46.820312 12.425781 46.738281 C 12.492188 46.652344 12.613281 46.636719 12.699219 46.707031 C 12.742188 46.738281 13.75 47.566406 13.75 49.015625 C 13.75 50.433594 13.34375 51.0625 13.324219 51.089844 C 13.289062 51.144531 13.226562 51.175781 13.164062 51.175781 Z M 13.164062 51.175781 " fill-opacity="1" fill-rule="nonzero"/><path fill="rgb(37.649536%, 48.629761%, 20.388794%)" d="M 12.847656 18.542969 C 10.480469 18.542969 8.5625 20.460938 8.5625 22.824219 C 8.5625 25.191406 10.480469 27.109375 12.847656 27.109375 C 15.210938 27.109375 17.128906 25.191406 17.128906 22.824219 C 17.128906 20.460938 15.210938 18.542969 12.847656 18.542969 " fill-opacity="1" fill-rule="nonzero"/><g clip-path="url(#id26)"><path fill="rgb(95.689392%, 56.469727%, 4.708862%)" d="M 10.355469 23.390625 C 10.355469 21.800781 11.640625 20.511719 13.226562 20.511719 C 14.8125 20.511719 16.09375 21.800781 16.09375 23.390625 C 16.09375 24.980469 14.8125 26.269531 13.226562 26.269531 C 11.640625 26.269531 10.355469 24.980469 10.355469 23.390625 Z M 10.355469 23.390625 " fill-opacity="1" fill-rule="nonzero"/></g><g clip-path="url(#id27)"><path fill="rgb(39.99939%, 12.939453%, 7.449341%)" d="M 11.820312 21.3125 C 11.773438 21.265625 11.679688 21.277344 11.585938 21.332031 C 11.011719 20.855469 10.078125 20.695312 10.039062 20.6875 C 9.941406 20.671875 9.855469 20.738281 9.835938 20.832031 C 9.820312 20.925781 9.886719 21.015625 9.980469 21.03125 C 9.988281 21.035156 10.839844 21.183594 11.339844 21.585938 C 11.292969 21.675781 11.285156 21.761719 11.328125 21.804688 C 11.394531 21.875 11.5625 21.816406 11.695312 21.683594 C 11.832031 21.546875 11.886719 21.378906 11.820312 21.3125 Z M 11.820312 21.3125 " fill-opacity="1" fill-rule="nonzero"/></g><path fill="rgb(36.079407%, 56.858826%, 23.139954%)" d="M 13.488281 20.164062 C 13.488281 20.164062 12.945312 20.917969 12.265625 21.082031 C 11.75 21.210938 11.058594 21.222656 10.992188 21.0625 C 10.921875 20.902344 11.265625 20.375 11.855469 20.121094 C 12.445312 19.867188 13.488281 20.164062 13.488281 20.164062 Z M 13.488281 20.164062 " fill-opacity="1" fill-rule="nonzero"/><path fill="rgb(37.649536%, 48.629761%, 20.388794%)" d="M 29.691406 25.445312 C 26.949219 25.445312 24.726562 27.667969 24.726562 30.40625 C 24.726562 33.148438 26.949219 35.371094 29.691406 35.371094 C 32.433594 35.371094 34.65625 33.148438 34.65625 30.40625 C 34.65625 27.667969 32.433594 25.445312 29.691406 25.445312 " fill-opacity="1" fill-rule="nonzero"/><g clip-path="url(#id28)"><path fill="rgb(65.098572%, 82.749939%, 53.329468%)" d="M 27.726562 28.722656 C 28.007812 28.160156 29.09375 28.382812 29.851562 29.109375 C 30.332031 29.570312 31.28125 29.378906 31.894531 29.96875 C 32.515625 30.566406 32.472656 31.636719 31.351562 32.78125 C 30.449219 33.699219 29.203125 33.699219 28.464844 33.054688 C 27.6875 32.375 28.023438 31.519531 27.679688 30.632812 C 27.335938 29.746094 26.914062 28.773438 27.726562 28.722656 Z M 27.726562 28.722656 " fill-opacity="1" fill-rule="nonzero"/></g><g clip-path="url(#id29)"><path fill="rgb(39.99939%, 12.939453%, 7.449341%)" d="M 27.816406 28.800781 C 27.738281 28.882812 27.617188 28.890625 27.542969 28.816406 C 26.972656 28.269531 26.847656 27.472656 26.84375 27.429688 C 26.832031 27.328125 26.90625 27.226562 27.011719 27.203125 C 27.117188 27.183594 27.210938 27.25 27.222656 27.351562 C 27.226562 27.363281 27.339844 28.066406 27.820312 28.527344 C 27.894531 28.597656 27.890625 28.722656 27.816406 28.800781 Z M 27.816406 28.800781 " fill-opacity="1" fill-rule="nonzero"/></g><path fill="rgb(37.649536%, 48.629761%, 20.388794%)" d="M 51.316406 13.636719 C 48.597656 13.636719 46.390625 15.839844 46.390625 18.558594 C 46.390625 21.277344 48.597656 23.480469 51.316406 23.480469 C 54.03125 23.480469 56.238281 21.277344 56.238281 18.558594 C 56.238281 15.839844 54.03125 13.636719 51.316406 13.636719 " fill-opacity="1" fill-rule="nonzero"/><g clip-path="url(#id30)"><path fill="rgb(86.669922%, 18.03894%, 26.669312%)" d="M 52.621094 16.332031 C 52.011719 16.332031 52.011719 16.535156 51.40625 16.535156 C 50.796875 16.535156 50.796875 16.332031 50.191406 16.332031 C 49.378906 16.332031 48.367188 16.734375 48.367188 18.148438 C 48.367188 20.371094 49.582031 22.1875 50.390625 22.1875 C 51 22.1875 51 21.984375 51.40625 21.984375 C 51.808594 21.984375 51.808594 22.1875 52.417969 22.1875 C 53.226562 22.1875 54.441406 20.371094 54.441406 18.148438 C 54.441406 16.734375 53.429688 16.332031 52.621094 16.332031 Z M 52.621094 16.332031 " fill-opacity="1" fill-rule="nonzero"/></g><g clip-path="url(#id31)"><path fill="rgb(46.669006%, 69.799805%, 33.329773%)" d="M 51.605469 16.332031 C 51.605469 16.332031 52.214844 15.523438 53.226562 15.523438 C 54.039062 15.523438 54.441406 15.925781 54.441406 15.925781 C 54.441406 15.925781 53.632812 16.535156 53.023438 16.535156 C 52.417969 16.535156 51.605469 16.332031 51.605469 16.332031 Z M 51.605469 16.332031 " fill-opacity="1" fill-rule="nonzero"/></g><g clip-path="url(#id32)"><path fill="rgb(39.99939%, 12.939453%, 7.449341%)" d="M 51.40625 16.9375 C 51.292969 16.9375 51.203125 16.847656 51.203125 16.734375 C 51.203125 16.039062 51.445312 15.398438 51.867188 14.976562 C 51.949219 14.898438 52.078125 14.898438 52.15625 14.976562 C 52.234375 15.054688 52.234375 15.183594 52.15625 15.261719 C 51.808594 15.609375 51.605469 16.148438 51.605469 16.734375 C 51.605469 16.847656 51.515625 16.9375 51.40625 16.9375 Z M 51.40625 16.9375 " fill-opacity="1" fill-rule="nonzero"/></g><path fill="rgb(37.649536%, 48.629761%, 20.388794%)" d="M 63.867188 31.808594 C 61.195312 31.808594 59.027344 33.972656 59.027344 36.644531 C 59.027344 39.320312 61.195312 41.484375 63.867188 41.484375 C 66.539062 41.484375 68.707031 39.320312 68.707031 36.644531 C 68.707031 33.972656 66.539062 31.808594 63.867188 31.808594 " fill-opacity="1" fill-rule="nonzero"/><g clip-path="url(#id33)"><path fill="rgb(100%, 100%, 100%)" d="M 64.410156 33.644531 C 64.410156 33.644531 63.929688 34.140625 63.929688 35.078125 " fill-opacity="1" fill-rule="nonzero"/></g><g clip-path="url(#id34)"><path stroke-linecap="butt" transform="matrix(0.160074, 0, 0, 0.159138, 59.927363, 33.009507)" fill="none" stroke-linejoin="miter" d="M 28.004505 3.99041 C 28.004505 3.99041 25.002963 7.107798 25.002963 12.998924 " stroke="rgb(47.44873%, 33.329773%, 28.239441%)" stroke-width="2" stroke-opacity="1" stroke-miterlimit="10"/></g><g clip-path="url(#id35)"><path fill="rgb(79.60968%, 42.349243%, 90.19928%)" d="M 66.171875 37.148438 C 66.171875 38.46875 65.097656 40.171875 63.769531 40.171875 C 62.441406 40.171875 61.367188 38.46875 61.367188 37.148438 C 61.367188 35.585938 62.074219 34.441406 63.929688 35.078125 C 65.433594 34.425781 66.171875 35.828125 66.171875 37.148438 Z M 66.171875 37.148438 " fill-opacity="1" fill-rule="nonzero"/></g><path fill="rgb(29.019165%, 7.839966%, 54.899597%)" d="M 65.195312 37.5625 C 65.226562 37.480469 65.226562 37.386719 65.226562 37.304688 L 65.257812 37.050781 C 65.257812 36.972656 65.257812 36.875 65.257812 36.78125 C 65.257812 36.6875 65.257812 36.605469 65.242188 36.527344 C 65.226562 36.445312 65.210938 36.351562 65.195312 36.273438 C 65.179688 36.191406 65.144531 36.113281 65.128906 36.03125 C 65.082031 35.875 65.019531 35.730469 64.953125 35.570312 C 64.875 35.445312 64.808594 35.300781 64.730469 35.191406 C 64.664062 35.09375 64.601562 35 64.523438 34.917969 C 64.328125 34.933594 64.136719 34.984375 63.914062 35.078125 C 64.746094 35.714844 64.921875 36.972656 64.921875 37.050781 L 64.921875 37.289062 C 64.921875 37.371094 64.921875 37.449219 64.90625 37.527344 C 64.890625 37.609375 64.890625 37.6875 64.875 37.769531 C 64.875 37.847656 64.859375 37.925781 64.839844 37.992188 C 64.808594 38.132812 64.777344 38.277344 64.730469 38.421875 C 64.679688 38.546875 64.632812 38.675781 64.585938 38.785156 C 64.570312 38.851562 64.539062 38.898438 64.523438 38.945312 C 64.488281 38.992188 64.472656 39.039062 64.441406 39.089844 C 64.394531 39.183594 64.363281 39.261719 64.328125 39.328125 C 64.28125 39.453125 64.25 39.535156 64.25 39.535156 C 64.25 39.535156 64.296875 39.46875 64.378906 39.34375 C 64.425781 39.28125 64.472656 39.214844 64.523438 39.121094 C 64.554688 39.074219 64.585938 39.023438 64.617188 38.992188 C 64.648438 38.945312 64.664062 38.898438 64.699219 38.832031 C 64.761719 38.722656 64.824219 38.59375 64.890625 38.46875 C 64.953125 38.339844 65 38.179688 65.050781 38.039062 C 65.082031 37.957031 65.097656 37.878906 65.113281 37.800781 C 65.144531 37.71875 65.179688 37.640625 65.195312 37.5625 Z M 65.195312 37.5625 " fill-opacity="1" fill-rule="nonzero"/><g clip-path="url(#id36)"><path fill="rgb(29.798889%, 68.629456%, 31.369019%)" d="M 63.929688 35.078125 C 63.929688 35.078125 63.722656 33.089844 61.6875 33.804688 C 61.914062 35.875 63.929688 35.078125 63.929688 35.078125 Z M 63.929688 35.078125 " fill-opacity="1" fill-rule="nonzero"/></g></svg>