<svg xmlns="http://www.w3.org/2000/svg" xmlns:xlink="http://www.w3.org/1999/xlink" width="300" zoomAndPan="magnify" viewBox="0 0 224.87999 89.999999" height="120" preserveAspectRatio="xMidYMid meet" version="1.0"><defs><g/><clipPath id="id1"><path d="M 142 30 L 174 30 L 174 61 L 142 61 Z M 142 30 " clip-rule="nonzero"/></clipPath><clipPath id="id2"><path d="M 137.890625 25.226562 L 169.578125 19.328125 L 176.710938 57.648438 L 145.023438 63.546875 Z M 137.890625 25.226562 " clip-rule="nonzero"/></clipPath><clipPath id="id3"><path d="M 137.890625 25.226562 L 169.578125 19.328125 L 176.710938 57.648438 L 145.023438 63.546875 Z M 137.890625 25.226562 " clip-rule="nonzero"/></clipPath><clipPath id="id4"><path d="M 158 20 L 165 20 L 165 36 L 158 36 Z M 158 20 " clip-rule="nonzero"/></clipPath><clipPath id="id5"><path d="M 137.890625 25.226562 L 169.578125 19.328125 L 176.710938 57.648438 L 145.023438 63.546875 Z M 137.890625 25.226562 " clip-rule="nonzero"/></clipPath><clipPath id="id6"><path d="M 137.890625 25.226562 L 169.578125 19.328125 L 176.710938 57.648438 L 145.023438 63.546875 Z M 137.890625 25.226562 " clip-rule="nonzero"/></clipPath><clipPath id="id7"><path d="M 144 32 L 173 32 L 173 59 L 144 59 Z M 144 32 " clip-rule="nonzero"/></clipPath><clipPath id="id8"><path d="M 137.890625 25.226562 L 169.578125 19.328125 L 176.710938 57.648438 L 145.023438 63.546875 Z M 137.890625 25.226562 " clip-rule="nonzero"/></clipPath><clipPath id="id9"><path d="M 137.890625 25.226562 L 169.578125 19.328125 L 176.710938 57.648438 L 145.023438 63.546875 Z M 137.890625 25.226562 " clip-rule="nonzero"/></clipPath><clipPath id="id10"><path d="M 156 56 L 160 56 L 160 61 L 156 61 Z M 156 56 " clip-rule="nonzero"/></clipPath><clipPath id="id11"><path d="M 137.890625 25.226562 L 169.578125 19.328125 L 176.710938 57.648438 L 145.023438 63.546875 Z M 137.890625 25.226562 " clip-rule="nonzero"/></clipPath><clipPath id="id12"><path d="M 137.890625 25.226562 L 169.578125 19.328125 L 176.710938 57.648438 L 145.023438 63.546875 Z M 137.890625 25.226562 " clip-rule="nonzero"/></clipPath><clipPath id="id13"><path d="M 153 36 L 154 36 L 154 38 L 153 38 Z M 153 36 " clip-rule="nonzero"/></clipPath><clipPath id="id14"><path d="M 137.890625 25.226562 L 169.578125 19.328125 L 176.710938 57.648438 L 145.023438 63.546875 Z M 137.890625 25.226562 " clip-rule="nonzero"/></clipPath><clipPath id="id15"><path d="M 137.890625 25.226562 L 169.578125 19.328125 L 176.710938 57.648438 L 145.023438 63.546875 Z M 137.890625 25.226562 " clip-rule="nonzero"/></clipPath><clipPath id="id16"><path d="M 150 37 L 152 37 L 152 39 L 150 39 Z M 150 37 " clip-rule="nonzero"/></clipPath><clipPath id="id17"><path d="M 137.890625 25.226562 L 169.578125 19.328125 L 176.710938 57.648438 L 145.023438 63.546875 Z M 137.890625 25.226562 " clip-rule="nonzero"/></clipPath><clipPath id="id18"><path d="M 137.890625 25.226562 L 169.578125 19.328125 L 176.710938 57.648438 L 145.023438 63.546875 Z M 137.890625 25.226562 " clip-rule="nonzero"/></clipPath><clipPath id="id19"><path d="M 146 39 L 148 39 L 148 41 L 146 41 Z M 146 39 " clip-rule="nonzero"/></clipPath><clipPath id="id20"><path d="M 137.890625 25.226562 L 169.578125 19.328125 L 176.710938 57.648438 L 145.023438 63.546875 Z M 137.890625 25.226562 " clip-rule="nonzero"/></clipPath><clipPath id="id21"><path d="M 137.890625 25.226562 L 169.578125 19.328125 L 176.710938 57.648438 L 145.023438 63.546875 Z M 137.890625 25.226562 " clip-rule="nonzero"/></clipPath><clipPath id="id22"><path d="M 150 40 L 152 40 L 152 42 L 150 42 Z M 150 40 " clip-rule="nonzero"/></clipPath><clipPath id="id23"><path d="M 137.890625 25.226562 L 169.578125 19.328125 L 176.710938 57.648438 L 145.023438 63.546875 Z M 137.890625 25.226562 " clip-rule="nonzero"/></clipPath><clipPath id="id24"><path d="M 137.890625 25.226562 L 169.578125 19.328125 L 176.710938 57.648438 L 145.023438 63.546875 Z M 137.890625 25.226562 " clip-rule="nonzero"/></clipPath><clipPath id="id25"><path d="M 167 37 L 168 37 L 168 38 L 167 38 Z M 167 37 " clip-rule="nonzero"/></clipPath><clipPath id="id26"><path d="M 137.890625 25.226562 L 169.578125 19.328125 L 176.710938 57.648438 L 145.023438 63.546875 Z M 137.890625 25.226562 " clip-rule="nonzero"/></clipPath><clipPath id="id27"><path d="M 137.890625 25.226562 L 169.578125 19.328125 L 176.710938 57.648438 L 145.023438 63.546875 Z M 137.890625 25.226562 " clip-rule="nonzero"/></clipPath><clipPath id="id28"><path d="M 148 42 L 150 42 L 150 43 L 148 43 Z M 148 42 " clip-rule="nonzero"/></clipPath><clipPath id="id29"><path d="M 137.890625 25.226562 L 169.578125 19.328125 L 176.710938 57.648438 L 145.023438 63.546875 Z M 137.890625 25.226562 " clip-rule="nonzero"/></clipPath><clipPath id="id30"><path d="M 137.890625 25.226562 L 169.578125 19.328125 L 176.710938 57.648438 L 145.023438 63.546875 Z M 137.890625 25.226562 " clip-rule="nonzero"/></clipPath><clipPath id="id31"><path d="M 164 39 L 166 39 L 166 40 L 164 40 Z M 164 39 " clip-rule="nonzero"/></clipPath><clipPath id="id32"><path d="M 137.890625 25.226562 L 169.578125 19.328125 L 176.710938 57.648438 L 145.023438 63.546875 Z M 137.890625 25.226562 " clip-rule="nonzero"/></clipPath><clipPath id="id33"><path d="M 137.890625 25.226562 L 169.578125 19.328125 L 176.710938 57.648438 L 145.023438 63.546875 Z M 137.890625 25.226562 " clip-rule="nonzero"/></clipPath><clipPath id="id34"><path d="M 168 40 L 169 40 L 169 41 L 168 41 Z M 168 40 " clip-rule="nonzero"/></clipPath><clipPath id="id35"><path d="M 137.890625 25.226562 L 169.578125 19.328125 L 176.710938 57.648438 L 145.023438 63.546875 Z M 137.890625 25.226562 " clip-rule="nonzero"/></clipPath><clipPath id="id36"><path d="M 137.890625 25.226562 L 169.578125 19.328125 L 176.710938 57.648438 L 145.023438 63.546875 Z M 137.890625 25.226562 " clip-rule="nonzero"/></clipPath><clipPath id="id37"><path d="M 151 43 L 153 43 L 153 45 L 151 45 Z M 151 43 " clip-rule="nonzero"/></clipPath><clipPath id="id38"><path d="M 137.890625 25.226562 L 169.578125 19.328125 L 176.710938 57.648438 L 145.023438 63.546875 Z M 137.890625 25.226562 " clip-rule="nonzero"/></clipPath><clipPath id="id39"><path d="M 137.890625 25.226562 L 169.578125 19.328125 L 176.710938 57.648438 L 145.023438 63.546875 Z M 137.890625 25.226562 " clip-rule="nonzero"/></clipPath><clipPath id="id40"><path d="M 147 44 L 149 44 L 149 46 L 147 46 Z M 147 44 " clip-rule="nonzero"/></clipPath><clipPath id="id41"><path d="M 137.890625 25.226562 L 169.578125 19.328125 L 176.710938 57.648438 L 145.023438 63.546875 Z M 137.890625 25.226562 " clip-rule="nonzero"/></clipPath><clipPath id="id42"><path d="M 137.890625 25.226562 L 169.578125 19.328125 L 176.710938 57.648438 L 145.023438 63.546875 Z M 137.890625 25.226562 " clip-rule="nonzero"/></clipPath><clipPath id="id43"><path d="M 168 42 L 170 42 L 170 44 L 168 44 Z M 168 42 " clip-rule="nonzero"/></clipPath><clipPath id="id44"><path d="M 137.890625 25.226562 L 169.578125 19.328125 L 176.710938 57.648438 L 145.023438 63.546875 Z M 137.890625 25.226562 " clip-rule="nonzero"/></clipPath><clipPath id="id45"><path d="M 137.890625 25.226562 L 169.578125 19.328125 L 176.710938 57.648438 L 145.023438 63.546875 Z M 137.890625 25.226562 " clip-rule="nonzero"/></clipPath><clipPath id="id46"><path d="M 148 47 L 150 47 L 150 49 L 148 49 Z M 148 47 " clip-rule="nonzero"/></clipPath><clipPath id="id47"><path d="M 137.890625 25.226562 L 169.578125 19.328125 L 176.710938 57.648438 L 145.023438 63.546875 Z M 137.890625 25.226562 " clip-rule="nonzero"/></clipPath><clipPath id="id48"><path d="M 137.890625 25.226562 L 169.578125 19.328125 L 176.710938 57.648438 L 145.023438 63.546875 Z M 137.890625 25.226562 " clip-rule="nonzero"/></clipPath><clipPath id="id49"><path d="M 165 44 L 167 44 L 167 46 L 165 46 Z M 165 44 " clip-rule="nonzero"/></clipPath><clipPath id="id50"><path d="M 137.890625 25.226562 L 169.578125 19.328125 L 176.710938 57.648438 L 145.023438 63.546875 Z M 137.890625 25.226562 " clip-rule="nonzero"/></clipPath><clipPath id="id51"><path d="M 137.890625 25.226562 L 169.578125 19.328125 L 176.710938 57.648438 L 145.023438 63.546875 Z M 137.890625 25.226562 " clip-rule="nonzero"/></clipPath><clipPath id="id52"><path d="M 151 47 L 152 47 L 152 49 L 151 49 Z M 151 47 " clip-rule="nonzero"/></clipPath><clipPath id="id53"><path d="M 137.890625 25.226562 L 169.578125 19.328125 L 176.710938 57.648438 L 145.023438 63.546875 Z M 137.890625 25.226562 " clip-rule="nonzero"/></clipPath><clipPath id="id54"><path d="M 137.890625 25.226562 L 169.578125 19.328125 L 176.710938 57.648438 L 145.023438 63.546875 Z M 137.890625 25.226562 " clip-rule="nonzero"/></clipPath><clipPath id="id55"><path d="M 169 45 L 171 45 L 171 47 L 169 47 Z M 169 45 " clip-rule="nonzero"/></clipPath><clipPath id="id56"><path d="M 137.890625 25.226562 L 169.578125 19.328125 L 176.710938 57.648438 L 145.023438 63.546875 Z M 137.890625 25.226562 " clip-rule="nonzero"/></clipPath><clipPath id="id57"><path d="M 137.890625 25.226562 L 169.578125 19.328125 L 176.710938 57.648438 L 145.023438 63.546875 Z M 137.890625 25.226562 " clip-rule="nonzero"/></clipPath><clipPath id="id58"><path d="M 169 46 L 171 46 L 171 48 L 169 48 Z M 169 46 " clip-rule="nonzero"/></clipPath><clipPath id="id59"><path d="M 137.890625 25.226562 L 169.578125 19.328125 L 176.710938 57.648438 L 145.023438 63.546875 Z M 137.890625 25.226562 " clip-rule="nonzero"/></clipPath><clipPath id="id60"><path d="M 137.890625 25.226562 L 169.578125 19.328125 L 176.710938 57.648438 L 145.023438 63.546875 Z M 137.890625 25.226562 " clip-rule="nonzero"/></clipPath><clipPath id="id61"><path d="M 148 50 L 149 50 L 149 52 L 148 52 Z M 148 50 " clip-rule="nonzero"/></clipPath><clipPath id="id62"><path d="M 137.890625 25.226562 L 169.578125 19.328125 L 176.710938 57.648438 L 145.023438 63.546875 Z M 137.890625 25.226562 " clip-rule="nonzero"/></clipPath><clipPath id="id63"><path d="M 137.890625 25.226562 L 169.578125 19.328125 L 176.710938 57.648438 L 145.023438 63.546875 Z M 137.890625 25.226562 " clip-rule="nonzero"/></clipPath><clipPath id="id64"><path d="M 167 47 L 168 47 L 168 49 L 167 49 Z M 167 47 " clip-rule="nonzero"/></clipPath><clipPath id="id65"><path d="M 137.890625 25.226562 L 169.578125 19.328125 L 176.710938 57.648438 L 145.023438 63.546875 Z M 137.890625 25.226562 " clip-rule="nonzero"/></clipPath><clipPath id="id66"><path d="M 137.890625 25.226562 L 169.578125 19.328125 L 176.710938 57.648438 L 145.023438 63.546875 Z M 137.890625 25.226562 " clip-rule="nonzero"/></clipPath><clipPath id="id67"><path d="M 150 54 L 152 54 L 152 56 L 150 56 Z M 150 54 " clip-rule="nonzero"/></clipPath><clipPath id="id68"><path d="M 137.890625 25.226562 L 169.578125 19.328125 L 176.710938 57.648438 L 145.023438 63.546875 Z M 137.890625 25.226562 " clip-rule="nonzero"/></clipPath><clipPath id="id69"><path d="M 137.890625 25.226562 L 169.578125 19.328125 L 176.710938 57.648438 L 145.023438 63.546875 Z M 137.890625 25.226562 " clip-rule="nonzero"/></clipPath><clipPath id="id70"><path d="M 163 52 L 165 52 L 165 53 L 163 53 Z M 163 52 " clip-rule="nonzero"/></clipPath><clipPath id="id71"><path d="M 137.890625 25.226562 L 169.578125 19.328125 L 176.710938 57.648438 L 145.023438 63.546875 Z M 137.890625 25.226562 " clip-rule="nonzero"/></clipPath><clipPath id="id72"><path d="M 137.890625 25.226562 L 169.578125 19.328125 L 176.710938 57.648438 L 145.023438 63.546875 Z M 137.890625 25.226562 " clip-rule="nonzero"/></clipPath><clipPath id="id73"><path d="M 166 51 L 168 51 L 168 53 L 166 53 Z M 166 51 " clip-rule="nonzero"/></clipPath><clipPath id="id74"><path d="M 137.890625 25.226562 L 169.578125 19.328125 L 176.710938 57.648438 L 145.023438 63.546875 Z M 137.890625 25.226562 " clip-rule="nonzero"/></clipPath><clipPath id="id75"><path d="M 137.890625 25.226562 L 169.578125 19.328125 L 176.710938 57.648438 L 145.023438 63.546875 Z M 137.890625 25.226562 " clip-rule="nonzero"/></clipPath><clipPath id="id76"><path d="M 164 54 L 166 54 L 166 56 L 164 56 Z M 164 54 " clip-rule="nonzero"/></clipPath><clipPath id="id77"><path d="M 137.890625 25.226562 L 169.578125 19.328125 L 176.710938 57.648438 L 145.023438 63.546875 Z M 137.890625 25.226562 " clip-rule="nonzero"/></clipPath><clipPath id="id78"><path d="M 137.890625 25.226562 L 169.578125 19.328125 L 176.710938 57.648438 L 145.023438 63.546875 Z M 137.890625 25.226562 " clip-rule="nonzero"/></clipPath><clipPath id="id79"><path d="M 153 42 L 164 42 L 164 50 L 153 50 Z M 153 42 " clip-rule="nonzero"/></clipPath><clipPath id="id80"><path d="M 137.890625 25.226562 L 169.578125 19.328125 L 176.710938 57.648438 L 145.023438 63.546875 Z M 137.890625 25.226562 " clip-rule="nonzero"/></clipPath><clipPath id="id81"><path d="M 137.890625 25.226562 L 169.578125 19.328125 L 176.710938 57.648438 L 145.023438 63.546875 Z M 137.890625 25.226562 " clip-rule="nonzero"/></clipPath><clipPath id="id82"><path d="M 155 44 L 158 44 L 158 49 L 155 49 Z M 155 44 " clip-rule="nonzero"/></clipPath><clipPath id="id83"><path d="M 137.890625 25.226562 L 169.578125 19.328125 L 176.710938 57.648438 L 145.023438 63.546875 Z M 137.890625 25.226562 " clip-rule="nonzero"/></clipPath><clipPath id="id84"><path d="M 137.890625 25.226562 L 169.578125 19.328125 L 176.710938 57.648438 L 145.023438 63.546875 Z M 137.890625 25.226562 " clip-rule="nonzero"/></clipPath><clipPath id="id85"><path d="M 159 44 L 162 44 L 162 48 L 159 48 Z M 159 44 " clip-rule="nonzero"/></clipPath><clipPath id="id86"><path d="M 137.890625 25.226562 L 169.578125 19.328125 L 176.710938 57.648438 L 145.023438 63.546875 Z M 137.890625 25.226562 " clip-rule="nonzero"/></clipPath><clipPath id="id87"><path d="M 137.890625 25.226562 L 169.578125 19.328125 L 176.710938 57.648438 L 145.023438 63.546875 Z M 137.890625 25.226562 " clip-rule="nonzero"/></clipPath><clipPath id="id88"><path d="M 164 19 L 174 19 L 174 30 L 164 30 Z M 164 19 " clip-rule="nonzero"/></clipPath><clipPath id="id89"><path d="M 174.101562 19.808594 L 173.597656 29.542969 L 163.867188 29.035156 L 164.371094 19.304688 Z M 174.101562 19.808594 " clip-rule="nonzero"/></clipPath><clipPath id="id90"><path d="M 174.101562 19.808594 L 173.597656 29.542969 L 163.867188 29.035156 L 164.371094 19.304688 Z M 174.101562 19.808594 " clip-rule="nonzero"/></clipPath></defs><g fill="#637937" fill-opacity="1"><g transform="translate(2.822712, 58.090988)"><g><path d="M 6.972656 -19.539062 L 6.972656 0 L 10.199219 0 L 10.199219 -19.539062 L 16.949219 -19.539062 L 16.949219 -22.609375 L 0.191406 -22.609375 L 0.191406 -19.539062 Z M 6.972656 -19.539062 "/></g></g></g><g fill="#637937" fill-opacity="1"><g transform="translate(19.993327, 58.090988)"><g><path d="M 19.378906 -9.402344 C 19.027344 -14.835938 14.804688 -17.554688 10.519531 -17.554688 C 5.949219 -17.554688 1.535156 -14.582031 1.535156 -8.632812 C 1.535156 -2.6875 6.011719 0.320312 10.457031 0.320312 C 14.007812 0.320312 17.554688 -1.566406 18.867188 -5.339844 L 15.636719 -5.339844 C 14.613281 -3.390625 12.632812 -2.460938 10.488281 -2.460938 C 7.898438 -2.460938 4.667969 -4.507812 4.667969 -7.898438 L 19.316406 -7.898438 C 19.378906 -8.1875 19.410156 -8.507812 19.410156 -8.859375 C 19.410156 -9.050781 19.410156 -9.210938 19.378906 -9.402344 Z M 16.085938 -10.488281 L 4.796875 -10.488281 C 5.4375 -13.558594 7.996094 -14.804688 10.519531 -14.804688 C 13.015625 -14.804688 15.476562 -13.589844 16.085938 -10.488281 Z M 16.085938 -10.488281 "/></g></g></g><g fill="#637937" fill-opacity="1"><g transform="translate(41.096871, 58.090988)"><g><path d="M 2.207031 -21.746094 C 2.207031 -20.53125 3.199219 -19.921875 4.15625 -19.921875 C 5.148438 -19.921875 6.109375 -20.53125 6.109375 -21.746094 C 6.109375 -22.960938 5.148438 -23.535156 4.1875 -23.535156 C 3.199219 -23.535156 2.207031 -22.929688 2.207031 -21.746094 Z M 2.589844 -17.492188 L 5.722656 -17.492188 L 5.722656 0 L 2.589844 0 Z M 2.589844 -17.492188 "/></g></g></g><g fill="#637937" fill-opacity="1"><g transform="translate(49.698169, 58.090988)"><g><path d="M 2.398438 0 L 5.53125 0 L 5.53125 -22.382812 L 2.398438 -22.382812 Z M 2.398438 0 "/></g></g></g><g fill="#637937" fill-opacity="1"><g transform="translate(57.627988, 58.090988)"><g/></g></g><g fill="#637937" fill-opacity="1"><g transform="translate(65.589777, 58.090988)"><g><path d="M 19.410156 -22.382812 L 16.277344 -22.382812 L 16.277344 -15.0625 C 14.773438 -17.109375 12.597656 -17.585938 10.457031 -17.585938 C 4.605469 -17.585938 1.277344 -13.6875 1.277344 -8.730469 C 1.277344 -3.582031 4.445312 0.289062 10.488281 0.289062 C 12.664062 0.253906 15.03125 -0.449219 16.277344 -2.335938 L 16.277344 0 L 19.410156 0 Z M 16.277344 -8.667969 C 16.277344 -4.507812 13.367188 -2.496094 10.425781 -2.496094 C 6.621094 -2.496094 4.414062 -5.117188 4.414062 -8.667969 C 4.414062 -11.769531 6.621094 -14.835938 10.457031 -14.835938 C 13.367188 -14.835938 16.277344 -12.792969 16.277344 -8.667969 Z M 16.277344 -8.667969 "/></g></g></g><g fill="#637937" fill-opacity="1"><g transform="translate(87.46073, 58.090988)"><g><path d="M 19.378906 -9.402344 C 19.027344 -14.835938 14.804688 -17.554688 10.519531 -17.554688 C 5.949219 -17.554688 1.535156 -14.582031 1.535156 -8.632812 C 1.535156 -2.6875 6.011719 0.320312 10.457031 0.320312 C 14.007812 0.320312 17.554688 -1.566406 18.867188 -5.339844 L 15.636719 -5.339844 C 14.613281 -3.390625 12.632812 -2.460938 10.488281 -2.460938 C 7.898438 -2.460938 4.667969 -4.507812 4.667969 -7.898438 L 19.316406 -7.898438 C 19.378906 -8.1875 19.410156 -8.507812 19.410156 -8.859375 C 19.410156 -9.050781 19.410156 -9.210938 19.378906 -9.402344 Z M 16.085938 -10.488281 L 4.796875 -10.488281 C 5.4375 -13.558594 7.996094 -14.804688 10.519531 -14.804688 C 13.015625 -14.804688 15.476562 -13.589844 16.085938 -10.488281 Z M 16.085938 -10.488281 "/></g></g></g><g fill="#637937" fill-opacity="1"><g transform="translate(108.564274, 58.090988)"><g><path d="M 2.207031 -21.746094 C 2.207031 -20.53125 3.199219 -19.921875 4.15625 -19.921875 C 5.148438 -19.921875 6.109375 -20.53125 6.109375 -21.746094 C 6.109375 -22.960938 5.148438 -23.535156 4.1875 -23.535156 C 3.199219 -23.535156 2.207031 -22.929688 2.207031 -21.746094 Z M 2.589844 -17.492188 L 5.722656 -17.492188 L 5.722656 0 L 2.589844 0 Z M 2.589844 -17.492188 "/></g></g></g><g fill="#637937" fill-opacity="1"><g transform="translate(117.165572, 58.090988)"><g><path d="M 5.53125 -15.15625 L 5.53125 -17.300781 L 2.398438 -17.300781 L 2.398438 0 L 5.53125 0 L 5.53125 -9.402344 C 5.53125 -12.40625 7.324219 -14.773438 10.617188 -14.773438 C 14.390625 -14.773438 15.253906 -12.535156 15.253906 -9.273438 L 15.253906 0 L 18.355469 0 L 18.355469 -9.304688 C 18.355469 -14.261719 16.117188 -17.554688 10.839844 -17.554688 C 8.667969 -17.554688 6.8125 -17.011719 5.53125 -15.15625 Z M 5.53125 -15.15625 "/></g></g></g><g fill="#c64f40" fill-opacity="1"><g transform="translate(174.104161, 58.224009)"><g><path d="M 5.628906 -15.0625 L 5.628906 -22.382812 L 2.496094 -22.382812 L 2.496094 0 L 5.628906 0 L 5.628906 -2.335938 C 6.875 -0.449219 9.242188 0.253906 11.382812 0.289062 C 17.429688 0.289062 20.339844 -3.964844 20.339844 -8.730469 C 20.339844 -13.398438 17.300781 -17.585938 11.449219 -17.585938 C 9.304688 -17.585938 7.132812 -17.109375 5.628906 -15.0625 Z M 5.628906 -8.667969 C 5.628906 -12.792969 8.539062 -14.835938 11.449219 -14.835938 C 15.285156 -14.835938 17.203125 -11.769531 17.203125 -8.667969 C 17.203125 -5.53125 15.253906 -2.496094 11.417969 -2.496094 C 8.539062 -2.496094 5.628906 -4.507812 5.628906 -8.667969 Z M 5.628906 -8.667969 "/></g></g></g><g fill="#c64f40" fill-opacity="1"><g transform="translate(195.879184, 58.224009)"><g><path d="M 4.574219 -12.3125 C 4.574219 -14.101562 6.363281 -14.835938 8.28125 -14.835938 C 10.167969 -14.835938 11.800781 -14.101562 11.960938 -12.566406 L 15.0625 -12.566406 C 14.835938 -16.179688 11.800781 -17.652344 8.378906 -17.652344 C 5.019531 -17.652344 1.472656 -16.246094 1.472656 -12.246094 C 1.472656 -8.378906 5.148438 -7.417969 8.25 -7.289062 C 9.753906 -7.226562 12.4375 -6.90625 12.4375 -4.988281 C 12.4375 -2.941406 9.976562 -2.429688 8.410156 -2.429688 C 6.269531 -2.429688 4.476562 -3.390625 4.347656 -5.308594 L 1.214844 -5.308594 C 1.4375 -1.214844 4.765625 0.289062 8.347656 0.289062 C 11.609375 0.289062 15.574219 -0.894531 15.574219 -4.925781 C 15.574219 -8.859375 11.863281 -9.882812 8.601562 -10.105469 C 7.066406 -10.199219 4.574219 -10.136719 4.574219 -12.3125 Z M 4.574219 -12.3125 "/></g></g></g><g fill="#c64f40" fill-opacity="1"><g transform="translate(212.5382, 58.224009)"><g><path d="M 6.492188 -17.300781 L 6.492188 -21.136719 L 3.359375 -20.53125 L 3.359375 -17.300781 L 0.765625 -17.300781 L 0.765625 -14.804688 L 3.359375 -14.804688 L 3.359375 -5.085938 C 3.359375 -1.054688 5.5625 0.0976562 8.953125 0.0976562 C 9.402344 0.0976562 9.882812 0.0625 10.394531 0.03125 L 10.394531 -2.589844 C 9.914062 -2.558594 9.464844 -2.527344 9.082031 -2.527344 C 7.515625 -2.527344 6.492188 -3.007812 6.492188 -5.050781 L 6.492188 -14.804688 L 10.296875 -14.804688 L 10.296875 -17.300781 Z M 6.492188 -17.300781 "/></g></g></g><g clip-path="url(#id1)"><g clip-path="url(#id2)"><g clip-path="url(#id3)"><path fill="#c64f40" d="M 149.511719 31.320312 C 144.074219 33.027344 142.195312 40.117188 142.207031 45.761719 C 142.214844 48.433594 142.8125 50.65625 144.230469 53.25 C 144.949219 54.570312 145.46875 55.167969 147.339844 56.84375 C 151.515625 60.574219 154.570312 59.484375 156.671875 59.75 C 157.625 59.871094 157.871094 59.851562 158.96875 59.976562 C 160.328125 60.132812 160.101562 60.109375 162.875 60.152344 C 165.246094 59.710938 165.835938 59.625 166.738281 59.230469 C 168.152344 58.617188 169.464844 57.691406 170.421875 56.449219 C 170.871094 55.867188 171.820312 54.394531 172.058594 53.90625 C 173.070312 51.851562 174.070312 47.601562 173.9375 44.109375 C 173.882812 42.671875 173.507812 40.402344 173.15625 39.414062 C 172.707031 38.140625 172.058594 36.921875 171.289062 35.894531 C 169.597656 33.644531 168.371094 31.980469 165.472656 31.144531 C 164.351562 30.820312 163.660156 30.824219 161.167969 31.15625 C 158.359375 31.527344 159.019531 31.015625 156.832031 30.984375 C 155.339844 30.964844 154.65625 30.632812 153.550781 30.65625 C 153.175781 30.664062 150.753906 30.929688 149.511719 31.320312 " fill-opacity="1" fill-rule="nonzero"/></g></g></g><g clip-path="url(#id4)"><g clip-path="url(#id5)"><g clip-path="url(#id6)"><path fill="#44413b" d="M 164.140625 20.609375 C 164.089844 20.667969 163.988281 20.902344 163.914062 21.136719 C 163.375 22.828125 162.0625 23.535156 159.628906 28.734375 C 158.464844 31.21875 158.457031 31.941406 158.191406 35.441406 C 158.15625 35.890625 158.195312 36.003906 158.367188 35.972656 C 158.53125 35.941406 158.652344 35.695312 158.714844 35.273438 C 158.847656 34.359375 159.09375 33.335938 159.519531 31.914062 C 160.660156 28.078125 161.617188 26.835938 163.527344 23.480469 C 164.789062 21.265625 164.839844 21.4375 164.761719 20.9375 C 164.730469 20.75 164.703125 20.707031 164.554688 20.597656 C 164.238281 20.375 164.175781 20.601562 164.140625 20.609375 " fill-opacity="1" fill-rule="nonzero"/></g></g></g><g clip-path="url(#id7)"><g clip-path="url(#id8)"><g clip-path="url(#id9)"><path fill="#fcddd0" d="M 151.226562 33.125 C 150.050781 33.53125 148.375 34.515625 147.5 35.304688 C 145.324219 37.277344 143.875 40.21875 144.097656 44.984375 C 144.132812 45.691406 144.65625 48.753906 144.894531 49.625 C 145.890625 53.28125 148.789062 56.800781 152.394531 57.78125 C 153.074219 57.964844 153.449219 58.171875 154.222656 58.195312 C 154.679688 58.210938 155.519531 58.023438 155.992188 57.804688 C 156.769531 57.4375 157.351562 56.824219 157.9375 55.746094 L 158.339844 55.011719 C 158.679688 56.464844 158.621094 56.429688 159.386719 57.367188 C 159.792969 57.863281 159.875 57.933594 160.351562 58.246094 C 161.425781 58.949219 161.894531 59.003906 163.796875 58.648438 C 164.761719 58.46875 165.15625 58.351562 165.855469 58.035156 C 168.21875 56.960938 169.578125 55.472656 170.886719 52.511719 C 171.160156 51.898438 171.582031 50.601562 171.746094 49.882812 C 171.996094 48.777344 172.128906 46.433594 172.058594 44.484375 C 172.035156 43.839844 171.726562 40.351562 171.199219 39.105469 C 170.839844 38.261719 170.640625 37.902344 170.238281 37.355469 C 168.796875 35.421875 166.246094 33.792969 164.570312 33.316406 L 164.074219 33.175781 C 163.285156 33.300781 162.847656 33.355469 162.484375 33.503906 C 162.144531 33.644531 161.289062 34.1875 160.996094 34.453125 C 160.539062 34.859375 160.011719 35.46875 159.679688 35.96875 C 159.097656 36.851562 158.976562 37.097656 158.597656 38.128906 C 158.449219 38.535156 158.390625 38.59375 158.347656 38.367188 C 158.316406 38.203125 157.832031 36.894531 157.664062 36.40625 C 157.511719 35.972656 156.714844 34.804688 156.054688 34.054688 C 155.65625 33.605469 155.292969 33.328125 154.804688 33.113281 C 154.339844 32.902344 153.621094 32.710938 153.300781 32.710938 C 152.699219 32.710938 151.238281 33.121094 151.226562 33.125 " fill-opacity="1" fill-rule="nonzero"/></g></g></g><g clip-path="url(#id10)"><g clip-path="url(#id11)"><g clip-path="url(#id12)"><path fill="#44413b" d="M 158.109375 58.171875 C 158.054688 58.183594 158.050781 58.167969 158.085938 58.085938 C 158.136719 57.960938 158.140625 57.953125 158.160156 58.070312 C 158.171875 58.070312 158.167969 58.160156 158.109375 58.171875 Z M 157.871094 56.609375 C 157.753906 56.777344 157.617188 57.339844 157.453125 57.410156 C 157.339844 57.460938 157.074219 57.921875 156.691406 58.71875 C 156.132812 59.894531 156.132812 59.894531 156.445312 60.089844 C 156.710938 60.257812 156.765625 60.140625 156.832031 60.277344 C 156.886719 60.402344 157.0625 60.515625 157.207031 60.523438 C 157.261719 60.527344 157.382812 60.488281 157.46875 60.4375 C 157.625 60.347656 157.628906 60.347656 157.675781 60.464844 C 157.820312 60.800781 158.132812 60.855469 158.308594 60.578125 L 158.40625 60.429688 L 158.597656 60.5 C 158.921875 60.625 159.152344 60.527344 159.207031 60.242188 C 159.234375 60.082031 159.066406 59.226562 158.972656 59.050781 C 158.84375 58.816406 158.597656 57.175781 158.476562 57.03125 C 158.4375 56.984375 158.394531 56.886719 158.382812 56.816406 C 158.332031 56.546875 158.007812 56.414062 157.871094 56.609375 " fill-opacity="1" fill-rule="nonzero"/></g></g></g><g clip-path="url(#id13)"><g clip-path="url(#id14)"><g clip-path="url(#id15)"><path fill="#ffffff" d="M 153.125 36.714844 C 152.992188 36.925781 153.171875 37.210938 153.410156 37.164062 C 153.582031 37.132812 153.664062 37.015625 153.628906 36.859375 C 153.570312 36.589844 153.257812 36.5 153.125 36.714844 " fill-opacity="1" fill-rule="nonzero"/></g></g></g><g clip-path="url(#id16)"><g clip-path="url(#id17)"><g clip-path="url(#id18)"><path fill="#ffffff" d="M 151.105469 38.035156 C 150.890625 38.332031 150.859375 38.460938 150.964844 38.605469 C 151.019531 38.683594 151.078125 38.710938 151.175781 38.699219 C 151.335938 38.683594 151.339844 38.679688 151.550781 38.328125 C 151.722656 38.042969 151.734375 37.894531 151.589844 37.800781 C 151.332031 37.621094 151.128906 38.03125 151.105469 38.035156 " fill-opacity="1" fill-rule="nonzero"/></g></g></g><g clip-path="url(#id19)"><g clip-path="url(#id20)"><g clip-path="url(#id21)"><path fill="#ffffff" d="M 146.484375 39.671875 C 146.296875 39.945312 146.664062 40.140625 146.8125 40.113281 C 147.0625 40.066406 147.089844 39.734375 146.851562 39.609375 C 146.558594 39.457031 146.511719 39.667969 146.484375 39.671875 " fill-opacity="1" fill-rule="nonzero"/></g></g></g><g clip-path="url(#id22)"><g clip-path="url(#id23)"><g clip-path="url(#id24)"><path fill="#ffffff" d="M 150.746094 40.515625 C 150.585938 40.699219 150.398438 40.679688 150.335938 40.867188 C 150.292969 40.988281 150.300781 41.003906 150.402344 41.101562 C 150.785156 41.453125 151.492188 40.699219 151.117188 40.441406 C 150.886719 40.285156 150.765625 40.511719 150.746094 40.515625 " fill-opacity="1" fill-rule="nonzero"/></g></g></g><g clip-path="url(#id25)"><g clip-path="url(#id26)"><g clip-path="url(#id27)"><path fill="#ffffff" d="M 167.308594 37.492188 C 167.199219 37.652344 167.210938 37.714844 167.359375 37.839844 C 167.445312 37.914062 167.507812 37.929688 167.632812 37.90625 C 168.109375 37.816406 167.746094 37.300781 167.488281 37.347656 C 167.394531 37.367188 167.320312 37.492188 167.308594 37.492188 " fill-opacity="1" fill-rule="nonzero"/></g></g></g><g clip-path="url(#id28)"><g clip-path="url(#id29)"><g clip-path="url(#id30)"><path fill="#ffffff" d="M 148.917969 42.164062 C 148.839844 42.289062 148.875 42.535156 148.976562 42.621094 C 149.050781 42.679688 149.246094 42.664062 149.320312 42.59375 C 149.402344 42.511719 149.433594 42.332031 149.378906 42.207031 C 149.292969 42 149.035156 41.976562 148.917969 42.164062 " fill-opacity="1" fill-rule="nonzero"/></g></g></g><g clip-path="url(#id31)"><g clip-path="url(#id32)"><g clip-path="url(#id33)"><path fill="#ffffff" d="M 164.53125 39.351562 C 164.328125 39.515625 164.328125 39.730469 164.535156 39.839844 C 164.800781 39.976562 165.046875 39.816406 164.996094 39.539062 C 164.949219 39.292969 164.71875 39.199219 164.53125 39.351562 " fill-opacity="1" fill-rule="nonzero"/></g></g></g><g clip-path="url(#id34)"><g clip-path="url(#id35)"><g clip-path="url(#id36)"><path fill="#ffffff" d="M 168.269531 40.332031 C 168.230469 40.453125 168.234375 40.46875 168.339844 40.566406 C 168.5 40.710938 168.746094 40.6875 168.867188 40.511719 C 169.203125 40.023438 168.402344 39.941406 168.269531 40.332031 " fill-opacity="1" fill-rule="nonzero"/></g></g></g><g clip-path="url(#id37)"><g clip-path="url(#id38)"><g clip-path="url(#id39)"><path fill="#ffffff" d="M 152.027344 43.992188 C 151.980469 44.101562 151.984375 44.132812 152.054688 44.226562 C 152.355469 44.628906 152.984375 44.390625 152.925781 44.09375 C 152.886719 43.871094 152.851562 43.859375 152.21875 43.867188 C 152.015625 43.867188 152.054688 43.988281 152.027344 43.992188 " fill-opacity="1" fill-rule="nonzero"/></g></g></g><g clip-path="url(#id40)"><g clip-path="url(#id41)"><g clip-path="url(#id42)"><path fill="#ffffff" d="M 148.019531 44.855469 C 147.941406 44.980469 147.996094 45.28125 148.113281 45.40625 C 148.300781 45.605469 148.589844 45.578125 148.632812 45.363281 C 148.65625 45.226562 148.464844 44.824219 148.347656 44.765625 C 148.230469 44.703125 148.085938 44.746094 148.019531 44.855469 " fill-opacity="1" fill-rule="nonzero"/></g></g></g><g clip-path="url(#id43)"><g clip-path="url(#id44)"><g clip-path="url(#id45)"><path fill="#ffffff" d="M 168.558594 43.023438 C 168.210938 43.265625 168.449219 43.675781 168.835938 43.496094 C 169.089844 43.382812 169.148438 43.039062 168.925781 42.9375 C 168.789062 42.878906 168.765625 42.882812 168.558594 43.023438 " fill-opacity="1" fill-rule="nonzero"/></g></g></g><g clip-path="url(#id46)"><g clip-path="url(#id47)"><g clip-path="url(#id48)"><path fill="#ffffff" d="M 148.953125 47.667969 C 148.875 47.789062 148.917969 47.960938 149.039062 48.035156 C 149.253906 48.167969 149.792969 48.019531 149.859375 47.8125 C 149.902344 47.671875 149.820312 47.511719 149.691406 47.492188 C 149.632812 47.480469 149.457031 47.492188 149.296875 47.523438 C 148.914062 47.589844 148.980469 47.660156 148.953125 47.667969 " fill-opacity="1" fill-rule="nonzero"/></g></g></g><g clip-path="url(#id49)"><g clip-path="url(#id50)"><g clip-path="url(#id51)"><path fill="#ffffff" d="M 165.976562 45.003906 C 165.628906 45.324219 166.082031 45.738281 166.363281 45.359375 C 166.476562 45.203125 166.457031 45.003906 166.316406 44.917969 C 166.113281 44.792969 166.019531 44.996094 165.976562 45.003906 " fill-opacity="1" fill-rule="nonzero"/></g></g></g><g clip-path="url(#id52)"><g clip-path="url(#id53)"><g clip-path="url(#id54)"><path fill="#ffffff" d="M 151.210938 47.957031 C 151.078125 48.011719 151.039062 48.113281 151.082031 48.273438 C 151.136719 48.460938 151.296875 48.503906 151.597656 48.410156 C 151.851562 48.335938 151.933594 48.246094 151.90625 48.089844 C 151.835938 47.707031 151.261719 47.949219 151.210938 47.957031 " fill-opacity="1" fill-rule="nonzero"/></g></g></g><g clip-path="url(#id55)"><g clip-path="url(#id56)"><g clip-path="url(#id57)"><path fill="#ffffff" d="M 169.75 45.960938 C 169.859375 46.066406 170.054688 46.035156 170.136719 45.902344 C 170.230469 45.75 170.210938 45.492188 170.097656 45.40625 C 169.945312 45.289062 169.765625 45.351562 169.691406 45.539062 C 169.726562 45.535156 169.535156 45.75 169.75 45.960938 " fill-opacity="1" fill-rule="nonzero"/></g></g></g><g clip-path="url(#id58)"><g clip-path="url(#id59)"><g clip-path="url(#id60)"><path fill="#ffffff" d="M 169.523438 47.195312 C 169.511719 47.359375 169.742188 47.527344 169.878906 47.457031 C 170.070312 47.363281 170.097656 47.070312 169.929688 46.957031 C 169.832031 46.886719 169.617188 46.921875 169.566406 47.011719 C 169.578125 47.007812 169.535156 47.039062 169.523438 47.195312 " fill-opacity="1" fill-rule="nonzero"/></g></g></g><g clip-path="url(#id61)"><g clip-path="url(#id62)"><g clip-path="url(#id63)"><path fill="#ffffff" d="M 148.394531 51.703125 C 148.53125 51.882812 148.585938 51.921875 148.691406 51.914062 C 148.839844 51.90625 148.964844 51.765625 148.9375 51.632812 C 148.910156 51.496094 148.6875 51.148438 148.5625 51.054688 C 148.390625 50.917969 147.816406 50.949219 148.394531 51.703125 " fill-opacity="1" fill-rule="nonzero"/></g></g></g><g clip-path="url(#id64)"><g clip-path="url(#id65)"><g clip-path="url(#id66)"><path fill="#ffffff" d="M 167.082031 48.238281 C 167.203125 48.457031 167.511719 48.378906 167.570312 48.113281 C 167.617188 47.882812 167.589844 47.792969 167.441406 47.714844 C 167.289062 47.636719 167.28125 47.636719 167.175781 47.722656 C 167.1875 47.722656 166.914062 47.9375 167.082031 48.238281 " fill-opacity="1" fill-rule="nonzero"/></g></g></g><g clip-path="url(#id67)"><g clip-path="url(#id68)"><g clip-path="url(#id69)"><path fill="#ffffff" d="M 150.679688 54.675781 C 150.59375 54.800781 150.601562 54.871094 150.730469 55.035156 C 150.847656 55.183594 150.90625 55.214844 151.03125 55.195312 C 151.265625 55.152344 151.285156 54.777344 151.058594 54.625 C 150.800781 54.445312 150.691406 54.671875 150.679688 54.675781 " fill-opacity="1" fill-rule="nonzero"/></g></g></g><g clip-path="url(#id70)"><g clip-path="url(#id71)"><g clip-path="url(#id72)"><path fill="#ffffff" d="M 163.640625 52.332031 C 163.507812 52.527344 163.703125 52.789062 163.949219 52.746094 C 164.078125 52.71875 164.199219 52.542969 164.171875 52.410156 C 164.136719 52.207031 163.765625 52.152344 163.640625 52.332031 " fill-opacity="1" fill-rule="nonzero"/></g></g></g><g clip-path="url(#id73)"><g clip-path="url(#id74)"><g clip-path="url(#id75)"><path fill="#ffffff" d="M 167.058594 51.714844 C 166.921875 51.871094 166.976562 52.085938 167.167969 52.136719 C 167.335938 52.179688 167.570312 52.035156 167.613281 51.863281 C 167.6875 51.570312 167.285156 51.464844 167.058594 51.714844 " fill-opacity="1" fill-rule="nonzero"/></g></g></g><g clip-path="url(#id76)"><g clip-path="url(#id77)"><g clip-path="url(#id78)"><path fill="#ffffff" d="M 164.695312 55.195312 C 164.8125 55.210938 165.023438 55.046875 165.046875 54.917969 C 165.074219 54.773438 164.984375 54.609375 164.871094 54.589844 C 164.359375 54.496094 164.246094 55.125 164.695312 55.195312 " fill-opacity="1" fill-rule="nonzero"/></g></g></g><g clip-path="url(#id79)"><g clip-path="url(#id80)"><g clip-path="url(#id81)"><path fill="#ffffff" d="M 157.359375 43.003906 C 157.804688 43.078125 157.46875 43.179688 158.199219 43.101562 C 158.785156 43.039062 159.058594 43.089844 159.722656 43.371094 C 160.605469 43.746094 161.621094 44.507812 162.148438 45.195312 C 162.570312 45.738281 162.671875 46.023438 162.671875 46.648438 C 162.675781 47.367188 162.492188 47.867188 162.015625 48.441406 C 161.441406 49.132812 160.863281 49.449219 159.910156 49.59375 C 159.40625 49.671875 159.285156 49.675781 158.941406 49.617188 C 158.179688 49.488281 157.378906 49.308594 156.65625 49.515625 C 156.277344 49.621094 155.597656 49.632812 155.257812 49.535156 C 154.90625 49.433594 154.476562 49.050781 154.265625 48.648438 C 153.984375 48.109375 153.96875 47.21875 154.230469 46.496094 C 154.664062 45.300781 155.871094 43.644531 156.652344 43.171875 C 157.070312 42.917969 157.371094 43.003906 157.359375 43.003906 Z M 156.628906 42.800781 C 156.433594 42.890625 155.972656 43.257812 155.6875 43.550781 C 155.554688 43.6875 155.246094 44.082031 154.996094 44.429688 C 154.054688 45.757812 153.496094 46.84375 153.804688 48.273438 C 153.9375 48.882812 154.050781 49.078125 154.496094 49.464844 C 155.082031 49.96875 155.390625 50.027344 156.648438 49.851562 C 157.671875 49.707031 157.472656 49.710938 158.449219 49.882812 C 160.269531 50.199219 161.753906 49.667969 162.679688 48.074219 C 163.09375 47.363281 163.121094 46.171875 162.746094 45.453125 C 162.136719 44.300781 160.105469 42.898438 158.832031 42.746094 C 158.242188 42.679688 158.179688 42.898438 157.625 42.746094 C 157.0625 42.589844 156.640625 42.796875 156.628906 42.800781 " fill-opacity="1" fill-rule="nonzero"/></g></g></g><g clip-path="url(#id82)"><g clip-path="url(#id83)"><g clip-path="url(#id84)"><path fill="#44413b" d="M 157.324219 44.375 C 157.003906 44.855469 154.910156 46.214844 155.210938 47.839844 C 155.277344 48.1875 155.378906 48.351562 155.617188 48.492188 C 155.835938 48.621094 156.035156 48.632812 156.382812 48.535156 C 157.34375 48.261719 157.875 46.71875 157.875 45.824219 C 157.871094 45.015625 157.929688 44.339844 157.71875 44.210938 C 157.574219 44.125 157.457031 44.171875 157.324219 44.375 " fill-opacity="1" fill-rule="nonzero"/></g></g></g><g clip-path="url(#id85)"><g clip-path="url(#id86)"><g clip-path="url(#id87)"><path fill="#44413b" d="M 159.648438 45.394531 C 159.867188 46.578125 160.347656 47.28125 161.035156 47.425781 C 161.441406 47.511719 161.714844 47.332031 161.828125 46.90625 C 161.890625 46.660156 161.890625 46.585938 161.800781 46.132812 C 161.703125 45.601562 161.652344 45.25 160.453125 44.429688 C 159.851562 44.015625 159.753906 43.988281 159.617188 44.207031 C 159.699219 44.191406 159.410156 44.089844 159.648438 45.394531 " fill-opacity="1" fill-rule="nonzero"/></g></g></g><g clip-path="url(#id88)"><g clip-path="url(#id89)"><g clip-path="url(#id90)"><path fill="#637937" d="M 173.59375 28.714844 C 173.539062 25.90625 173.289062 24.21875 171.433594 22.109375 C 170.722656 21.304688 170.15625 20.808594 169.371094 20.308594 C 168.28125 19.609375 167.644531 19.476562 166.242188 19.65625 C 165.460938 19.753906 165.191406 19.816406 164.839844 19.984375 C 164.558594 20.117188 164.507812 20.207031 164.441406 20.667969 C 164.226562 22.203125 164.871094 23.34375 165.867188 24.507812 C 168.328125 27.398438 171.035156 27.855469 172.28125 28.886719 C 172.828125 29.335938 173.027344 29.476562 173.175781 29.5 C 173.351562 29.527344 173.492188 29.4375 173.550781 29.25 C 173.617188 29.046875 173.585938 28.832031 173.59375 28.714844 " fill-opacity="1" fill-rule="nonzero"/></g></g></g></svg>