<svg xmlns="http://www.w3.org/2000/svg" xmlns:xlink="http://www.w3.org/1999/xlink" width="300" zoomAndPan="magnify" viewBox="0 0 224.87999 89.999999" height="120" preserveAspectRatio="xMidYMid meet" version="1.0"><defs><g/><clipPath id="id1"><path d="M 142 26 L 174 26 L 174 56 L 142 56 Z M 142 26 " clip-rule="nonzero"/></clipPath><clipPath id="id2"><path d="M 137.734375 21.058594 L 169.421875 15.160156 L 176.554688 53.480469 L 144.867188 59.378906 Z M 137.734375 21.058594 " clip-rule="nonzero"/></clipPath><clipPath id="id3"><path d="M 137.734375 21.058594 L 169.421875 15.160156 L 176.554688 53.480469 L 144.867188 59.378906 Z M 137.734375 21.058594 " clip-rule="nonzero"/></clipPath><clipPath id="id4"><path d="M 158 16 L 165 16 L 165 32 L 158 32 Z M 158 16 " clip-rule="nonzero"/></clipPath><clipPath id="id5"><path d="M 137.734375 21.058594 L 169.421875 15.160156 L 176.554688 53.480469 L 144.867188 59.378906 Z M 137.734375 21.058594 " clip-rule="nonzero"/></clipPath><clipPath id="id6"><path d="M 137.734375 21.058594 L 169.421875 15.160156 L 176.554688 53.480469 L 144.867188 59.378906 Z M 137.734375 21.058594 " clip-rule="nonzero"/></clipPath><clipPath id="id7"><path d="M 143 28 L 172 28 L 172 55 L 143 55 Z M 143 28 " clip-rule="nonzero"/></clipPath><clipPath id="id8"><path d="M 137.734375 21.058594 L 169.421875 15.160156 L 176.554688 53.480469 L 144.867188 59.378906 Z M 137.734375 21.058594 " clip-rule="nonzero"/></clipPath><clipPath id="id9"><path d="M 137.734375 21.058594 L 169.421875 15.160156 L 176.554688 53.480469 L 144.867188 59.378906 Z M 137.734375 21.058594 " clip-rule="nonzero"/></clipPath><clipPath id="id10"><path d="M 156 52 L 160 52 L 160 57 L 156 57 Z M 156 52 " clip-rule="nonzero"/></clipPath><clipPath id="id11"><path d="M 137.734375 21.058594 L 169.421875 15.160156 L 176.554688 53.480469 L 144.867188 59.378906 Z M 137.734375 21.058594 " clip-rule="nonzero"/></clipPath><clipPath id="id12"><path d="M 137.734375 21.058594 L 169.421875 15.160156 L 176.554688 53.480469 L 144.867188 59.378906 Z M 137.734375 21.058594 " clip-rule="nonzero"/></clipPath><clipPath id="id13"><path d="M 152 32 L 154 32 L 154 33 L 152 33 Z M 152 32 " clip-rule="nonzero"/></clipPath><clipPath id="id14"><path d="M 137.734375 21.058594 L 169.421875 15.160156 L 176.554688 53.480469 L 144.867188 59.378906 Z M 137.734375 21.058594 " clip-rule="nonzero"/></clipPath><clipPath id="id15"><path d="M 137.734375 21.058594 L 169.421875 15.160156 L 176.554688 53.480469 L 144.867188 59.378906 Z M 137.734375 21.058594 " clip-rule="nonzero"/></clipPath><clipPath id="id16"><path d="M 150 33 L 152 33 L 152 35 L 150 35 Z M 150 33 " clip-rule="nonzero"/></clipPath><clipPath id="id17"><path d="M 137.734375 21.058594 L 169.421875 15.160156 L 176.554688 53.480469 L 144.867188 59.378906 Z M 137.734375 21.058594 " clip-rule="nonzero"/></clipPath><clipPath id="id18"><path d="M 137.734375 21.058594 L 169.421875 15.160156 L 176.554688 53.480469 L 144.867188 59.378906 Z M 137.734375 21.058594 " clip-rule="nonzero"/></clipPath><clipPath id="id19"><path d="M 146 35 L 147 35 L 147 36 L 146 36 Z M 146 35 " clip-rule="nonzero"/></clipPath><clipPath id="id20"><path d="M 137.734375 21.058594 L 169.421875 15.160156 L 176.554688 53.480469 L 144.867188 59.378906 Z M 137.734375 21.058594 " clip-rule="nonzero"/></clipPath><clipPath id="id21"><path d="M 137.734375 21.058594 L 169.421875 15.160156 L 176.554688 53.480469 L 144.867188 59.378906 Z M 137.734375 21.058594 " clip-rule="nonzero"/></clipPath><clipPath id="id22"><path d="M 150 36 L 152 36 L 152 38 L 150 38 Z M 150 36 " clip-rule="nonzero"/></clipPath><clipPath id="id23"><path d="M 137.734375 21.058594 L 169.421875 15.160156 L 176.554688 53.480469 L 144.867188 59.378906 Z M 137.734375 21.058594 " clip-rule="nonzero"/></clipPath><clipPath id="id24"><path d="M 137.734375 21.058594 L 169.421875 15.160156 L 176.554688 53.480469 L 144.867188 59.378906 Z M 137.734375 21.058594 " clip-rule="nonzero"/></clipPath><clipPath id="id25"><path d="M 167 33 L 168 33 L 168 34 L 167 34 Z M 167 33 " clip-rule="nonzero"/></clipPath><clipPath id="id26"><path d="M 137.734375 21.058594 L 169.421875 15.160156 L 176.554688 53.480469 L 144.867188 59.378906 Z M 137.734375 21.058594 " clip-rule="nonzero"/></clipPath><clipPath id="id27"><path d="M 137.734375 21.058594 L 169.421875 15.160156 L 176.554688 53.480469 L 144.867188 59.378906 Z M 137.734375 21.058594 " clip-rule="nonzero"/></clipPath><clipPath id="id28"><path d="M 148 37 L 150 37 L 150 39 L 148 39 Z M 148 37 " clip-rule="nonzero"/></clipPath><clipPath id="id29"><path d="M 137.734375 21.058594 L 169.421875 15.160156 L 176.554688 53.480469 L 144.867188 59.378906 Z M 137.734375 21.058594 " clip-rule="nonzero"/></clipPath><clipPath id="id30"><path d="M 137.734375 21.058594 L 169.421875 15.160156 L 176.554688 53.480469 L 144.867188 59.378906 Z M 137.734375 21.058594 " clip-rule="nonzero"/></clipPath><clipPath id="id31"><path d="M 164 35 L 165 35 L 165 36 L 164 36 Z M 164 35 " clip-rule="nonzero"/></clipPath><clipPath id="id32"><path d="M 137.734375 21.058594 L 169.421875 15.160156 L 176.554688 53.480469 L 144.867188 59.378906 Z M 137.734375 21.058594 " clip-rule="nonzero"/></clipPath><clipPath id="id33"><path d="M 137.734375 21.058594 L 169.421875 15.160156 L 176.554688 53.480469 L 144.867188 59.378906 Z M 137.734375 21.058594 " clip-rule="nonzero"/></clipPath><clipPath id="id34"><path d="M 168 35 L 169 35 L 169 37 L 168 37 Z M 168 35 " clip-rule="nonzero"/></clipPath><clipPath id="id35"><path d="M 137.734375 21.058594 L 169.421875 15.160156 L 176.554688 53.480469 L 144.867188 59.378906 Z M 137.734375 21.058594 " clip-rule="nonzero"/></clipPath><clipPath id="id36"><path d="M 137.734375 21.058594 L 169.421875 15.160156 L 176.554688 53.480469 L 144.867188 59.378906 Z M 137.734375 21.058594 " clip-rule="nonzero"/></clipPath><clipPath id="id37"><path d="M 151 39 L 153 39 L 153 41 L 151 41 Z M 151 39 " clip-rule="nonzero"/></clipPath><clipPath id="id38"><path d="M 137.734375 21.058594 L 169.421875 15.160156 L 176.554688 53.480469 L 144.867188 59.378906 Z M 137.734375 21.058594 " clip-rule="nonzero"/></clipPath><clipPath id="id39"><path d="M 137.734375 21.058594 L 169.421875 15.160156 L 176.554688 53.480469 L 144.867188 59.378906 Z M 137.734375 21.058594 " clip-rule="nonzero"/></clipPath><clipPath id="id40"><path d="M 147 40 L 149 40 L 149 42 L 147 42 Z M 147 40 " clip-rule="nonzero"/></clipPath><clipPath id="id41"><path d="M 137.734375 21.058594 L 169.421875 15.160156 L 176.554688 53.480469 L 144.867188 59.378906 Z M 137.734375 21.058594 " clip-rule="nonzero"/></clipPath><clipPath id="id42"><path d="M 137.734375 21.058594 L 169.421875 15.160156 L 176.554688 53.480469 L 144.867188 59.378906 Z M 137.734375 21.058594 " clip-rule="nonzero"/></clipPath><clipPath id="id43"><path d="M 168 38 L 169 38 L 169 40 L 168 40 Z M 168 38 " clip-rule="nonzero"/></clipPath><clipPath id="id44"><path d="M 137.734375 21.058594 L 169.421875 15.160156 L 176.554688 53.480469 L 144.867188 59.378906 Z M 137.734375 21.058594 " clip-rule="nonzero"/></clipPath><clipPath id="id45"><path d="M 137.734375 21.058594 L 169.421875 15.160156 L 176.554688 53.480469 L 144.867188 59.378906 Z M 137.734375 21.058594 " clip-rule="nonzero"/></clipPath><clipPath id="id46"><path d="M 148 43 L 150 43 L 150 44 L 148 44 Z M 148 43 " clip-rule="nonzero"/></clipPath><clipPath id="id47"><path d="M 137.734375 21.058594 L 169.421875 15.160156 L 176.554688 53.480469 L 144.867188 59.378906 Z M 137.734375 21.058594 " clip-rule="nonzero"/></clipPath><clipPath id="id48"><path d="M 137.734375 21.058594 L 169.421875 15.160156 L 176.554688 53.480469 L 144.867188 59.378906 Z M 137.734375 21.058594 " clip-rule="nonzero"/></clipPath><clipPath id="id49"><path d="M 165 40 L 167 40 L 167 42 L 165 42 Z M 165 40 " clip-rule="nonzero"/></clipPath><clipPath id="id50"><path d="M 137.734375 21.058594 L 169.421875 15.160156 L 176.554688 53.480469 L 144.867188 59.378906 Z M 137.734375 21.058594 " clip-rule="nonzero"/></clipPath><clipPath id="id51"><path d="M 137.734375 21.058594 L 169.421875 15.160156 L 176.554688 53.480469 L 144.867188 59.378906 Z M 137.734375 21.058594 " clip-rule="nonzero"/></clipPath><clipPath id="id52"><path d="M 150 43 L 152 43 L 152 45 L 150 45 Z M 150 43 " clip-rule="nonzero"/></clipPath><clipPath id="id53"><path d="M 137.734375 21.058594 L 169.421875 15.160156 L 176.554688 53.480469 L 144.867188 59.378906 Z M 137.734375 21.058594 " clip-rule="nonzero"/></clipPath><clipPath id="id54"><path d="M 137.734375 21.058594 L 169.421875 15.160156 L 176.554688 53.480469 L 144.867188 59.378906 Z M 137.734375 21.058594 " clip-rule="nonzero"/></clipPath><clipPath id="id55"><path d="M 169 41 L 171 41 L 171 42 L 169 42 Z M 169 41 " clip-rule="nonzero"/></clipPath><clipPath id="id56"><path d="M 137.734375 21.058594 L 169.421875 15.160156 L 176.554688 53.480469 L 144.867188 59.378906 Z M 137.734375 21.058594 " clip-rule="nonzero"/></clipPath><clipPath id="id57"><path d="M 137.734375 21.058594 L 169.421875 15.160156 L 176.554688 53.480469 L 144.867188 59.378906 Z M 137.734375 21.058594 " clip-rule="nonzero"/></clipPath><clipPath id="id58"><path d="M 169 42 L 170 42 L 170 44 L 169 44 Z M 169 42 " clip-rule="nonzero"/></clipPath><clipPath id="id59"><path d="M 137.734375 21.058594 L 169.421875 15.160156 L 176.554688 53.480469 L 144.867188 59.378906 Z M 137.734375 21.058594 " clip-rule="nonzero"/></clipPath><clipPath id="id60"><path d="M 137.734375 21.058594 L 169.421875 15.160156 L 176.554688 53.480469 L 144.867188 59.378906 Z M 137.734375 21.058594 " clip-rule="nonzero"/></clipPath><clipPath id="id61"><path d="M 147 46 L 149 46 L 149 48 L 147 48 Z M 147 46 " clip-rule="nonzero"/></clipPath><clipPath id="id62"><path d="M 137.734375 21.058594 L 169.421875 15.160156 L 176.554688 53.480469 L 144.867188 59.378906 Z M 137.734375 21.058594 " clip-rule="nonzero"/></clipPath><clipPath id="id63"><path d="M 137.734375 21.058594 L 169.421875 15.160156 L 176.554688 53.480469 L 144.867188 59.378906 Z M 137.734375 21.058594 " clip-rule="nonzero"/></clipPath><clipPath id="id64"><path d="M 166 43 L 168 43 L 168 45 L 166 45 Z M 166 43 " clip-rule="nonzero"/></clipPath><clipPath id="id65"><path d="M 137.734375 21.058594 L 169.421875 15.160156 L 176.554688 53.480469 L 144.867188 59.378906 Z M 137.734375 21.058594 " clip-rule="nonzero"/></clipPath><clipPath id="id66"><path d="M 137.734375 21.058594 L 169.421875 15.160156 L 176.554688 53.480469 L 144.867188 59.378906 Z M 137.734375 21.058594 " clip-rule="nonzero"/></clipPath><clipPath id="id67"><path d="M 150 50 L 152 50 L 152 52 L 150 52 Z M 150 50 " clip-rule="nonzero"/></clipPath><clipPath id="id68"><path d="M 137.734375 21.058594 L 169.421875 15.160156 L 176.554688 53.480469 L 144.867188 59.378906 Z M 137.734375 21.058594 " clip-rule="nonzero"/></clipPath><clipPath id="id69"><path d="M 137.734375 21.058594 L 169.421875 15.160156 L 176.554688 53.480469 L 144.867188 59.378906 Z M 137.734375 21.058594 " clip-rule="nonzero"/></clipPath><clipPath id="id70"><path d="M 163 48 L 165 48 L 165 49 L 163 49 Z M 163 48 " clip-rule="nonzero"/></clipPath><clipPath id="id71"><path d="M 137.734375 21.058594 L 169.421875 15.160156 L 176.554688 53.480469 L 144.867188 59.378906 Z M 137.734375 21.058594 " clip-rule="nonzero"/></clipPath><clipPath id="id72"><path d="M 137.734375 21.058594 L 169.421875 15.160156 L 176.554688 53.480469 L 144.867188 59.378906 Z M 137.734375 21.058594 " clip-rule="nonzero"/></clipPath><clipPath id="id73"><path d="M 166 47 L 168 47 L 168 48 L 166 48 Z M 166 47 " clip-rule="nonzero"/></clipPath><clipPath id="id74"><path d="M 137.734375 21.058594 L 169.421875 15.160156 L 176.554688 53.480469 L 144.867188 59.378906 Z M 137.734375 21.058594 " clip-rule="nonzero"/></clipPath><clipPath id="id75"><path d="M 137.734375 21.058594 L 169.421875 15.160156 L 176.554688 53.480469 L 144.867188 59.378906 Z M 137.734375 21.058594 " clip-rule="nonzero"/></clipPath><clipPath id="id76"><path d="M 164 50 L 165 50 L 165 52 L 164 52 Z M 164 50 " clip-rule="nonzero"/></clipPath><clipPath id="id77"><path d="M 137.734375 21.058594 L 169.421875 15.160156 L 176.554688 53.480469 L 144.867188 59.378906 Z M 137.734375 21.058594 " clip-rule="nonzero"/></clipPath><clipPath id="id78"><path d="M 137.734375 21.058594 L 169.421875 15.160156 L 176.554688 53.480469 L 144.867188 59.378906 Z M 137.734375 21.058594 " clip-rule="nonzero"/></clipPath><clipPath id="id79"><path d="M 153 38 L 163 38 L 163 46 L 153 46 Z M 153 38 " clip-rule="nonzero"/></clipPath><clipPath id="id80"><path d="M 137.734375 21.058594 L 169.421875 15.160156 L 176.554688 53.480469 L 144.867188 59.378906 Z M 137.734375 21.058594 " clip-rule="nonzero"/></clipPath><clipPath id="id81"><path d="M 137.734375 21.058594 L 169.421875 15.160156 L 176.554688 53.480469 L 144.867188 59.378906 Z M 137.734375 21.058594 " clip-rule="nonzero"/></clipPath><clipPath id="id82"><path d="M 155 40 L 158 40 L 158 45 L 155 45 Z M 155 40 " clip-rule="nonzero"/></clipPath><clipPath id="id83"><path d="M 137.734375 21.058594 L 169.421875 15.160156 L 176.554688 53.480469 L 144.867188 59.378906 Z M 137.734375 21.058594 " clip-rule="nonzero"/></clipPath><clipPath id="id84"><path d="M 137.734375 21.058594 L 169.421875 15.160156 L 176.554688 53.480469 L 144.867188 59.378906 Z M 137.734375 21.058594 " clip-rule="nonzero"/></clipPath><clipPath id="id85"><path d="M 159 39 L 162 39 L 162 44 L 159 44 Z M 159 39 " clip-rule="nonzero"/></clipPath><clipPath id="id86"><path d="M 137.734375 21.058594 L 169.421875 15.160156 L 176.554688 53.480469 L 144.867188 59.378906 Z M 137.734375 21.058594 " clip-rule="nonzero"/></clipPath><clipPath id="id87"><path d="M 137.734375 21.058594 L 169.421875 15.160156 L 176.554688 53.480469 L 144.867188 59.378906 Z M 137.734375 21.058594 " clip-rule="nonzero"/></clipPath><clipPath id="id88"><path d="M 164 15 L 174 15 L 174 26 L 164 26 Z M 164 15 " clip-rule="nonzero"/></clipPath><clipPath id="id89"><path d="M 174.101562 15.640625 L 173.597656 25.371094 L 163.867188 24.867188 L 164.371094 15.132812 Z M 174.101562 15.640625 " clip-rule="nonzero"/></clipPath><clipPath id="id90"><path d="M 174.101562 15.640625 L 173.597656 25.371094 L 163.867188 24.867188 L 164.371094 15.132812 Z M 174.101562 15.640625 " clip-rule="nonzero"/></clipPath></defs><g fill="#637937" fill-opacity="1"><g transform="translate(8.221018, 54.744799)"><g><path d="M 6.125 -15.203125 L 0.109375 -15.203125 L 0.109375 -19.59375 L 17.65625 -19.59375 L 17.65625 -15.203125 L 11.671875 -15.203125 L 11.671875 0 L 6.125 0 Z M 6.125 -15.203125 "/></g></g></g><g fill="#637937" fill-opacity="1"><g transform="translate(25.989107, 54.744799)"><g><path d="M 17.203125 -7.5625 C 17.203125 -7.519531 17.175781 -7.078125 17.125 -6.234375 L 6.09375 -6.234375 C 6.320312 -5.453125 6.757812 -4.851562 7.40625 -4.4375 C 8.050781 -4.019531 8.859375 -3.8125 9.828125 -3.8125 C 10.546875 -3.8125 11.171875 -3.910156 11.703125 -4.109375 C 12.242188 -4.316406 12.785156 -4.65625 13.328125 -5.125 L 16.125 -2.203125 C 14.644531 -0.566406 12.488281 0.25 9.65625 0.25 C 7.882812 0.25 6.328125 -0.0820312 4.984375 -0.75 C 3.640625 -1.425781 2.597656 -2.359375 1.859375 -3.546875 C 1.117188 -4.742188 0.75 -6.097656 0.75 -7.609375 C 0.75 -9.097656 1.109375 -10.4375 1.828125 -11.625 C 2.546875 -12.8125 3.539062 -13.738281 4.8125 -14.40625 C 6.082031 -15.082031 7.507812 -15.421875 9.09375 -15.421875 C 10.601562 -15.421875 11.972656 -15.109375 13.203125 -14.484375 C 14.441406 -13.859375 15.414062 -12.953125 16.125 -11.765625 C 16.84375 -10.578125 17.203125 -9.175781 17.203125 -7.5625 Z M 9.125 -11.640625 C 8.300781 -11.640625 7.613281 -11.40625 7.0625 -10.9375 C 6.507812 -10.476562 6.160156 -9.84375 6.015625 -9.03125 L 12.234375 -9.03125 C 12.078125 -9.84375 11.722656 -10.476562 11.171875 -10.9375 C 10.628906 -11.40625 9.945312 -11.640625 9.125 -11.640625 Z M 9.125 -11.640625 "/></g></g></g><g fill="#637937" fill-opacity="1"><g transform="translate(43.953073, 54.744799)"><g><path d="M 1.703125 -15.171875 L 7.03125 -15.171875 L 7.03125 0 L 1.703125 0 Z M 4.375 -16.84375 C 3.40625 -16.84375 2.617188 -17.113281 2.015625 -17.65625 C 1.421875 -18.195312 1.125 -18.867188 1.125 -19.671875 C 1.125 -20.472656 1.421875 -21.144531 2.015625 -21.6875 C 2.617188 -22.226562 3.40625 -22.5 4.375 -22.5 C 5.34375 -22.5 6.125 -22.238281 6.71875 -21.71875 C 7.3125 -21.207031 7.609375 -20.550781 7.609375 -19.75 C 7.609375 -18.914062 7.3125 -18.222656 6.71875 -17.671875 C 6.125 -17.117188 5.34375 -16.84375 4.375 -16.84375 Z M 4.375 -16.84375 "/></g></g></g><g fill="#637937" fill-opacity="1"><g transform="translate(52.711208, 54.744799)"><g><path d="M 1.703125 -20.765625 L 7.03125 -20.765625 L 7.03125 0 L 1.703125 0 Z M 1.703125 -20.765625 "/></g></g></g><g fill="#637937" fill-opacity="1"><g transform="translate(61.469344, 54.744799)"><g/></g></g><g fill="#637937" fill-opacity="1"><g transform="translate(69.611887, 54.744799)"><g><path d="M 17.828125 -20.765625 L 17.828125 0 L 12.765625 0 L 12.765625 -1.515625 C 11.773438 -0.335938 10.289062 0.25 8.3125 0.25 C 6.925781 0.25 5.664062 -0.0664062 4.53125 -0.703125 C 3.394531 -1.347656 2.492188 -2.269531 1.828125 -3.46875 C 1.171875 -4.664062 0.84375 -6.046875 0.84375 -7.609375 C 0.84375 -9.179688 1.171875 -10.554688 1.828125 -11.734375 C 2.492188 -12.921875 3.394531 -13.832031 4.53125 -14.46875 C 5.664062 -15.101562 6.925781 -15.421875 8.3125 -15.421875 C 10.125 -15.421875 11.523438 -14.898438 12.515625 -13.859375 L 12.515625 -20.765625 Z M 9.4375 -3.96875 C 10.34375 -3.96875 11.09375 -4.289062 11.6875 -4.9375 C 12.289062 -5.582031 12.59375 -6.472656 12.59375 -7.609375 C 12.59375 -8.734375 12.296875 -9.609375 11.703125 -10.234375 C 11.117188 -10.867188 10.363281 -11.1875 9.4375 -11.1875 C 8.5 -11.1875 7.726562 -10.867188 7.125 -10.234375 C 6.53125 -9.609375 6.234375 -8.734375 6.234375 -7.609375 C 6.234375 -6.472656 6.53125 -5.582031 7.125 -4.9375 C 7.726562 -4.289062 8.5 -3.96875 9.4375 -3.96875 Z M 9.4375 -3.96875 "/></g></g></g><g fill="#637937" fill-opacity="1"><g transform="translate(89.142799, 54.744799)"><g><path d="M 17.203125 -7.5625 C 17.203125 -7.519531 17.175781 -7.078125 17.125 -6.234375 L 6.09375 -6.234375 C 6.320312 -5.453125 6.757812 -4.851562 7.40625 -4.4375 C 8.050781 -4.019531 8.859375 -3.8125 9.828125 -3.8125 C 10.546875 -3.8125 11.171875 -3.910156 11.703125 -4.109375 C 12.242188 -4.316406 12.785156 -4.65625 13.328125 -5.125 L 16.125 -2.203125 C 14.644531 -0.566406 12.488281 0.25 9.65625 0.25 C 7.882812 0.25 6.328125 -0.0820312 4.984375 -0.75 C 3.640625 -1.425781 2.597656 -2.359375 1.859375 -3.546875 C 1.117188 -4.742188 0.75 -6.097656 0.75 -7.609375 C 0.75 -9.097656 1.109375 -10.4375 1.828125 -11.625 C 2.546875 -12.8125 3.539062 -13.738281 4.8125 -14.40625 C 6.082031 -15.082031 7.507812 -15.421875 9.09375 -15.421875 C 10.601562 -15.421875 11.972656 -15.109375 13.203125 -14.484375 C 14.441406 -13.859375 15.414062 -12.953125 16.125 -11.765625 C 16.84375 -10.578125 17.203125 -9.175781 17.203125 -7.5625 Z M 9.125 -11.640625 C 8.300781 -11.640625 7.613281 -11.40625 7.0625 -10.9375 C 6.507812 -10.476562 6.160156 -9.84375 6.015625 -9.03125 L 12.234375 -9.03125 C 12.078125 -9.84375 11.722656 -10.476562 11.171875 -10.9375 C 10.628906 -11.40625 9.945312 -11.640625 9.125 -11.640625 Z M 9.125 -11.640625 "/></g></g></g><g fill="#637937" fill-opacity="1"><g transform="translate(107.106764, 54.744799)"><g><path d="M 1.703125 -15.171875 L 7.03125 -15.171875 L 7.03125 0 L 1.703125 0 Z M 4.375 -16.84375 C 3.40625 -16.84375 2.617188 -17.113281 2.015625 -17.65625 C 1.421875 -18.195312 1.125 -18.867188 1.125 -19.671875 C 1.125 -20.472656 1.421875 -21.144531 2.015625 -21.6875 C 2.617188 -22.226562 3.40625 -22.5 4.375 -22.5 C 5.34375 -22.5 6.125 -22.238281 6.71875 -21.71875 C 7.3125 -21.207031 7.609375 -20.550781 7.609375 -19.75 C 7.609375 -18.914062 7.3125 -18.222656 6.71875 -17.671875 C 6.125 -17.117188 5.34375 -16.84375 4.375 -16.84375 Z M 4.375 -16.84375 "/></g></g></g><g fill="#637937" fill-opacity="1"><g transform="translate(115.8649, 54.744799)"><g><path d="M 11.578125 -15.421875 C 13.460938 -15.421875 14.976562 -14.859375 16.125 -13.734375 C 17.28125 -12.617188 17.859375 -10.929688 17.859375 -8.671875 L 17.859375 0 L 12.53125 0 L 12.53125 -7.8125 C 12.53125 -9.875 11.703125 -10.90625 10.046875 -10.90625 C 9.128906 -10.90625 8.394531 -10.609375 7.84375 -10.015625 C 7.300781 -9.421875 7.03125 -8.523438 7.03125 -7.328125 L 7.03125 0 L 1.703125 0 L 1.703125 -15.171875 L 6.765625 -15.171875 L 6.765625 -13.515625 C 7.367188 -14.128906 8.078125 -14.597656 8.890625 -14.921875 C 9.710938 -15.253906 10.609375 -15.421875 11.578125 -15.421875 Z M 11.578125 -15.421875 "/></g></g></g><g fill="#c64f40" fill-opacity="1"><g transform="translate(174.104161, 54.744799)"><g><path d="M 11.25 -15.421875 C 12.632812 -15.421875 13.890625 -15.101562 15.015625 -14.46875 C 16.140625 -13.832031 17.03125 -12.921875 17.6875 -11.734375 C 18.351562 -10.554688 18.6875 -9.179688 18.6875 -7.609375 C 18.6875 -6.046875 18.351562 -4.664062 17.6875 -3.46875 C 17.03125 -2.269531 16.140625 -1.347656 15.015625 -0.703125 C 13.890625 -0.0664062 12.632812 0.25 11.25 0.25 C 9.25 0.25 7.753906 -0.335938 6.765625 -1.515625 L 6.765625 0 L 1.703125 0 L 1.703125 -20.765625 L 7.03125 -20.765625 L 7.03125 -13.859375 C 8.050781 -14.898438 9.457031 -15.421875 11.25 -15.421875 Z M 10.125 -3.96875 C 11.0625 -3.96875 11.828125 -4.289062 12.421875 -4.9375 C 13.023438 -5.582031 13.328125 -6.472656 13.328125 -7.609375 C 13.328125 -8.734375 13.023438 -9.609375 12.421875 -10.234375 C 11.828125 -10.867188 11.0625 -11.1875 10.125 -11.1875 C 9.195312 -11.1875 8.429688 -10.867188 7.828125 -10.234375 C 7.234375 -9.609375 6.9375 -8.734375 6.9375 -7.609375 C 6.9375 -6.472656 7.234375 -5.582031 7.828125 -4.9375 C 8.429688 -4.289062 9.195312 -3.96875 10.125 -3.96875 Z M 10.125 -3.96875 "/></g></g></g><g fill="#c64f40" fill-opacity="1"><g transform="translate(193.551129, 54.744799)"><g><path d="M 7.21875 0.25 C 5.945312 0.25 4.695312 0.109375 3.46875 -0.171875 C 2.238281 -0.460938 1.25 -0.84375 0.5 -1.3125 L 2.09375 -4.953125 C 2.789062 -4.523438 3.613281 -4.179688 4.5625 -3.921875 C 5.507812 -3.671875 6.453125 -3.546875 7.390625 -3.546875 C 8.242188 -3.546875 8.851562 -3.632812 9.21875 -3.8125 C 9.582031 -3.988281 9.765625 -4.25 9.765625 -4.59375 C 9.765625 -4.925781 9.546875 -5.160156 9.109375 -5.296875 C 8.671875 -5.441406 7.976562 -5.578125 7.03125 -5.703125 C 5.8125 -5.859375 4.773438 -6.054688 3.921875 -6.296875 C 3.078125 -6.535156 2.347656 -6.984375 1.734375 -7.640625 C 1.117188 -8.296875 0.8125 -9.207031 0.8125 -10.375 C 0.8125 -11.351562 1.097656 -12.21875 1.671875 -12.96875 C 2.253906 -13.726562 3.097656 -14.328125 4.203125 -14.765625 C 5.316406 -15.203125 6.648438 -15.421875 8.203125 -15.421875 C 9.296875 -15.421875 10.382812 -15.304688 11.46875 -15.078125 C 12.550781 -14.859375 13.457031 -14.539062 14.1875 -14.125 L 12.59375 -10.515625 C 11.25 -11.265625 9.796875 -11.640625 8.234375 -11.640625 C 7.390625 -11.640625 6.769531 -11.539062 6.375 -11.34375 C 5.988281 -11.144531 5.796875 -10.890625 5.796875 -10.578125 C 5.796875 -10.222656 6.007812 -9.972656 6.4375 -9.828125 C 6.863281 -9.691406 7.570312 -9.550781 8.5625 -9.40625 C 9.8125 -9.21875 10.847656 -9 11.671875 -8.75 C 12.492188 -8.507812 13.207031 -8.066406 13.8125 -7.421875 C 14.414062 -6.785156 14.71875 -5.890625 14.71875 -4.734375 C 14.71875 -3.773438 14.425781 -2.914062 13.84375 -2.15625 C 13.269531 -1.40625 12.414062 -0.816406 11.28125 -0.390625 C 10.15625 0.0351562 8.800781 0.25 7.21875 0.25 Z M 7.21875 0.25 "/></g></g></g><g fill="#c64f40" fill-opacity="1"><g transform="translate(208.856872, 54.744799)"><g><path d="M 12.171875 -0.609375 C 11.722656 -0.335938 11.175781 -0.128906 10.53125 0.015625 C 9.894531 0.171875 9.210938 0.25 8.484375 0.25 C 6.503906 0.25 4.984375 -0.234375 3.921875 -1.203125 C 2.859375 -2.171875 2.328125 -3.617188 2.328125 -5.546875 L 2.328125 -10.640625 L 0.109375 -10.640625 L 0.109375 -14.609375 L 2.328125 -14.609375 L 2.328125 -18.546875 L 7.640625 -18.546875 L 7.640625 -14.609375 L 11.109375 -14.609375 L 11.109375 -10.640625 L 7.640625 -10.640625 L 7.640625 -5.59375 C 7.640625 -5.050781 7.78125 -4.625 8.0625 -4.3125 C 8.351562 -4.007812 8.742188 -3.859375 9.234375 -3.859375 C 9.847656 -3.859375 10.390625 -4.019531 10.859375 -4.34375 Z M 12.171875 -0.609375 "/></g></g></g><g clip-path="url(#id1)"><g clip-path="url(#id2)"><g clip-path="url(#id3)"><path fill="#c64f40" d="M 149.355469 27.148438 C 143.917969 28.855469 142.039062 35.945312 142.050781 41.589844 C 142.058594 44.261719 142.65625 46.484375 144.074219 49.082031 C 144.792969 50.398438 145.3125 51 147.183594 52.671875 C 151.359375 56.402344 154.414062 55.3125 156.515625 55.578125 C 157.46875 55.703125 157.714844 55.683594 158.8125 55.804688 C 160.171875 55.960938 159.945312 55.9375 162.71875 55.980469 C 165.089844 55.539062 165.679688 55.457031 166.582031 55.0625 C 167.996094 54.445312 169.308594 53.519531 170.265625 52.28125 C 170.714844 51.699219 171.664062 50.222656 171.902344 49.734375 C 172.914062 47.679688 173.914062 43.429688 173.78125 39.9375 C 173.726562 38.5 173.351562 36.234375 173 35.242188 C 172.550781 33.972656 171.902344 32.753906 171.132812 31.726562 C 169.4375 29.472656 168.214844 27.808594 165.316406 26.972656 C 164.195312 26.652344 163.503906 26.652344 161.011719 26.984375 C 158.203125 27.359375 158.863281 26.84375 156.675781 26.816406 C 155.183594 26.796875 154.5 26.464844 153.394531 26.484375 C 153.019531 26.492188 150.597656 26.757812 149.355469 27.148438 " fill-opacity="1" fill-rule="nonzero"/></g></g></g><g clip-path="url(#id4)"><g clip-path="url(#id5)"><g clip-path="url(#id6)"><path fill="#44413b" d="M 163.984375 16.4375 C 163.933594 16.496094 163.832031 16.730469 163.757812 16.964844 C 163.21875 18.660156 161.90625 19.367188 159.472656 24.566406 C 158.308594 27.050781 158.300781 27.769531 158.035156 31.269531 C 158 31.71875 158.039062 31.832031 158.210938 31.800781 C 158.375 31.769531 158.496094 31.523438 158.558594 31.101562 C 158.691406 30.191406 158.9375 29.164062 159.363281 27.742188 C 160.503906 23.90625 161.460938 22.667969 163.371094 19.308594 C 164.632812 17.09375 164.683594 17.265625 164.605469 16.769531 C 164.574219 16.582031 164.546875 16.535156 164.398438 16.429688 C 164.082031 16.203125 164.019531 16.429688 163.984375 16.4375 " fill-opacity="1" fill-rule="nonzero"/></g></g></g><g clip-path="url(#id7)"><g clip-path="url(#id8)"><g clip-path="url(#id9)"><path fill="#fcddd0" d="M 151.070312 28.953125 C 149.894531 29.363281 148.21875 30.34375 147.34375 31.136719 C 145.167969 33.105469 143.71875 36.050781 143.941406 40.8125 C 143.976562 41.523438 144.5 44.582031 144.738281 45.457031 C 145.734375 49.113281 148.632812 52.628906 152.238281 53.609375 C 152.917969 53.796875 153.292969 54 154.066406 54.027344 C 154.523438 54.042969 155.363281 53.855469 155.835938 53.632812 C 156.613281 53.269531 157.195312 52.652344 157.78125 51.574219 L 158.183594 50.839844 C 158.523438 52.292969 158.464844 52.261719 159.230469 53.195312 C 159.636719 53.691406 159.71875 53.765625 160.195312 54.078125 C 161.269531 54.777344 161.738281 54.832031 163.640625 54.480469 C 164.605469 54.300781 165 54.183594 165.699219 53.867188 C 168.0625 52.792969 169.421875 51.300781 170.730469 48.339844 C 171.003906 47.730469 171.425781 46.429688 171.589844 45.710938 C 171.839844 44.605469 171.972656 42.261719 171.902344 40.3125 C 171.878906 39.671875 171.570312 36.179688 171.042969 34.9375 C 170.683594 34.089844 170.484375 33.730469 170.082031 33.1875 C 168.640625 31.253906 166.089844 29.625 164.414062 29.144531 L 163.917969 29.003906 C 163.128906 29.128906 162.691406 29.183594 162.328125 29.335938 C 161.988281 29.476562 161.132812 30.019531 160.839844 30.28125 C 160.382812 30.6875 159.855469 31.300781 159.523438 31.796875 C 158.941406 32.679688 158.816406 32.929688 158.441406 33.957031 C 158.292969 34.363281 158.234375 34.421875 158.191406 34.199219 C 158.160156 34.03125 157.675781 32.722656 157.507812 32.238281 C 157.355469 31.800781 156.558594 30.636719 155.898438 29.886719 C 155.5 29.433594 155.136719 29.160156 154.648438 28.941406 C 154.183594 28.730469 153.464844 28.539062 153.144531 28.539062 C 152.542969 28.539062 151.078125 28.949219 151.070312 28.953125 " fill-opacity="1" fill-rule="nonzero"/></g></g></g><g clip-path="url(#id10)"><g clip-path="url(#id11)"><g clip-path="url(#id12)"><path fill="#44413b" d="M 157.953125 54 C 157.898438 54.011719 157.894531 54 157.929688 53.914062 C 157.980469 53.789062 157.984375 53.78125 158.003906 53.902344 C 158.015625 53.898438 158.011719 53.988281 157.953125 54 Z M 157.714844 52.441406 C 157.597656 52.609375 157.460938 53.167969 157.296875 53.242188 C 157.183594 53.289062 156.917969 53.75 156.535156 54.550781 C 155.976562 55.726562 155.976562 55.726562 156.289062 55.917969 C 156.554688 56.085938 156.609375 55.96875 156.675781 56.109375 C 156.730469 56.230469 156.90625 56.34375 157.050781 56.351562 C 157.105469 56.355469 157.226562 56.316406 157.3125 56.265625 C 157.46875 56.175781 157.472656 56.175781 157.519531 56.292969 C 157.664062 56.628906 157.976562 56.6875 158.152344 56.410156 L 158.25 56.257812 L 158.441406 56.332031 C 158.765625 56.453125 158.996094 56.355469 159.050781 56.070312 C 159.078125 55.910156 158.910156 55.054688 158.816406 54.882812 C 158.6875 54.644531 158.441406 53.003906 158.320312 52.859375 C 158.28125 52.8125 158.238281 52.714844 158.226562 52.644531 C 158.175781 52.375 157.851562 52.246094 157.714844 52.441406 " fill-opacity="1" fill-rule="nonzero"/></g></g></g><g clip-path="url(#id13)"><g clip-path="url(#id14)"><g clip-path="url(#id15)"><path fill="#ffffff" d="M 152.96875 32.542969 C 152.835938 32.757812 153.015625 33.039062 153.253906 32.996094 C 153.425781 32.964844 153.507812 32.847656 153.472656 32.6875 C 153.414062 32.417969 153.101562 32.328125 152.96875 32.542969 " fill-opacity="1" fill-rule="nonzero"/></g></g></g><g clip-path="url(#id16)"><g clip-path="url(#id17)"><g clip-path="url(#id18)"><path fill="#ffffff" d="M 150.949219 33.863281 C 150.734375 34.164062 150.703125 34.292969 150.808594 34.4375 C 150.863281 34.511719 150.921875 34.539062 151.019531 34.527344 C 151.179688 34.511719 151.183594 34.507812 151.394531 34.160156 C 151.566406 33.875 151.578125 33.722656 151.433594 33.628906 C 151.175781 33.453125 150.972656 33.859375 150.949219 33.863281 " fill-opacity="1" fill-rule="nonzero"/></g></g></g><g clip-path="url(#id19)"><g clip-path="url(#id20)"><g clip-path="url(#id21)"><path fill="#ffffff" d="M 146.328125 35.503906 C 146.140625 35.773438 146.507812 35.96875 146.65625 35.941406 C 146.90625 35.894531 146.933594 35.5625 146.695312 35.441406 C 146.402344 35.285156 146.355469 35.496094 146.328125 35.503906 " fill-opacity="1" fill-rule="nonzero"/></g></g></g><g clip-path="url(#id22)"><g clip-path="url(#id23)"><g clip-path="url(#id24)"><path fill="#ffffff" d="M 150.589844 36.34375 C 150.429688 36.527344 150.242188 36.507812 150.179688 36.699219 C 150.136719 36.816406 150.144531 36.832031 150.246094 36.929688 C 150.628906 37.28125 151.335938 36.527344 150.960938 36.273438 C 150.730469 36.113281 150.609375 36.339844 150.589844 36.34375 " fill-opacity="1" fill-rule="nonzero"/></g></g></g><g clip-path="url(#id25)"><g clip-path="url(#id26)"><g clip-path="url(#id27)"><path fill="#ffffff" d="M 167.152344 33.324219 C 167.042969 33.480469 167.054688 33.542969 167.203125 33.671875 C 167.289062 33.746094 167.351562 33.757812 167.476562 33.734375 C 167.953125 33.648438 167.589844 33.128906 167.332031 33.175781 C 167.238281 33.195312 167.164062 33.320312 167.152344 33.324219 " fill-opacity="1" fill-rule="nonzero"/></g></g></g><g clip-path="url(#id28)"><g clip-path="url(#id29)"><g clip-path="url(#id30)"><path fill="#ffffff" d="M 148.761719 37.996094 C 148.683594 38.117188 148.71875 38.363281 148.820312 38.449219 C 148.894531 38.507812 149.089844 38.492188 149.164062 38.421875 C 149.246094 38.339844 149.277344 38.160156 149.222656 38.039062 C 149.136719 37.832031 148.878906 37.804688 148.761719 37.996094 " fill-opacity="1" fill-rule="nonzero"/></g></g></g><g clip-path="url(#id31)"><g clip-path="url(#id32)"><g clip-path="url(#id33)"><path fill="#ffffff" d="M 164.375 35.179688 C 164.171875 35.34375 164.171875 35.558594 164.378906 35.667969 C 164.644531 35.808594 164.890625 35.648438 164.839844 35.367188 C 164.792969 35.121094 164.5625 35.027344 164.375 35.179688 " fill-opacity="1" fill-rule="nonzero"/></g></g></g><g clip-path="url(#id34)"><g clip-path="url(#id35)"><g clip-path="url(#id36)"><path fill="#ffffff" d="M 168.113281 36.160156 C 168.074219 36.28125 168.078125 36.296875 168.183594 36.394531 C 168.34375 36.542969 168.589844 36.515625 168.710938 36.339844 C 169.046875 35.851562 168.246094 35.773438 168.113281 36.160156 " fill-opacity="1" fill-rule="nonzero"/></g></g></g><g clip-path="url(#id37)"><g clip-path="url(#id38)"><g clip-path="url(#id39)"><path fill="#ffffff" d="M 151.871094 39.824219 C 151.824219 39.929688 151.828125 39.964844 151.898438 40.054688 C 152.199219 40.457031 152.828125 40.222656 152.769531 39.921875 C 152.730469 39.699219 152.695312 39.6875 152.0625 39.695312 C 151.859375 39.699219 151.898438 39.816406 151.871094 39.824219 " fill-opacity="1" fill-rule="nonzero"/></g></g></g><g clip-path="url(#id40)"><g clip-path="url(#id41)"><g clip-path="url(#id42)"><path fill="#ffffff" d="M 147.863281 40.683594 C 147.785156 40.808594 147.839844 41.113281 147.957031 41.234375 C 148.144531 41.433594 148.433594 41.410156 148.476562 41.191406 C 148.5 41.058594 148.308594 40.65625 148.191406 40.59375 C 148.074219 40.535156 147.929688 40.574219 147.863281 40.683594 " fill-opacity="1" fill-rule="nonzero"/></g></g></g><g clip-path="url(#id43)"><g clip-path="url(#id44)"><g clip-path="url(#id45)"><path fill="#ffffff" d="M 168.402344 38.855469 C 168.054688 39.09375 168.292969 39.503906 168.679688 39.328125 C 168.933594 39.210938 168.992188 38.867188 168.769531 38.769531 C 168.632812 38.707031 168.609375 38.710938 168.402344 38.855469 " fill-opacity="1" fill-rule="nonzero"/></g></g></g><g clip-path="url(#id46)"><g clip-path="url(#id47)"><g clip-path="url(#id48)"><path fill="#ffffff" d="M 148.796875 43.496094 C 148.71875 43.617188 148.761719 43.789062 148.882812 43.867188 C 149.097656 44 149.636719 43.851562 149.703125 43.640625 C 149.746094 43.503906 149.664062 43.34375 149.535156 43.320312 C 149.476562 43.308594 149.300781 43.324219 149.140625 43.351562 C 148.757812 43.417969 148.824219 43.488281 148.796875 43.496094 " fill-opacity="1" fill-rule="nonzero"/></g></g></g><g clip-path="url(#id49)"><g clip-path="url(#id50)"><g clip-path="url(#id51)"><path fill="#ffffff" d="M 165.820312 40.835938 C 165.472656 41.15625 165.921875 41.570312 166.207031 41.1875 C 166.320312 41.035156 166.300781 40.832031 166.160156 40.746094 C 165.957031 40.625 165.863281 40.824219 165.820312 40.835938 " fill-opacity="1" fill-rule="nonzero"/></g></g></g><g clip-path="url(#id52)"><g clip-path="url(#id53)"><g clip-path="url(#id54)"><path fill="#ffffff" d="M 151.054688 43.785156 C 150.921875 43.839844 150.878906 43.941406 150.925781 44.101562 C 150.980469 44.289062 151.140625 44.335938 151.441406 44.242188 C 151.695312 44.164062 151.777344 44.078125 151.75 43.917969 C 151.679688 43.539062 151.105469 43.777344 151.054688 43.785156 " fill-opacity="1" fill-rule="nonzero"/></g></g></g><g clip-path="url(#id55)"><g clip-path="url(#id56)"><g clip-path="url(#id57)"><path fill="#ffffff" d="M 169.59375 41.789062 C 169.703125 41.894531 169.898438 41.863281 169.980469 41.730469 C 170.074219 41.578125 170.054688 41.320312 169.941406 41.234375 C 169.789062 41.121094 169.609375 41.179688 169.535156 41.371094 C 169.570312 41.363281 169.378906 41.582031 169.59375 41.789062 " fill-opacity="1" fill-rule="nonzero"/></g></g></g><g clip-path="url(#id58)"><g clip-path="url(#id59)"><g clip-path="url(#id60)"><path fill="#ffffff" d="M 169.367188 43.023438 C 169.355469 43.191406 169.585938 43.355469 169.722656 43.285156 C 169.914062 43.191406 169.941406 42.902344 169.773438 42.785156 C 169.675781 42.71875 169.460938 42.75 169.410156 42.839844 C 169.421875 42.835938 169.378906 42.867188 169.367188 43.023438 " fill-opacity="1" fill-rule="nonzero"/></g></g></g><g clip-path="url(#id61)"><g clip-path="url(#id62)"><g clip-path="url(#id63)"><path fill="#ffffff" d="M 148.238281 47.535156 C 148.375 47.710938 148.429688 47.75 148.535156 47.746094 C 148.683594 47.734375 148.808594 47.59375 148.78125 47.464844 C 148.753906 47.324219 148.53125 46.980469 148.40625 46.882812 C 148.234375 46.746094 147.660156 46.78125 148.238281 47.535156 " fill-opacity="1" fill-rule="nonzero"/></g></g></g><g clip-path="url(#id64)"><g clip-path="url(#id65)"><g clip-path="url(#id66)"><path fill="#ffffff" d="M 166.925781 44.070312 C 167.046875 44.289062 167.355469 44.207031 167.414062 43.945312 C 167.460938 43.710938 167.433594 43.621094 167.285156 43.542969 C 167.132812 43.464844 167.125 43.464844 167.019531 43.554688 C 167.03125 43.550781 166.757812 43.769531 166.925781 44.070312 " fill-opacity="1" fill-rule="nonzero"/></g></g></g><g clip-path="url(#id67)"><g clip-path="url(#id68)"><g clip-path="url(#id69)"><path fill="#ffffff" d="M 150.523438 50.503906 C 150.4375 50.628906 150.445312 50.699219 150.574219 50.867188 C 150.691406 51.011719 150.75 51.046875 150.875 51.023438 C 151.109375 50.980469 151.125 50.605469 150.902344 50.453125 C 150.644531 50.277344 150.535156 50.5 150.523438 50.503906 " fill-opacity="1" fill-rule="nonzero"/></g></g></g><g clip-path="url(#id70)"><g clip-path="url(#id71)"><g clip-path="url(#id72)"><path fill="#ffffff" d="M 163.484375 48.164062 C 163.351562 48.355469 163.546875 48.621094 163.792969 48.574219 C 163.921875 48.550781 164.042969 48.371094 164.015625 48.238281 C 163.980469 48.035156 163.609375 47.980469 163.484375 48.164062 " fill-opacity="1" fill-rule="nonzero"/></g></g></g><g clip-path="url(#id73)"><g clip-path="url(#id74)"><g clip-path="url(#id75)"><path fill="#ffffff" d="M 166.902344 47.546875 C 166.765625 47.703125 166.820312 47.914062 167.011719 47.964844 C 167.179688 48.007812 167.414062 47.867188 167.457031 47.695312 C 167.53125 47.402344 167.128906 47.292969 166.902344 47.546875 " fill-opacity="1" fill-rule="nonzero"/></g></g></g><g clip-path="url(#id76)"><g clip-path="url(#id77)"><g clip-path="url(#id78)"><path fill="#ffffff" d="M 164.539062 51.023438 C 164.65625 51.039062 164.867188 50.875 164.890625 50.746094 C 164.917969 50.605469 164.828125 50.441406 164.714844 50.421875 C 164.203125 50.328125 164.089844 50.953125 164.539062 51.023438 " fill-opacity="1" fill-rule="nonzero"/></g></g></g><g clip-path="url(#id79)"><g clip-path="url(#id80)"><g clip-path="url(#id81)"><path fill="#ffffff" d="M 157.203125 38.835938 C 157.648438 38.90625 157.3125 39.007812 158.042969 38.933594 C 158.628906 38.871094 158.902344 38.917969 159.566406 39.199219 C 160.449219 39.574219 161.464844 40.339844 161.992188 41.023438 C 162.414062 41.570312 162.515625 41.851562 162.515625 42.480469 C 162.519531 43.199219 162.335938 43.695312 161.859375 44.273438 C 161.285156 44.964844 160.707031 45.28125 159.753906 45.425781 C 159.25 45.5 159.128906 45.503906 158.785156 45.445312 C 158.023438 45.320312 157.222656 45.136719 156.5 45.34375 C 156.121094 45.453125 155.441406 45.460938 155.101562 45.363281 C 154.75 45.261719 154.320312 44.878906 154.109375 44.480469 C 153.828125 43.9375 153.8125 43.050781 154.074219 42.324219 C 154.507812 41.128906 155.714844 39.472656 156.496094 39 C 156.914062 38.746094 157.214844 38.832031 157.203125 38.835938 Z M 156.472656 38.628906 C 156.277344 38.71875 155.816406 39.085938 155.53125 39.378906 C 155.398438 39.515625 155.089844 39.910156 154.839844 40.261719 C 153.898438 41.585938 153.339844 42.671875 153.648438 44.105469 C 153.78125 44.710938 153.894531 44.910156 154.339844 45.292969 C 154.925781 45.800781 155.234375 45.855469 156.492188 45.679688 C 157.515625 45.535156 157.316406 45.542969 158.292969 45.710938 C 160.113281 46.03125 161.597656 45.496094 162.523438 43.902344 C 162.9375 43.191406 162.964844 42 162.589844 41.28125 C 161.980469 40.128906 159.949219 38.726562 158.675781 38.578125 C 158.085938 38.507812 158.023438 38.730469 157.46875 38.574219 C 156.90625 38.417969 156.484375 38.625 156.472656 38.628906 " fill-opacity="1" fill-rule="nonzero"/></g></g></g><g clip-path="url(#id82)"><g clip-path="url(#id83)"><g clip-path="url(#id84)"><path fill="#44413b" d="M 157.167969 40.203125 C 156.847656 40.6875 154.753906 42.046875 155.054688 43.671875 C 155.121094 44.015625 155.222656 44.179688 155.460938 44.324219 C 155.679688 44.449219 155.878906 44.460938 156.226562 44.363281 C 157.1875 44.09375 157.71875 42.550781 157.71875 41.65625 C 157.714844 40.84375 157.773438 40.171875 157.5625 40.042969 C 157.417969 39.953125 157.300781 40 157.167969 40.203125 " fill-opacity="1" fill-rule="nonzero"/></g></g></g><g clip-path="url(#id85)"><g clip-path="url(#id86)"><g clip-path="url(#id87)"><path fill="#44413b" d="M 159.492188 41.226562 C 159.710938 42.40625 160.191406 43.109375 160.878906 43.253906 C 161.285156 43.34375 161.558594 43.160156 161.671875 42.734375 C 161.734375 42.492188 161.734375 42.417969 161.644531 41.964844 C 161.546875 41.433594 161.496094 41.078125 160.296875 40.257812 C 159.695312 39.84375 159.597656 39.816406 159.460938 40.035156 C 159.542969 40.019531 159.253906 39.917969 159.492188 41.226562 " fill-opacity="1" fill-rule="nonzero"/></g></g></g><g clip-path="url(#id88)"><g clip-path="url(#id89)"><g clip-path="url(#id90)"><path fill="#637937" d="M 173.59375 24.542969 C 173.539062 21.734375 173.289062 20.046875 171.433594 17.941406 C 170.722656 17.132812 170.15625 16.640625 169.371094 16.136719 C 168.28125 15.4375 167.644531 15.304688 166.242188 15.484375 C 165.460938 15.585938 165.191406 15.648438 164.839844 15.8125 C 164.558594 15.949219 164.507812 16.035156 164.441406 16.496094 C 164.226562 18.03125 164.871094 19.171875 165.867188 20.335938 C 168.328125 23.226562 171.035156 23.683594 172.28125 24.714844 C 172.828125 25.167969 173.027344 25.304688 173.175781 25.328125 C 173.351562 25.359375 173.492188 25.265625 173.550781 25.078125 C 173.617188 24.875 173.585938 24.660156 173.59375 24.542969 " fill-opacity="1" fill-rule="nonzero"/></g></g></g></svg>