<svg xmlns="http://www.w3.org/2000/svg" xmlns:xlink="http://www.w3.org/1999/xlink" width="300" zoomAndPan="magnify" viewBox="0 0 224.87999 89.999999" height="120" preserveAspectRatio="xMidYMid meet" version="1.0"><defs><g/><clipPath id="id1"><path d="M 131 23 L 175 23 L 175 66 L 131 66 Z M 131 23 " clip-rule="nonzero"/></clipPath><clipPath id="id2"><path d="M 130.269531 12.863281 L 173.71875 11.300781 L 175.632812 64.484375 L 132.183594 66.050781 Z M 130.269531 12.863281 " clip-rule="nonzero"/></clipPath><clipPath id="id3"><path d="M 130.269531 12.863281 L 173.71875 11.300781 L 175.632812 64.484375 L 132.183594 66.050781 Z M 130.269531 12.863281 " clip-rule="nonzero"/></clipPath><clipPath id="id4"><path d="M 155 11 L 167 11 L 167 32 L 155 32 Z M 155 11 " clip-rule="nonzero"/></clipPath><clipPath id="id5"><path d="M 130.269531 12.863281 L 173.71875 11.300781 L 175.632812 64.484375 L 132.183594 66.050781 Z M 130.269531 12.863281 " clip-rule="nonzero"/></clipPath><clipPath id="id6"><path d="M 130.269531 12.863281 L 173.71875 11.300781 L 175.632812 64.484375 L 132.183594 66.050781 Z M 130.269531 12.863281 " clip-rule="nonzero"/></clipPath><clipPath id="id7"><path d="M 134 26 L 173 26 L 173 64 L 134 64 Z M 134 26 " clip-rule="nonzero"/></clipPath><clipPath id="id8"><path d="M 130.269531 12.863281 L 173.71875 11.300781 L 175.632812 64.484375 L 132.183594 66.050781 Z M 130.269531 12.863281 " clip-rule="nonzero"/></clipPath><clipPath id="id9"><path d="M 130.269531 12.863281 L 173.71875 11.300781 L 175.632812 64.484375 L 132.183594 66.050781 Z M 130.269531 12.863281 " clip-rule="nonzero"/></clipPath><clipPath id="id10"><path d="M 147 59 L 152 59 L 152 65 L 147 65 Z M 147 59 " clip-rule="nonzero"/></clipPath><clipPath id="id11"><path d="M 130.269531 12.863281 L 173.71875 11.300781 L 175.632812 64.484375 L 132.183594 66.050781 Z M 130.269531 12.863281 " clip-rule="nonzero"/></clipPath><clipPath id="id12"><path d="M 130.269531 12.863281 L 173.71875 11.300781 L 175.632812 64.484375 L 132.183594 66.050781 Z M 130.269531 12.863281 " clip-rule="nonzero"/></clipPath><clipPath id="id13"><path d="M 148 31 L 149 31 L 149 33 L 148 33 Z M 148 31 " clip-rule="nonzero"/></clipPath><clipPath id="id14"><path d="M 130.269531 12.863281 L 173.71875 11.300781 L 175.632812 64.484375 L 132.183594 66.050781 Z M 130.269531 12.863281 " clip-rule="nonzero"/></clipPath><clipPath id="id15"><path d="M 130.269531 12.863281 L 173.71875 11.300781 L 175.632812 64.484375 L 132.183594 66.050781 Z M 130.269531 12.863281 " clip-rule="nonzero"/></clipPath><clipPath id="id16"><path d="M 145 32 L 147 32 L 147 34 L 145 34 Z M 145 32 " clip-rule="nonzero"/></clipPath><clipPath id="id17"><path d="M 130.269531 12.863281 L 173.71875 11.300781 L 175.632812 64.484375 L 132.183594 66.050781 Z M 130.269531 12.863281 " clip-rule="nonzero"/></clipPath><clipPath id="id18"><path d="M 130.269531 12.863281 L 173.71875 11.300781 L 175.632812 64.484375 L 132.183594 66.050781 Z M 130.269531 12.863281 " clip-rule="nonzero"/></clipPath><clipPath id="id19"><path d="M 138 33 L 140 33 L 140 35 L 138 35 Z M 138 33 " clip-rule="nonzero"/></clipPath><clipPath id="id20"><path d="M 130.269531 12.863281 L 173.71875 11.300781 L 175.632812 64.484375 L 132.183594 66.050781 Z M 130.269531 12.863281 " clip-rule="nonzero"/></clipPath><clipPath id="id21"><path d="M 130.269531 12.863281 L 173.71875 11.300781 L 175.632812 64.484375 L 132.183594 66.050781 Z M 130.269531 12.863281 " clip-rule="nonzero"/></clipPath><clipPath id="id22"><path d="M 143 35 L 146 35 L 146 37 L 143 37 Z M 143 35 " clip-rule="nonzero"/></clipPath><clipPath id="id23"><path d="M 130.269531 12.863281 L 173.71875 11.300781 L 175.632812 64.484375 L 132.183594 66.050781 Z M 130.269531 12.863281 " clip-rule="nonzero"/></clipPath><clipPath id="id24"><path d="M 130.269531 12.863281 L 173.71875 11.300781 L 175.632812 64.484375 L 132.183594 66.050781 Z M 130.269531 12.863281 " clip-rule="nonzero"/></clipPath><clipPath id="id25"><path d="M 166 35 L 168 35 L 168 36 L 166 36 Z M 166 35 " clip-rule="nonzero"/></clipPath><clipPath id="id26"><path d="M 130.269531 12.863281 L 173.71875 11.300781 L 175.632812 64.484375 L 132.183594 66.050781 Z M 130.269531 12.863281 " clip-rule="nonzero"/></clipPath><clipPath id="id27"><path d="M 130.269531 12.863281 L 173.71875 11.300781 L 175.632812 64.484375 L 132.183594 66.050781 Z M 130.269531 12.863281 " clip-rule="nonzero"/></clipPath><clipPath id="id28"><path d="M 141 37 L 143 37 L 143 39 L 141 39 Z M 141 37 " clip-rule="nonzero"/></clipPath><clipPath id="id29"><path d="M 130.269531 12.863281 L 173.71875 11.300781 L 175.632812 64.484375 L 132.183594 66.050781 Z M 130.269531 12.863281 " clip-rule="nonzero"/></clipPath><clipPath id="id30"><path d="M 130.269531 12.863281 L 173.71875 11.300781 L 175.632812 64.484375 L 132.183594 66.050781 Z M 130.269531 12.863281 " clip-rule="nonzero"/></clipPath><clipPath id="id31"><path d="M 162 37 L 164 37 L 164 39 L 162 39 Z M 162 37 " clip-rule="nonzero"/></clipPath><clipPath id="id32"><path d="M 130.269531 12.863281 L 173.71875 11.300781 L 175.632812 64.484375 L 132.183594 66.050781 Z M 130.269531 12.863281 " clip-rule="nonzero"/></clipPath><clipPath id="id33"><path d="M 130.269531 12.863281 L 173.71875 11.300781 L 175.632812 64.484375 L 132.183594 66.050781 Z M 130.269531 12.863281 " clip-rule="nonzero"/></clipPath><clipPath id="id34"><path d="M 167 39 L 169 39 L 169 40 L 167 40 Z M 167 39 " clip-rule="nonzero"/></clipPath><clipPath id="id35"><path d="M 130.269531 12.863281 L 173.71875 11.300781 L 175.632812 64.484375 L 132.183594 66.050781 Z M 130.269531 12.863281 " clip-rule="nonzero"/></clipPath><clipPath id="id36"><path d="M 130.269531 12.863281 L 173.71875 11.300781 L 175.632812 64.484375 L 132.183594 66.050781 Z M 130.269531 12.863281 " clip-rule="nonzero"/></clipPath><clipPath id="id37"><path d="M 145 40 L 147 40 L 147 42 L 145 42 Z M 145 40 " clip-rule="nonzero"/></clipPath><clipPath id="id38"><path d="M 130.269531 12.863281 L 173.71875 11.300781 L 175.632812 64.484375 L 132.183594 66.050781 Z M 130.269531 12.863281 " clip-rule="nonzero"/></clipPath><clipPath id="id39"><path d="M 130.269531 12.863281 L 173.71875 11.300781 L 175.632812 64.484375 L 132.183594 66.050781 Z M 130.269531 12.863281 " clip-rule="nonzero"/></clipPath><clipPath id="id40"><path d="M 139 41 L 141 41 L 141 43 L 139 43 Z M 139 41 " clip-rule="nonzero"/></clipPath><clipPath id="id41"><path d="M 130.269531 12.863281 L 173.71875 11.300781 L 175.632812 64.484375 L 132.183594 66.050781 Z M 130.269531 12.863281 " clip-rule="nonzero"/></clipPath><clipPath id="id42"><path d="M 130.269531 12.863281 L 173.71875 11.300781 L 175.632812 64.484375 L 132.183594 66.050781 Z M 130.269531 12.863281 " clip-rule="nonzero"/></clipPath><clipPath id="id43"><path d="M 167 42 L 169 42 L 169 44 L 167 44 Z M 167 42 " clip-rule="nonzero"/></clipPath><clipPath id="id44"><path d="M 130.269531 12.863281 L 173.71875 11.300781 L 175.632812 64.484375 L 132.183594 66.050781 Z M 130.269531 12.863281 " clip-rule="nonzero"/></clipPath><clipPath id="id45"><path d="M 130.269531 12.863281 L 173.71875 11.300781 L 175.632812 64.484375 L 132.183594 66.050781 Z M 130.269531 12.863281 " clip-rule="nonzero"/></clipPath><clipPath id="id46"><path d="M 140 45 L 142 45 L 142 47 L 140 47 Z M 140 45 " clip-rule="nonzero"/></clipPath><clipPath id="id47"><path d="M 130.269531 12.863281 L 173.71875 11.300781 L 175.632812 64.484375 L 132.183594 66.050781 Z M 130.269531 12.863281 " clip-rule="nonzero"/></clipPath><clipPath id="id48"><path d="M 130.269531 12.863281 L 173.71875 11.300781 L 175.632812 64.484375 L 132.183594 66.050781 Z M 130.269531 12.863281 " clip-rule="nonzero"/></clipPath><clipPath id="id49"><path d="M 163 45 L 165 45 L 165 46 L 163 46 Z M 163 45 " clip-rule="nonzero"/></clipPath><clipPath id="id50"><path d="M 130.269531 12.863281 L 173.71875 11.300781 L 175.632812 64.484375 L 132.183594 66.050781 Z M 130.269531 12.863281 " clip-rule="nonzero"/></clipPath><clipPath id="id51"><path d="M 130.269531 12.863281 L 173.71875 11.300781 L 175.632812 64.484375 L 132.183594 66.050781 Z M 130.269531 12.863281 " clip-rule="nonzero"/></clipPath><clipPath id="id52"><path d="M 143 46 L 145 46 L 145 47 L 143 47 Z M 143 46 " clip-rule="nonzero"/></clipPath><clipPath id="id53"><path d="M 130.269531 12.863281 L 173.71875 11.300781 L 175.632812 64.484375 L 132.183594 66.050781 Z M 130.269531 12.863281 " clip-rule="nonzero"/></clipPath><clipPath id="id54"><path d="M 130.269531 12.863281 L 173.71875 11.300781 L 175.632812 64.484375 L 132.183594 66.050781 Z M 130.269531 12.863281 " clip-rule="nonzero"/></clipPath><clipPath id="id55"><path d="M 168 46 L 170 46 L 170 48 L 168 48 Z M 168 46 " clip-rule="nonzero"/></clipPath><clipPath id="id56"><path d="M 130.269531 12.863281 L 173.71875 11.300781 L 175.632812 64.484375 L 132.183594 66.050781 Z M 130.269531 12.863281 " clip-rule="nonzero"/></clipPath><clipPath id="id57"><path d="M 130.269531 12.863281 L 173.71875 11.300781 L 175.632812 64.484375 L 132.183594 66.050781 Z M 130.269531 12.863281 " clip-rule="nonzero"/></clipPath><clipPath id="id58"><path d="M 168 48 L 169 48 L 169 50 L 168 50 Z M 168 48 " clip-rule="nonzero"/></clipPath><clipPath id="id59"><path d="M 130.269531 12.863281 L 173.71875 11.300781 L 175.632812 64.484375 L 132.183594 66.050781 Z M 130.269531 12.863281 " clip-rule="nonzero"/></clipPath><clipPath id="id60"><path d="M 130.269531 12.863281 L 173.71875 11.300781 L 175.632812 64.484375 L 132.183594 66.050781 Z M 130.269531 12.863281 " clip-rule="nonzero"/></clipPath><clipPath id="id61"><path d="M 138 49 L 140 49 L 140 52 L 138 52 Z M 138 49 " clip-rule="nonzero"/></clipPath><clipPath id="id62"><path d="M 130.269531 12.863281 L 173.71875 11.300781 L 175.632812 64.484375 L 132.183594 66.050781 Z M 130.269531 12.863281 " clip-rule="nonzero"/></clipPath><clipPath id="id63"><path d="M 130.269531 12.863281 L 173.71875 11.300781 L 175.632812 64.484375 L 132.183594 66.050781 Z M 130.269531 12.863281 " clip-rule="nonzero"/></clipPath><clipPath id="id64"><path d="M 164 49 L 166 49 L 166 51 L 164 51 Z M 164 49 " clip-rule="nonzero"/></clipPath><clipPath id="id65"><path d="M 130.269531 12.863281 L 173.71875 11.300781 L 175.632812 64.484375 L 132.183594 66.050781 Z M 130.269531 12.863281 " clip-rule="nonzero"/></clipPath><clipPath id="id66"><path d="M 130.269531 12.863281 L 173.71875 11.300781 L 175.632812 64.484375 L 132.183594 66.050781 Z M 130.269531 12.863281 " clip-rule="nonzero"/></clipPath><clipPath id="id67"><path d="M 141 55 L 143 55 L 143 56 L 141 56 Z M 141 55 " clip-rule="nonzero"/></clipPath><clipPath id="id68"><path d="M 130.269531 12.863281 L 173.71875 11.300781 L 175.632812 64.484375 L 132.183594 66.050781 Z M 130.269531 12.863281 " clip-rule="nonzero"/></clipPath><clipPath id="id69"><path d="M 130.269531 12.863281 L 173.71875 11.300781 L 175.632812 64.484375 L 132.183594 66.050781 Z M 130.269531 12.863281 " clip-rule="nonzero"/></clipPath><clipPath id="id70"><path d="M 159 54 L 160 54 L 160 56 L 159 56 Z M 159 54 " clip-rule="nonzero"/></clipPath><clipPath id="id71"><path d="M 130.269531 12.863281 L 173.71875 11.300781 L 175.632812 64.484375 L 132.183594 66.050781 Z M 130.269531 12.863281 " clip-rule="nonzero"/></clipPath><clipPath id="id72"><path d="M 130.269531 12.863281 L 173.71875 11.300781 L 175.632812 64.484375 L 132.183594 66.050781 Z M 130.269531 12.863281 " clip-rule="nonzero"/></clipPath><clipPath id="id73"><path d="M 163 54 L 165 54 L 165 56 L 163 56 Z M 163 54 " clip-rule="nonzero"/></clipPath><clipPath id="id74"><path d="M 130.269531 12.863281 L 173.71875 11.300781 L 175.632812 64.484375 L 132.183594 66.050781 Z M 130.269531 12.863281 " clip-rule="nonzero"/></clipPath><clipPath id="id75"><path d="M 130.269531 12.863281 L 173.71875 11.300781 L 175.632812 64.484375 L 132.183594 66.050781 Z M 130.269531 12.863281 " clip-rule="nonzero"/></clipPath><clipPath id="id76"><path d="M 159 57 L 161 57 L 161 59 L 159 59 Z M 159 57 " clip-rule="nonzero"/></clipPath><clipPath id="id77"><path d="M 130.269531 12.863281 L 173.71875 11.300781 L 175.632812 64.484375 L 132.183594 66.050781 Z M 130.269531 12.863281 " clip-rule="nonzero"/></clipPath><clipPath id="id78"><path d="M 130.269531 12.863281 L 173.71875 11.300781 L 175.632812 64.484375 L 132.183594 66.050781 Z M 130.269531 12.863281 " clip-rule="nonzero"/></clipPath><clipPath id="id79"><path d="M 146 40 L 160 40 L 160 51 L 146 51 Z M 146 40 " clip-rule="nonzero"/></clipPath><clipPath id="id80"><path d="M 130.269531 12.863281 L 173.71875 11.300781 L 175.632812 64.484375 L 132.183594 66.050781 Z M 130.269531 12.863281 " clip-rule="nonzero"/></clipPath><clipPath id="id81"><path d="M 130.269531 12.863281 L 173.71875 11.300781 L 175.632812 64.484375 L 132.183594 66.050781 Z M 130.269531 12.863281 " clip-rule="nonzero"/></clipPath><clipPath id="id82"><path d="M 148 42 L 154 42 L 154 49 L 148 49 Z M 148 42 " clip-rule="nonzero"/></clipPath><clipPath id="id83"><path d="M 130.269531 12.863281 L 173.71875 11.300781 L 175.632812 64.484375 L 132.183594 66.050781 Z M 130.269531 12.863281 " clip-rule="nonzero"/></clipPath><clipPath id="id84"><path d="M 130.269531 12.863281 L 173.71875 11.300781 L 175.632812 64.484375 L 132.183594 66.050781 Z M 130.269531 12.863281 " clip-rule="nonzero"/></clipPath><clipPath id="id85"><path d="M 155 42 L 159 42 L 159 48 L 155 48 Z M 155 42 " clip-rule="nonzero"/></clipPath><clipPath id="id86"><path d="M 130.269531 12.863281 L 173.71875 11.300781 L 175.632812 64.484375 L 132.183594 66.050781 Z M 130.269531 12.863281 " clip-rule="nonzero"/></clipPath><clipPath id="id87"><path d="M 130.269531 12.863281 L 173.71875 11.300781 L 175.632812 64.484375 L 132.183594 66.050781 Z M 130.269531 12.863281 " clip-rule="nonzero"/></clipPath><clipPath id="id88"><path d="M 166 10 L 181 10 L 181 27 L 166 27 Z M 166 10 " clip-rule="nonzero"/></clipPath><clipPath id="id89"><path d="M 181.410156 11.148438 L 180.632812 26.121094 L 165.660156 25.34375 L 166.4375 10.371094 Z M 181.410156 11.148438 " clip-rule="nonzero"/></clipPath><clipPath id="id90"><path d="M 181.410156 11.148438 L 180.632812 26.121094 L 165.660156 25.34375 L 166.4375 10.371094 Z M 181.410156 11.148438 " clip-rule="nonzero"/></clipPath></defs><g fill="#637937" fill-opacity="1"><g transform="translate(7.701493, 54.744799)"><g><path d="M 6.101562 -17.097656 L 6.101562 0 L 8.925781 0 L 8.925781 -17.097656 L 14.832031 -17.097656 L 14.832031 -19.785156 L 0.167969 -19.785156 L 0.167969 -17.097656 Z M 6.101562 -17.097656 "/></g></g></g><g fill="#637937" fill-opacity="1"><g transform="translate(22.727429, 54.744799)"><g><path d="M 16.957031 -8.226562 C 16.648438 -12.984375 12.957031 -15.363281 9.207031 -15.363281 C 5.203125 -15.363281 1.34375 -12.761719 1.34375 -7.554688 C 1.34375 -2.351562 5.261719 0.28125 9.148438 0.28125 C 12.257812 0.28125 15.363281 -1.371094 16.507812 -4.671875 L 13.683594 -4.671875 C 12.789062 -2.964844 11.054688 -2.15625 9.179688 -2.15625 C 6.910156 -2.15625 4.085938 -3.945312 4.085938 -6.910156 L 16.902344 -6.910156 C 16.957031 -7.164062 16.984375 -7.445312 16.984375 -7.75 C 16.984375 -7.917969 16.984375 -8.058594 16.957031 -8.226562 Z M 14.074219 -9.179688 L 4.199219 -9.179688 C 4.757812 -11.863281 6.996094 -12.957031 9.207031 -12.957031 C 11.390625 -12.957031 13.542969 -11.894531 14.074219 -9.179688 Z M 14.074219 -9.179688 "/></g></g></g><g fill="#637937" fill-opacity="1"><g transform="translate(41.195054, 54.744799)"><g><path d="M 1.929688 -19.027344 C 1.929688 -17.964844 2.796875 -17.433594 3.636719 -17.433594 C 4.503906 -17.433594 5.34375 -17.964844 5.34375 -19.027344 C 5.34375 -20.089844 4.503906 -20.59375 3.664062 -20.59375 C 2.796875 -20.59375 1.929688 -20.0625 1.929688 -19.027344 Z M 2.265625 -15.304688 L 5.007812 -15.304688 L 5.007812 0 L 2.265625 0 Z M 2.265625 -15.304688 "/></g></g></g><g fill="#637937" fill-opacity="1"><g transform="translate(48.722005, 54.744799)"><g><path d="M 2.097656 0 L 4.839844 0 L 4.839844 -19.585938 L 2.097656 -19.585938 Z M 2.097656 0 "/></g></g></g><g fill="#637937" fill-opacity="1"><g transform="translate(55.661351, 54.744799)"><g/></g></g><g fill="#637937" fill-opacity="1"><g transform="translate(62.628687, 54.744799)"><g><path d="M 16.984375 -19.585938 L 14.242188 -19.585938 L 14.242188 -13.179688 C 12.929688 -14.96875 11.023438 -15.390625 9.148438 -15.390625 C 4.03125 -15.390625 1.121094 -11.976562 1.121094 -7.640625 C 1.121094 -3.132812 3.890625 0.25 9.179688 0.25 C 11.082031 0.222656 13.152344 -0.390625 14.242188 -2.042969 L 14.242188 0 L 16.984375 0 Z M 14.242188 -7.582031 C 14.242188 -3.945312 11.695312 -2.183594 9.121094 -2.183594 C 5.792969 -2.183594 3.863281 -4.476562 3.863281 -7.582031 C 3.863281 -10.296875 5.792969 -12.984375 9.148438 -12.984375 C 11.695312 -12.984375 14.242188 -11.191406 14.242188 -7.582031 Z M 14.242188 -7.582031 "/></g></g></g><g fill="#637937" fill-opacity="1"><g transform="translate(81.767859, 54.744799)"><g><path d="M 16.957031 -8.226562 C 16.648438 -12.984375 12.957031 -15.363281 9.207031 -15.363281 C 5.203125 -15.363281 1.34375 -12.761719 1.34375 -7.554688 C 1.34375 -2.351562 5.261719 0.28125 9.148438 0.28125 C 12.257812 0.28125 15.363281 -1.371094 16.507812 -4.671875 L 13.683594 -4.671875 C 12.789062 -2.964844 11.054688 -2.15625 9.179688 -2.15625 C 6.910156 -2.15625 4.085938 -3.945312 4.085938 -6.910156 L 16.902344 -6.910156 C 16.957031 -7.164062 16.984375 -7.445312 16.984375 -7.75 C 16.984375 -7.917969 16.984375 -8.058594 16.957031 -8.226562 Z M 14.074219 -9.179688 L 4.199219 -9.179688 C 4.757812 -11.863281 6.996094 -12.957031 9.207031 -12.957031 C 11.390625 -12.957031 13.542969 -11.894531 14.074219 -9.179688 Z M 14.074219 -9.179688 "/></g></g></g><g fill="#637937" fill-opacity="1"><g transform="translate(100.235485, 54.744799)"><g><path d="M 1.929688 -19.027344 C 1.929688 -17.964844 2.796875 -17.433594 3.636719 -17.433594 C 4.503906 -17.433594 5.34375 -17.964844 5.34375 -19.027344 C 5.34375 -20.089844 4.503906 -20.59375 3.664062 -20.59375 C 2.796875 -20.59375 1.929688 -20.0625 1.929688 -19.027344 Z M 2.265625 -15.304688 L 5.007812 -15.304688 L 5.007812 0 L 2.265625 0 Z M 2.265625 -15.304688 "/></g></g></g><g fill="#637937" fill-opacity="1"><g transform="translate(107.762435, 54.744799)"><g><path d="M 4.839844 -13.265625 L 4.839844 -15.136719 L 2.097656 -15.136719 L 2.097656 0 L 4.839844 0 L 4.839844 -8.226562 C 4.839844 -10.855469 6.40625 -12.929688 9.289062 -12.929688 C 12.59375 -12.929688 13.347656 -10.96875 13.347656 -8.113281 L 13.347656 0 L 16.0625 0 L 16.0625 -8.144531 C 16.0625 -12.480469 14.101562 -15.363281 9.484375 -15.363281 C 7.582031 -15.363281 5.960938 -14.886719 4.839844 -13.265625 Z M 4.839844 -13.265625 "/></g></g></g><g fill="#c64f40" fill-opacity="1"><g transform="translate(175.844314, 54.744799)"><g><path d="M 4.925781 -13.179688 L 4.925781 -19.585938 L 2.183594 -19.585938 L 2.183594 0 L 4.925781 0 L 4.925781 -2.042969 C 6.015625 -0.390625 8.085938 0.222656 9.960938 0.25 C 15.25 0.25 17.796875 -3.46875 17.796875 -7.640625 C 17.796875 -11.726562 15.136719 -15.390625 10.019531 -15.390625 C 8.144531 -15.390625 6.238281 -14.96875 4.925781 -13.179688 Z M 4.925781 -7.582031 C 4.925781 -11.191406 7.472656 -12.984375 10.019531 -12.984375 C 13.375 -12.984375 15.054688 -10.296875 15.054688 -7.582031 C 15.054688 -4.839844 13.347656 -2.183594 9.988281 -2.183594 C 7.472656 -2.183594 4.925781 -3.945312 4.925781 -7.582031 Z M 4.925781 -7.582031 "/></g></g></g><g fill="#c64f40" fill-opacity="1"><g transform="translate(194.899544, 54.744799)"><g><path d="M 4 -10.773438 C 4 -12.339844 5.570312 -12.984375 7.246094 -12.984375 C 8.898438 -12.984375 10.324219 -12.339844 10.464844 -10.996094 L 13.179688 -10.996094 C 12.984375 -14.160156 10.324219 -15.445312 7.332031 -15.445312 C 4.394531 -15.445312 1.289062 -14.214844 1.289062 -10.71875 C 1.289062 -7.332031 4.503906 -6.492188 7.21875 -6.378906 C 8.535156 -6.324219 10.886719 -6.042969 10.886719 -4.367188 C 10.886719 -2.574219 8.730469 -2.125 7.359375 -2.125 C 5.484375 -2.125 3.917969 -2.964844 3.804688 -4.644531 L 1.0625 -4.644531 C 1.257812 -1.0625 4.167969 0.25 7.304688 0.25 C 10.15625 0.25 13.628906 -0.785156 13.628906 -4.308594 C 13.628906 -7.75 10.382812 -8.648438 7.527344 -8.84375 C 6.183594 -8.925781 4 -8.871094 4 -10.773438 Z M 4 -10.773438 "/></g></g></g><g fill="#c64f40" fill-opacity="1"><g transform="translate(209.477773, 54.744799)"><g><path d="M 5.679688 -15.136719 L 5.679688 -18.496094 L 2.9375 -17.964844 L 2.9375 -15.136719 L 0.671875 -15.136719 L 0.671875 -12.957031 L 2.9375 -12.957031 L 2.9375 -4.449219 C 2.9375 -0.921875 4.867188 0.0820312 7.835938 0.0820312 C 8.226562 0.0820312 8.648438 0.0546875 9.09375 0.0273438 L 9.09375 -2.265625 C 8.675781 -2.238281 8.28125 -2.210938 7.945312 -2.210938 C 6.574219 -2.210938 5.679688 -2.628906 5.679688 -4.421875 L 5.679688 -12.957031 L 9.011719 -12.957031 L 9.011719 -15.136719 Z M 5.679688 -15.136719 "/></g></g></g><g clip-path="url(#id1)"><g clip-path="url(#id2)"><g clip-path="url(#id3)"><path fill="#c64f40" d="M 144.5625 23.4375 C 136.972656 24.644531 133.058594 33.835938 131.957031 41.460938 C 131.433594 45.070312 131.792969 48.191406 133.164062 51.984375 C 133.863281 53.910156 134.4375 54.824219 136.605469 57.460938 C 141.433594 63.339844 145.730469 62.484375 148.476562 63.273438 C 149.726562 63.628906 150.054688 63.652344 151.496094 64.042969 C 153.277344 64.523438 152.980469 64.449219 156.675781 65.066406 C 159.921875 64.949219 160.730469 64.957031 162.011719 64.605469 C 164.019531 64.058594 165.957031 63.074219 167.476562 61.59375 C 168.191406 60.898438 169.75 59.097656 170.167969 58.488281 C 171.921875 55.917969 174.097656 50.382812 174.617188 45.640625 C 174.832031 43.6875 174.777344 40.550781 174.507812 39.144531 C 174.15625 37.335938 173.535156 35.558594 172.710938 34.015625 C 170.898438 30.632812 169.59375 28.136719 165.894531 26.425781 C 164.460938 25.761719 163.542969 25.625 160.148438 25.570312 C 156.328125 25.507812 157.308594 24.945312 154.398438 24.464844 C 152.410156 24.136719 151.566406 23.550781 150.085938 23.359375 C 149.585938 23.292969 146.300781 23.160156 144.5625 23.4375 " fill-opacity="1" fill-rule="nonzero"/></g></g></g><g clip-path="url(#id4)"><g clip-path="url(#id5)"><g clip-path="url(#id6)"><path fill="#44413b" d="M 166.207031 11.929688 C 166.128906 12 165.945312 12.296875 165.800781 12.597656 C 164.746094 14.773438 162.851562 15.464844 158.574219 21.992188 C 156.53125 25.113281 156.375 26.082031 155.328125 30.753906 C 155.191406 31.355469 155.21875 31.515625 155.457031 31.507812 C 155.679688 31.5 155.890625 31.191406 156.058594 30.636719 C 156.417969 29.429688 156.949219 28.09375 157.796875 26.261719 C 160.082031 21.3125 161.605469 19.832031 164.820312 15.683594 C 166.941406 12.949219 166.972656 13.191406 166.96875 12.503906 C 166.96875 12.242188 166.9375 12.175781 166.761719 12 C 166.386719 11.636719 166.257812 11.929688 166.207031 11.929688 " fill-opacity="1" fill-rule="nonzero"/></g></g></g><g clip-path="url(#id7)"><g clip-path="url(#id8)"><g clip-path="url(#id9)"><path fill="#fcddd0" d="M 146.492188 26.21875 C 144.84375 26.535156 142.414062 27.519531 141.09375 28.414062 C 137.796875 30.636719 135.277344 34.316406 134.632812 40.792969 C 134.535156 41.757812 134.628906 45.996094 134.769531 47.222656 C 135.375 52.359375 138.542969 57.695312 143.160156 59.75 C 144.03125 60.136719 144.492188 60.488281 145.519531 60.679688 C 146.121094 60.792969 147.28125 60.707031 147.957031 60.503906 C 149.066406 60.171875 149.964844 59.457031 150.960938 58.121094 L 151.640625 57.210938 C 151.808594 59.238281 151.734375 59.183594 152.574219 60.601562 C 153.019531 61.351562 153.109375 61.46875 153.6875 61.984375 C 154.980469 63.148438 155.59375 63.320312 158.203125 63.226562 C 159.523438 63.175781 160.074219 63.097656 161.070312 62.8125 C 164.4375 61.839844 166.546875 60.101562 168.882812 56.371094 C 169.363281 55.597656 170.1875 53.929688 170.546875 52.992188 C 171.097656 51.550781 171.746094 48.414062 172.035156 45.765625 C 172.128906 44.894531 172.410156 40.121094 171.953125 38.332031 C 171.644531 37.117188 171.453125 36.589844 171.019531 35.777344 C 169.480469 32.875 166.398438 30.160156 164.261719 29.175781 L 163.628906 28.882812 C 162.550781 28.894531 161.953125 28.878906 161.4375 29.007812 C 160.957031 29.128906 159.710938 29.691406 159.261719 29.988281 C 158.574219 30.445312 157.746094 31.160156 157.210938 31.769531 C 156.257812 32.839844 156.042969 33.152344 155.335938 34.46875 C 155.058594 34.984375 154.96875 35.050781 154.957031 34.742188 C 154.949219 34.511719 154.5625 32.644531 154.433594 31.953125 C 154.316406 31.335938 153.484375 29.601562 152.75 28.453125 C 152.308594 27.765625 151.878906 27.320312 151.273438 26.925781 C 150.691406 26.550781 149.769531 26.144531 149.347656 26.082031 C 148.539062 25.957031 146.507812 26.21875 146.492188 26.21875 " fill-opacity="1" fill-rule="nonzero"/></g></g></g><g clip-path="url(#id10)"><g clip-path="url(#id11)"><g clip-path="url(#id12)"><path fill="#44413b" d="M 150.710938 61.429688 C 150.632812 61.433594 150.628906 61.414062 150.691406 61.308594 C 150.785156 61.152344 150.792969 61.140625 150.796875 61.304688 C 150.8125 61.304688 150.789062 61.425781 150.710938 61.429688 Z M 150.703125 59.273438 C 150.511719 59.476562 150.21875 60.207031 149.980469 60.269531 C 149.824219 60.316406 149.375 60.882812 148.710938 61.882812 C 147.726562 63.359375 147.726562 63.359375 148.105469 63.683594 C 148.429688 63.960938 148.523438 63.816406 148.582031 64.015625 C 148.632812 64.195312 148.847656 64.382812 149.039062 64.421875 C 149.113281 64.4375 149.28125 64.410156 149.402344 64.359375 C 149.628906 64.269531 149.632812 64.269531 149.675781 64.441406 C 149.800781 64.921875 150.203125 65.0625 150.496094 64.722656 L 150.65625 64.539062 L 150.894531 64.675781 C 151.304688 64.90625 151.632812 64.820312 151.761719 64.445312 C 151.828125 64.238281 151.777344 63.046875 151.6875 62.792969 C 151.5625 62.449219 151.558594 60.1875 151.425781 59.964844 C 151.382812 59.894531 151.34375 59.753906 151.339844 59.65625 C 151.328125 59.28125 150.921875 59.039062 150.703125 59.273438 " fill-opacity="1" fill-rule="nonzero"/></g></g></g><g clip-path="url(#id13)"><g clip-path="url(#id14)"><g clip-path="url(#id15)"><path fill="#ffffff" d="M 148.316406 31.453125 C 148.097656 31.710938 148.28125 32.128906 148.609375 32.117188 C 148.84375 32.109375 148.976562 31.96875 148.960938 31.746094 C 148.9375 31.371094 148.535156 31.1875 148.316406 31.453125 " fill-opacity="1" fill-rule="nonzero"/></g></g></g><g clip-path="url(#id16)"><g clip-path="url(#id17)"><g clip-path="url(#id18)"><path fill="#ffffff" d="M 145.355469 32.824219 C 145.015625 33.1875 144.949219 33.355469 145.058594 33.570312 C 145.117188 33.683594 145.1875 33.734375 145.320312 33.738281 C 145.535156 33.75 145.542969 33.742188 145.894531 33.316406 C 146.179688 32.964844 146.222656 32.765625 146.054688 32.605469 C 145.742188 32.316406 145.394531 32.824219 145.355469 32.824219 " fill-opacity="1" fill-rule="nonzero"/></g></g></g><g clip-path="url(#id19)"><g clip-path="url(#id20)"><g clip-path="url(#id21)"><path fill="#ffffff" d="M 138.867188 34.105469 C 138.566406 34.433594 139.015625 34.769531 139.21875 34.765625 C 139.5625 34.75 139.664062 34.308594 139.371094 34.09375 C 139.011719 33.828125 138.90625 34.105469 138.867188 34.105469 " fill-opacity="1" fill-rule="nonzero"/></g></g></g><g clip-path="url(#id22)"><g clip-path="url(#id23)"><g clip-path="url(#id24)"><path fill="#ffffff" d="M 144.386719 36.105469 C 144.136719 36.320312 143.890625 36.253906 143.769531 36.496094 C 143.691406 36.648438 143.695312 36.671875 143.816406 36.824219 C 144.253906 37.375 145.347656 36.503906 144.894531 36.082031 C 144.621094 35.820312 144.414062 36.101562 144.386719 36.105469 " fill-opacity="1" fill-rule="nonzero"/></g></g></g><g clip-path="url(#id25)"><g clip-path="url(#id26)"><g clip-path="url(#id27)"><path fill="#ffffff" d="M 167.085938 35.367188 C 166.910156 35.558594 166.910156 35.648438 167.082031 35.847656 C 167.179688 35.964844 167.261719 35.996094 167.433594 35.992188 C 168.089844 35.96875 167.707031 35.195312 167.355469 35.207031 C 167.226562 35.214844 167.097656 35.367188 167.085938 35.367188 " fill-opacity="1" fill-rule="nonzero"/></g></g></g><g clip-path="url(#id28)"><g clip-path="url(#id29)"><g clip-path="url(#id30)"><path fill="#ffffff" d="M 141.621094 37.960938 C 141.496094 38.109375 141.488281 38.453125 141.609375 38.585938 C 141.695312 38.683594 141.960938 38.703125 142.074219 38.621094 C 142.199219 38.527344 142.273438 38.289062 142.230469 38.113281 C 142.152344 37.816406 141.8125 37.730469 141.621094 37.960938 " fill-opacity="1" fill-rule="nonzero"/></g></g></g><g clip-path="url(#id31)"><g clip-path="url(#id32)"><g clip-path="url(#id33)"><path fill="#ffffff" d="M 163.007812 37.316406 C 162.707031 37.496094 162.664062 37.789062 162.917969 37.972656 C 163.246094 38.214844 163.609375 38.050781 163.59375 37.664062 C 163.582031 37.320312 163.289062 37.148438 163.007812 37.316406 " fill-opacity="1" fill-rule="nonzero"/></g></g></g><g clip-path="url(#id34)"><g clip-path="url(#id35)"><g clip-path="url(#id36)"><path fill="#ffffff" d="M 167.804688 39.394531 C 167.730469 39.550781 167.730469 39.574219 167.851562 39.722656 C 168.035156 39.953125 168.367188 39.96875 168.566406 39.757812 C 169.109375 39.164062 168.054688 38.898438 167.804688 39.394531 " fill-opacity="1" fill-rule="nonzero"/></g></g></g><g clip-path="url(#id37)"><g clip-path="url(#id38)"><g clip-path="url(#id39)"><path fill="#ffffff" d="M 145.40625 41.058594 C 145.324219 41.195312 145.320312 41.242188 145.394531 41.375 C 145.71875 41.980469 146.601562 41.789062 146.585938 41.375 C 146.574219 41.066406 146.535156 41.042969 145.6875 40.925781 C 145.414062 40.886719 145.441406 41.058594 145.40625 41.058594 " fill-opacity="1" fill-rule="nonzero"/></g></g></g><g clip-path="url(#id40)"><g clip-path="url(#id41)"><g clip-path="url(#id42)"><path fill="#ffffff" d="M 139.890625 41.414062 C 139.761719 41.566406 139.769531 41.984375 139.90625 42.175781 C 140.117188 42.480469 140.507812 42.503906 140.605469 42.21875 C 140.664062 42.042969 140.488281 41.460938 140.34375 41.355469 C 140.203125 41.25 140 41.277344 139.890625 41.414062 " fill-opacity="1" fill-rule="nonzero"/></g></g></g><g clip-path="url(#id43)"><g clip-path="url(#id44)"><g clip-path="url(#id45)"><path fill="#ffffff" d="M 167.65625 43.089844 C 167.140625 43.34375 167.382812 43.945312 167.933594 43.785156 C 168.292969 43.679688 168.4375 43.226562 168.164062 43.046875 C 167.992188 42.9375 167.957031 42.941406 167.65625 43.089844 " fill-opacity="1" fill-rule="nonzero"/></g></g></g><g clip-path="url(#id46)"><g clip-path="url(#id47)"><g clip-path="url(#id48)"><path fill="#ffffff" d="M 140.574219 45.394531 C 140.449219 45.542969 140.46875 45.785156 140.617188 45.914062 C 140.878906 46.136719 141.628906 46.046875 141.757812 45.773438 C 141.84375 45.597656 141.761719 45.363281 141.597656 45.308594 C 141.519531 45.28125 141.28125 45.265625 141.0625 45.269531 C 140.539062 45.285156 140.613281 45.394531 140.574219 45.394531 " fill-opacity="1" fill-rule="nonzero"/></g></g></g><g clip-path="url(#id49)"><g clip-path="url(#id50)"><g clip-path="url(#id51)"><path fill="#ffffff" d="M 163.816406 45.242188 C 163.292969 45.605469 163.808594 46.253906 164.265625 45.796875 C 164.445312 45.613281 164.457031 45.335938 164.289062 45.195312 C 164.039062 44.984375 163.878906 45.238281 163.816406 45.242188 " fill-opacity="1" fill-rule="nonzero"/></g></g></g><g clip-path="url(#id52)"><g clip-path="url(#id53)"><g clip-path="url(#id54)"><path fill="#ffffff" d="M 143.53125 46.246094 C 143.34375 46.289062 143.269531 46.421875 143.296875 46.644531 C 143.332031 46.910156 143.535156 47.003906 143.957031 46.9375 C 144.3125 46.882812 144.4375 46.78125 144.429688 46.5625 C 144.414062 46.035156 143.601562 46.242188 143.53125 46.246094 " fill-opacity="1" fill-rule="nonzero"/></g></g></g><g clip-path="url(#id55)"><g clip-path="url(#id56)"><g clip-path="url(#id57)"><path fill="#ffffff" d="M 168.660156 47.292969 C 168.785156 47.457031 169.054688 47.457031 169.191406 47.292969 C 169.347656 47.105469 169.367188 46.753906 169.234375 46.613281 C 169.054688 46.429688 168.800781 46.472656 168.667969 46.714844 C 168.714844 46.714844 168.417969 46.96875 168.660156 47.292969 " fill-opacity="1" fill-rule="nonzero"/></g></g></g><g clip-path="url(#id58)"><g clip-path="url(#id59)"><g clip-path="url(#id60)"><path fill="#ffffff" d="M 168.117188 48.914062 C 168.066406 49.136719 168.339844 49.410156 168.539062 49.339844 C 168.808594 49.25 168.90625 48.863281 168.703125 48.675781 C 168.585938 48.5625 168.292969 48.5625 168.207031 48.675781 C 168.222656 48.671875 168.160156 48.707031 168.117188 48.914062 " fill-opacity="1" fill-rule="nonzero"/></g></g></g><g clip-path="url(#id61)"><g clip-path="url(#id62)"><g clip-path="url(#id63)"><path fill="#ffffff" d="M 139.03125 50.738281 C 139.175781 51.003906 139.242188 51.066406 139.382812 51.078125 C 139.582031 51.097656 139.777344 50.933594 139.769531 50.75 C 139.761719 50.558594 139.53125 50.046875 139.386719 49.890625 C 139.179688 49.671875 138.410156 49.601562 139.03125 50.738281 " fill-opacity="1" fill-rule="nonzero"/></g></g></g><g clip-path="url(#id64)"><g clip-path="url(#id65)"><g clip-path="url(#id66)"><path fill="#ffffff" d="M 164.648438 49.832031 C 164.765625 50.152344 165.195312 50.105469 165.324219 49.761719 C 165.4375 49.457031 165.417969 49.332031 165.234375 49.195312 C 165.046875 49.058594 165.035156 49.058594 164.878906 49.15625 C 164.894531 49.15625 164.484375 49.390625 164.648438 49.832031 " fill-opacity="1" fill-rule="nonzero"/></g></g></g><g clip-path="url(#id67)"><g clip-path="url(#id68)"><g clip-path="url(#id69)"><path fill="#ffffff" d="M 141.488281 55.207031 C 141.347656 55.359375 141.347656 55.457031 141.488281 55.707031 C 141.613281 55.929688 141.6875 55.984375 141.855469 55.980469 C 142.175781 55.972656 142.273438 55.46875 142.003906 55.214844 C 141.695312 54.925781 141.503906 55.207031 141.488281 55.207031 " fill-opacity="1" fill-rule="nonzero"/></g></g></g><g clip-path="url(#id70)"><g clip-path="url(#id71)"><g clip-path="url(#id72)"><path fill="#ffffff" d="M 159.246094 54.664062 C 159.027344 54.898438 159.242188 55.292969 159.578125 55.28125 C 159.753906 55.277344 159.949219 55.0625 159.941406 54.875 C 159.929688 54.59375 159.449219 54.445312 159.246094 54.664062 " fill-opacity="1" fill-rule="nonzero"/></g></g></g><g clip-path="url(#id73)"><g clip-path="url(#id74)"><g clip-path="url(#id75)"><path fill="#ffffff" d="M 163.929688 54.523438 C 163.71875 54.707031 163.75 55.003906 163.992188 55.109375 C 164.207031 55.203125 164.550781 55.058594 164.640625 54.832031 C 164.792969 54.453125 164.28125 54.226562 163.929688 54.523438 " fill-opacity="1" fill-rule="nonzero"/></g></g></g><g clip-path="url(#id76)"><g clip-path="url(#id77)"><g clip-path="url(#id78)"><path fill="#ffffff" d="M 160.085938 58.738281 C 160.238281 58.789062 160.554688 58.605469 160.609375 58.4375 C 160.675781 58.25 160.589844 58.011719 160.441406 57.960938 C 159.773438 57.730469 159.5 58.558594 160.085938 58.738281 " fill-opacity="1" fill-rule="nonzero"/></g></g></g><g clip-path="url(#id79)"><g clip-path="url(#id80)"><g clip-path="url(#id81)"><path fill="#ffffff" d="M 152.71875 40.800781 C 153.296875 40.988281 152.828125 41.058594 153.816406 41.101562 C 154.613281 41.136719 154.964844 41.257812 155.796875 41.773438 C 156.898438 42.453125 158.105469 43.691406 158.671875 44.722656 C 159.125 45.546875 159.207031 45.945312 159.082031 46.796875 C 158.945312 47.765625 158.601562 48.398438 157.847656 49.082031 C 156.949219 49.898438 156.113281 50.210938 154.8125 50.214844 C 154.125 50.214844 153.964844 50.195312 153.511719 50.046875 C 152.523438 49.722656 151.496094 49.3125 150.484375 49.445312 C 149.960938 49.515625 149.050781 49.390625 148.613281 49.191406 C 148.167969 48.984375 147.671875 48.378906 147.46875 47.796875 C 147.199219 47.007812 147.355469 45.808594 147.851562 44.882812 C 148.664062 43.355469 150.601562 41.363281 151.742188 40.882812 C 152.351562 40.625 152.730469 40.800781 152.71875 40.800781 Z M 151.785156 40.375 C 151.503906 40.457031 150.816406 40.859375 150.378906 41.199219 C 150.175781 41.355469 149.683594 41.824219 149.28125 42.25 C 147.761719 43.847656 146.796875 45.203125 146.925781 47.199219 C 146.984375 48.046875 147.09375 48.335938 147.613281 48.941406 C 148.296875 49.746094 148.695312 49.882812 150.410156 49.898438 C 151.804688 49.914062 151.539062 49.878906 152.808594 50.308594 C 155.167969 51.101562 157.257812 50.683594 158.8125 48.71875 C 159.503906 47.84375 159.777344 46.238281 159.414062 45.191406 C 158.835938 43.515625 156.402344 41.210938 154.730469 40.75 C 153.960938 40.539062 153.832031 40.824219 153.125 40.503906 C 152.402344 40.179688 151.800781 40.375 151.785156 40.375 " fill-opacity="1" fill-rule="nonzero"/></g></g></g><g clip-path="url(#id82)"><g clip-path="url(#id83)"><g clip-path="url(#id84)"><path fill="#44413b" d="M 152.398438 42.640625 C 151.875 43.230469 148.8125 44.640625 148.894531 46.894531 C 148.910156 47.375 149.015625 47.617188 149.304688 47.859375 C 149.566406 48.074219 149.832031 48.128906 150.316406 48.070312 C 151.652344 47.898438 152.667969 45.921875 152.84375 44.714844 C 153.003906 43.617188 153.210938 42.71875 152.957031 42.503906 C 152.78125 42.355469 152.617188 42.394531 152.398438 42.640625 " fill-opacity="1" fill-rule="nonzero"/></g></g></g><g clip-path="url(#id85)"><g clip-path="url(#id86)"><g clip-path="url(#id87)"><path fill="#44413b" d="M 155.300781 44.492188 C 155.355469 46.132812 155.855469 47.175781 156.746094 47.511719 C 157.265625 47.710938 157.667969 47.523438 157.902344 46.972656 C 158.039062 46.652344 158.050781 46.550781 158.023438 45.921875 C 157.996094 45.183594 157.996094 44.699219 156.5625 43.347656 C 155.84375 42.667969 155.71875 42.613281 155.488281 42.878906 C 155.605469 42.871094 155.238281 42.679688 155.300781 44.492188 " fill-opacity="1" fill-rule="nonzero"/></g></g></g><g clip-path="url(#id88)"><g clip-path="url(#id89)"><g clip-path="url(#id90)"><path fill="#637937" d="M 180.621094 24.847656 C 180.535156 20.527344 180.152344 17.929688 177.296875 14.6875 C 176.203125 13.445312 175.335938 12.6875 174.128906 11.914062 C 172.449219 10.839844 171.472656 10.636719 169.316406 10.910156 C 168.117188 11.066406 167.703125 11.160156 167.160156 11.417969 C 166.726562 11.625 166.648438 11.757812 166.550781 12.46875 C 166.21875 14.828125 167.210938 16.585938 168.738281 18.378906 C 172.527344 22.820312 176.6875 23.523438 178.605469 25.109375 C 179.445312 25.804688 179.75 26.019531 179.976562 26.054688 C 180.25 26.101562 180.464844 25.957031 180.558594 25.671875 C 180.660156 25.359375 180.609375 25.027344 180.621094 24.847656 " fill-opacity="1" fill-rule="nonzero"/></g></g></g></svg>