<svg xmlns="http://www.w3.org/2000/svg" xmlns:xlink="http://www.w3.org/1999/xlink" width="300" zoomAndPan="magnify" viewBox="0 0 224.87999 89.999999" height="120" preserveAspectRatio="xMidYMid meet" version="1.0"><defs><g/><clipPath id="id1"><path d="M 115 18 L 177 18 L 177 77 L 115 77 Z M 115 18 " clip-rule="nonzero"/></clipPath><clipPath id="id2"><path d="M 111.875 4.875 L 173.152344 0.0507812 L 179.035156 74.78125 L 117.757812 79.601562 Z M 111.875 4.875 " clip-rule="nonzero"/></clipPath><clipPath id="id3"><path d="M 111.875 4.875 L 173.152344 0.0507812 L 179.035156 74.78125 L 117.757812 79.601562 Z M 111.875 4.875 " clip-rule="nonzero"/></clipPath><clipPath id="id4"><path d="M 148 1 L 164 1 L 164 30 L 148 30 Z M 148 1 " clip-rule="nonzero"/></clipPath><clipPath id="id5"><path d="M 111.875 4.875 L 173.152344 0.0507812 L 179.035156 74.78125 L 117.757812 79.601562 Z M 111.875 4.875 " clip-rule="nonzero"/></clipPath><clipPath id="id6"><path d="M 111.875 4.875 L 173.152344 0.0507812 L 179.035156 74.78125 L 117.757812 79.601562 Z M 111.875 4.875 " clip-rule="nonzero"/></clipPath><clipPath id="id7"><path d="M 119 22 L 173 22 L 173 75 L 119 75 Z M 119 22 " clip-rule="nonzero"/></clipPath><clipPath id="id8"><path d="M 111.875 4.875 L 173.152344 0.0507812 L 179.035156 74.78125 L 117.757812 79.601562 Z M 111.875 4.875 " clip-rule="nonzero"/></clipPath><clipPath id="id9"><path d="M 111.875 4.875 L 173.152344 0.0507812 L 179.035156 74.78125 L 117.757812 79.601562 Z M 111.875 4.875 " clip-rule="nonzero"/></clipPath><clipPath id="id10"><path d="M 139 68 L 146 68 L 146 77 L 139 77 Z M 139 68 " clip-rule="nonzero"/></clipPath><clipPath id="id11"><path d="M 111.875 4.875 L 173.152344 0.0507812 L 179.035156 74.78125 L 117.757812 79.601562 Z M 111.875 4.875 " clip-rule="nonzero"/></clipPath><clipPath id="id12"><path d="M 111.875 4.875 L 173.152344 0.0507812 L 179.035156 74.78125 L 117.757812 79.601562 Z M 111.875 4.875 " clip-rule="nonzero"/></clipPath><clipPath id="id13"><path d="M 138 29 L 140 29 L 140 31 L 138 31 Z M 138 29 " clip-rule="nonzero"/></clipPath><clipPath id="id14"><path d="M 111.875 4.875 L 173.152344 0.0507812 L 179.035156 74.78125 L 117.757812 79.601562 Z M 111.875 4.875 " clip-rule="nonzero"/></clipPath><clipPath id="id15"><path d="M 111.875 4.875 L 173.152344 0.0507812 L 179.035156 74.78125 L 117.757812 79.601562 Z M 111.875 4.875 " clip-rule="nonzero"/></clipPath><clipPath id="id16"><path d="M 133 31 L 136 31 L 136 34 L 133 34 Z M 133 31 " clip-rule="nonzero"/></clipPath><clipPath id="id17"><path d="M 111.875 4.875 L 173.152344 0.0507812 L 179.035156 74.78125 L 117.757812 79.601562 Z M 111.875 4.875 " clip-rule="nonzero"/></clipPath><clipPath id="id18"><path d="M 111.875 4.875 L 173.152344 0.0507812 L 179.035156 74.78125 L 117.757812 79.601562 Z M 111.875 4.875 " clip-rule="nonzero"/></clipPath><clipPath id="id19"><path d="M 125 34 L 127 34 L 127 36 L 125 36 Z M 125 34 " clip-rule="nonzero"/></clipPath><clipPath id="id20"><path d="M 111.875 4.875 L 173.152344 0.0507812 L 179.035156 74.78125 L 117.757812 79.601562 Z M 111.875 4.875 " clip-rule="nonzero"/></clipPath><clipPath id="id21"><path d="M 111.875 4.875 L 173.152344 0.0507812 L 179.035156 74.78125 L 117.757812 79.601562 Z M 111.875 4.875 " clip-rule="nonzero"/></clipPath><clipPath id="id22"><path d="M 132 36 L 135 36 L 135 38 L 132 38 Z M 132 36 " clip-rule="nonzero"/></clipPath><clipPath id="id23"><path d="M 111.875 4.875 L 173.152344 0.0507812 L 179.035156 74.78125 L 117.757812 79.601562 Z M 111.875 4.875 " clip-rule="nonzero"/></clipPath><clipPath id="id24"><path d="M 111.875 4.875 L 173.152344 0.0507812 L 179.035156 74.78125 L 117.757812 79.601562 Z M 111.875 4.875 " clip-rule="nonzero"/></clipPath><clipPath id="id25"><path d="M 165 34 L 167 34 L 167 36 L 165 36 Z M 165 34 " clip-rule="nonzero"/></clipPath><clipPath id="id26"><path d="M 111.875 4.875 L 173.152344 0.0507812 L 179.035156 74.78125 L 117.757812 79.601562 Z M 111.875 4.875 " clip-rule="nonzero"/></clipPath><clipPath id="id27"><path d="M 111.875 4.875 L 173.152344 0.0507812 L 179.035156 74.78125 L 117.757812 79.601562 Z M 111.875 4.875 " clip-rule="nonzero"/></clipPath><clipPath id="id28"><path d="M 129 39 L 131 39 L 131 41 L 129 41 Z M 129 39 " clip-rule="nonzero"/></clipPath><clipPath id="id29"><path d="M 111.875 4.875 L 173.152344 0.0507812 L 179.035156 74.78125 L 117.757812 79.601562 Z M 111.875 4.875 " clip-rule="nonzero"/></clipPath><clipPath id="id30"><path d="M 111.875 4.875 L 173.152344 0.0507812 L 179.035156 74.78125 L 117.757812 79.601562 Z M 111.875 4.875 " clip-rule="nonzero"/></clipPath><clipPath id="id31"><path d="M 159 37 L 161 37 L 161 39 L 159 39 Z M 159 37 " clip-rule="nonzero"/></clipPath><clipPath id="id32"><path d="M 111.875 4.875 L 173.152344 0.0507812 L 179.035156 74.78125 L 117.757812 79.601562 Z M 111.875 4.875 " clip-rule="nonzero"/></clipPath><clipPath id="id33"><path d="M 111.875 4.875 L 173.152344 0.0507812 L 179.035156 74.78125 L 117.757812 79.601562 Z M 111.875 4.875 " clip-rule="nonzero"/></clipPath><clipPath id="id34"><path d="M 166 39 L 168 39 L 168 41 L 166 41 Z M 166 39 " clip-rule="nonzero"/></clipPath><clipPath id="id35"><path d="M 111.875 4.875 L 173.152344 0.0507812 L 179.035156 74.78125 L 117.757812 79.601562 Z M 111.875 4.875 " clip-rule="nonzero"/></clipPath><clipPath id="id36"><path d="M 111.875 4.875 L 173.152344 0.0507812 L 179.035156 74.78125 L 117.757812 79.601562 Z M 111.875 4.875 " clip-rule="nonzero"/></clipPath><clipPath id="id37"><path d="M 134 43 L 137 43 L 137 45 L 134 45 Z M 134 43 " clip-rule="nonzero"/></clipPath><clipPath id="id38"><path d="M 111.875 4.875 L 173.152344 0.0507812 L 179.035156 74.78125 L 117.757812 79.601562 Z M 111.875 4.875 " clip-rule="nonzero"/></clipPath><clipPath id="id39"><path d="M 111.875 4.875 L 173.152344 0.0507812 L 179.035156 74.78125 L 117.757812 79.601562 Z M 111.875 4.875 " clip-rule="nonzero"/></clipPath><clipPath id="id40"><path d="M 127 44 L 129 44 L 129 46 L 127 46 Z M 127 44 " clip-rule="nonzero"/></clipPath><clipPath id="id41"><path d="M 111.875 4.875 L 173.152344 0.0507812 L 179.035156 74.78125 L 117.757812 79.601562 Z M 111.875 4.875 " clip-rule="nonzero"/></clipPath><clipPath id="id42"><path d="M 111.875 4.875 L 173.152344 0.0507812 L 179.035156 74.78125 L 117.757812 79.601562 Z M 111.875 4.875 " clip-rule="nonzero"/></clipPath><clipPath id="id43"><path d="M 166 44 L 168 44 L 168 47 L 166 47 Z M 166 44 " clip-rule="nonzero"/></clipPath><clipPath id="id44"><path d="M 111.875 4.875 L 173.152344 0.0507812 L 179.035156 74.78125 L 117.757812 79.601562 Z M 111.875 4.875 " clip-rule="nonzero"/></clipPath><clipPath id="id45"><path d="M 111.875 4.875 L 173.152344 0.0507812 L 179.035156 74.78125 L 117.757812 79.601562 Z M 111.875 4.875 " clip-rule="nonzero"/></clipPath><clipPath id="id46"><path d="M 128 49 L 131 49 L 131 51 L 128 51 Z M 128 49 " clip-rule="nonzero"/></clipPath><clipPath id="id47"><path d="M 111.875 4.875 L 173.152344 0.0507812 L 179.035156 74.78125 L 117.757812 79.601562 Z M 111.875 4.875 " clip-rule="nonzero"/></clipPath><clipPath id="id48"><path d="M 111.875 4.875 L 173.152344 0.0507812 L 179.035156 74.78125 L 117.757812 79.601562 Z M 111.875 4.875 " clip-rule="nonzero"/></clipPath><clipPath id="id49"><path d="M 160 48 L 163 48 L 163 50 L 160 50 Z M 160 48 " clip-rule="nonzero"/></clipPath><clipPath id="id50"><path d="M 111.875 4.875 L 173.152344 0.0507812 L 179.035156 74.78125 L 117.757812 79.601562 Z M 111.875 4.875 " clip-rule="nonzero"/></clipPath><clipPath id="id51"><path d="M 111.875 4.875 L 173.152344 0.0507812 L 179.035156 74.78125 L 117.757812 79.601562 Z M 111.875 4.875 " clip-rule="nonzero"/></clipPath><clipPath id="id52"><path d="M 132 50 L 134 50 L 134 53 L 132 53 Z M 132 50 " clip-rule="nonzero"/></clipPath><clipPath id="id53"><path d="M 111.875 4.875 L 173.152344 0.0507812 L 179.035156 74.78125 L 117.757812 79.601562 Z M 111.875 4.875 " clip-rule="nonzero"/></clipPath><clipPath id="id54"><path d="M 111.875 4.875 L 173.152344 0.0507812 L 179.035156 74.78125 L 117.757812 79.601562 Z M 111.875 4.875 " clip-rule="nonzero"/></clipPath><clipPath id="id55"><path d="M 168 49 L 170 49 L 170 52 L 168 52 Z M 168 49 " clip-rule="nonzero"/></clipPath><clipPath id="id56"><path d="M 111.875 4.875 L 173.152344 0.0507812 L 179.035156 74.78125 L 117.757812 79.601562 Z M 111.875 4.875 " clip-rule="nonzero"/></clipPath><clipPath id="id57"><path d="M 111.875 4.875 L 173.152344 0.0507812 L 179.035156 74.78125 L 117.757812 79.601562 Z M 111.875 4.875 " clip-rule="nonzero"/></clipPath><clipPath id="id58"><path d="M 167 52 L 169 52 L 169 54 L 167 54 Z M 167 52 " clip-rule="nonzero"/></clipPath><clipPath id="id59"><path d="M 111.875 4.875 L 173.152344 0.0507812 L 179.035156 74.78125 L 117.757812 79.601562 Z M 111.875 4.875 " clip-rule="nonzero"/></clipPath><clipPath id="id60"><path d="M 111.875 4.875 L 173.152344 0.0507812 L 179.035156 74.78125 L 117.757812 79.601562 Z M 111.875 4.875 " clip-rule="nonzero"/></clipPath><clipPath id="id61"><path d="M 126 56 L 128 56 L 128 59 L 126 59 Z M 126 56 " clip-rule="nonzero"/></clipPath><clipPath id="id62"><path d="M 111.875 4.875 L 173.152344 0.0507812 L 179.035156 74.78125 L 117.757812 79.601562 Z M 111.875 4.875 " clip-rule="nonzero"/></clipPath><clipPath id="id63"><path d="M 111.875 4.875 L 173.152344 0.0507812 L 179.035156 74.78125 L 117.757812 79.601562 Z M 111.875 4.875 " clip-rule="nonzero"/></clipPath><clipPath id="id64"><path d="M 162 53 L 164 53 L 164 56 L 162 56 Z M 162 53 " clip-rule="nonzero"/></clipPath><clipPath id="id65"><path d="M 111.875 4.875 L 173.152344 0.0507812 L 179.035156 74.78125 L 117.757812 79.601562 Z M 111.875 4.875 " clip-rule="nonzero"/></clipPath><clipPath id="id66"><path d="M 111.875 4.875 L 173.152344 0.0507812 L 179.035156 74.78125 L 117.757812 79.601562 Z M 111.875 4.875 " clip-rule="nonzero"/></clipPath><clipPath id="id67"><path d="M 130 63 L 132 63 L 132 65 L 130 65 Z M 130 63 " clip-rule="nonzero"/></clipPath><clipPath id="id68"><path d="M 111.875 4.875 L 173.152344 0.0507812 L 179.035156 74.78125 L 117.757812 79.601562 Z M 111.875 4.875 " clip-rule="nonzero"/></clipPath><clipPath id="id69"><path d="M 111.875 4.875 L 173.152344 0.0507812 L 179.035156 74.78125 L 117.757812 79.601562 Z M 111.875 4.875 " clip-rule="nonzero"/></clipPath><clipPath id="id70"><path d="M 155 61 L 157 61 L 157 63 L 155 63 Z M 155 61 " clip-rule="nonzero"/></clipPath><clipPath id="id71"><path d="M 111.875 4.875 L 173.152344 0.0507812 L 179.035156 74.78125 L 117.757812 79.601562 Z M 111.875 4.875 " clip-rule="nonzero"/></clipPath><clipPath id="id72"><path d="M 111.875 4.875 L 173.152344 0.0507812 L 179.035156 74.78125 L 117.757812 79.601562 Z M 111.875 4.875 " clip-rule="nonzero"/></clipPath><clipPath id="id73"><path d="M 161 61 L 163 61 L 163 63 L 161 63 Z M 161 61 " clip-rule="nonzero"/></clipPath><clipPath id="id74"><path d="M 111.875 4.875 L 173.152344 0.0507812 L 179.035156 74.78125 L 117.757812 79.601562 Z M 111.875 4.875 " clip-rule="nonzero"/></clipPath><clipPath id="id75"><path d="M 111.875 4.875 L 173.152344 0.0507812 L 179.035156 74.78125 L 117.757812 79.601562 Z M 111.875 4.875 " clip-rule="nonzero"/></clipPath><clipPath id="id76"><path d="M 156 66 L 158 66 L 158 68 L 156 68 Z M 156 66 " clip-rule="nonzero"/></clipPath><clipPath id="id77"><path d="M 111.875 4.875 L 173.152344 0.0507812 L 179.035156 74.78125 L 117.757812 79.601562 Z M 111.875 4.875 " clip-rule="nonzero"/></clipPath><clipPath id="id78"><path d="M 111.875 4.875 L 173.152344 0.0507812 L 179.035156 74.78125 L 117.757812 79.601562 Z M 111.875 4.875 " clip-rule="nonzero"/></clipPath><clipPath id="id79"><path d="M 137 42 L 156 42 L 156 57 L 137 57 Z M 137 42 " clip-rule="nonzero"/></clipPath><clipPath id="id80"><path d="M 111.875 4.875 L 173.152344 0.0507812 L 179.035156 74.78125 L 117.757812 79.601562 Z M 111.875 4.875 " clip-rule="nonzero"/></clipPath><clipPath id="id81"><path d="M 111.875 4.875 L 173.152344 0.0507812 L 179.035156 74.78125 L 117.757812 79.601562 Z M 111.875 4.875 " clip-rule="nonzero"/></clipPath><clipPath id="id82"><path d="M 140 45 L 146 45 L 146 54 L 140 54 Z M 140 45 " clip-rule="nonzero"/></clipPath><clipPath id="id83"><path d="M 111.875 4.875 L 173.152344 0.0507812 L 179.035156 74.78125 L 117.757812 79.601562 Z M 111.875 4.875 " clip-rule="nonzero"/></clipPath><clipPath id="id84"><path d="M 111.875 4.875 L 173.152344 0.0507812 L 179.035156 74.78125 L 117.757812 79.601562 Z M 111.875 4.875 " clip-rule="nonzero"/></clipPath><clipPath id="id85"><path d="M 149 45 L 154 45 L 154 53 L 149 53 Z M 149 45 " clip-rule="nonzero"/></clipPath><clipPath id="id86"><path d="M 111.875 4.875 L 173.152344 0.0507812 L 179.035156 74.78125 L 117.757812 79.601562 Z M 111.875 4.875 " clip-rule="nonzero"/></clipPath><clipPath id="id87"><path d="M 111.875 4.875 L 173.152344 0.0507812 L 179.035156 74.78125 L 117.757812 79.601562 Z M 111.875 4.875 " clip-rule="nonzero"/></clipPath><clipPath id="id88"><path d="M 162 0.0234375 L 179 0.0234375 L 179 19 L 162 19 Z M 162 0.0234375 " clip-rule="nonzero"/></clipPath><clipPath id="id89"><path d="M 179.378906 0.921875 L 178.484375 18.140625 L 161.269531 17.25 L 162.160156 0.03125 Z M 179.378906 0.921875 " clip-rule="nonzero"/></clipPath><clipPath id="id90"><path d="M 179.378906 0.921875 L 178.484375 18.140625 L 161.269531 17.25 L 162.160156 0.03125 Z M 179.378906 0.921875 " clip-rule="nonzero"/></clipPath></defs><g clip-path="url(#id1)"><g clip-path="url(#id2)"><g clip-path="url(#id3)"><path fill="rgb(77.648926%, 30.979919%, 25.099182%)" d="M 132.699219 18.886719 C 122.046875 21.039062 117.070312 34.21875 115.964844 45.015625 C 115.445312 50.128906 116.136719 54.5 118.304688 59.753906 C 119.40625 62.421875 120.269531 63.671875 123.488281 67.257812 C 130.660156 75.242188 136.675781 73.78125 140.605469 74.71875 C 142.390625 75.144531 142.859375 75.160156 144.914062 75.621094 C 147.464844 76.191406 147.035156 76.105469 152.292969 76.75 C 156.875 76.390625 158.011719 76.351562 159.804688 75.78125 C 162.605469 74.890625 165.285156 73.386719 167.34375 71.210938 C 168.308594 70.1875 170.40625 67.558594 170.957031 66.675781 C 173.28125 62.953125 176.027344 55.03125 176.476562 48.324219 C 176.660156 45.566406 176.398438 41.152344 175.929688 39.1875 C 175.332031 36.660156 174.347656 34.199219 173.085938 32.078125 C 170.328125 27.425781 168.335938 23.992188 163.007812 21.804688 C 160.945312 20.960938 159.636719 20.820312 154.839844 20.949219 C 149.441406 21.089844 150.792969 20.238281 146.652344 19.738281 C 143.824219 19.398438 142.597656 18.625 140.496094 18.441406 C 139.78125 18.378906 135.136719 18.390625 132.699219 18.886719 " fill-opacity="1" fill-rule="nonzero"/></g></g></g><g clip-path="url(#id4)"><g clip-path="url(#id5)"><g clip-path="url(#id6)"><path fill="rgb(26.669312%, 25.489807%, 23.139954%)" d="M 162.582031 1.382812 C 162.472656 1.484375 162.234375 1.914062 162.046875 2.34375 C 160.6875 5.476562 158.054688 6.558594 152.402344 16.007812 C 149.703125 20.519531 149.542969 21.898438 148.339844 28.535156 C 148.183594 29.390625 148.230469 29.613281 148.570312 29.589844 C 148.882812 29.5625 149.164062 29.117188 149.363281 28.324219 C 149.804688 26.605469 150.472656 24.695312 151.558594 22.0625 C 154.492188 14.957031 156.554688 12.78125 160.847656 6.753906 C 163.679688 2.769531 163.742188 3.113281 163.691406 2.144531 C 163.675781 1.777344 163.628906 1.683594 163.367188 1.449219 C 162.816406 0.957031 162.652344 1.378906 162.582031 1.382812 " fill-opacity="1" fill-rule="nonzero"/></g></g></g><g clip-path="url(#id7)"><g clip-path="url(#id8)"><g clip-path="url(#id9)"><path fill="rgb(98.81897%, 86.669922%, 81.568909%)" d="M 135.589844 22.6875 C 133.28125 23.230469 129.90625 24.765625 128.09375 26.101562 C 123.570312 29.429688 120.230469 34.761719 119.707031 43.914062 C 119.628906 45.277344 120.011719 51.238281 120.289062 52.957031 C 121.445312 60.152344 126.242188 67.46875 132.882812 70.082031 C 134.140625 70.574219 134.808594 71.042969 136.273438 71.25 C 137.132812 71.371094 138.765625 71.183594 139.707031 70.855469 C 141.25 70.316406 142.476562 69.257812 143.808594 67.316406 L 144.714844 65.996094 C 145.070312 68.84375 144.964844 68.765625 146.234375 70.710938 C 146.90625 71.746094 147.042969 71.902344 147.886719 72.597656 C 149.785156 74.15625 150.664062 74.355469 154.339844 74.066406 C 156.207031 73.921875 156.980469 73.773438 158.363281 73.3125 C 163.066406 71.742188 165.9375 69.167969 169.015625 63.773438 C 169.652344 62.65625 170.714844 60.257812 171.164062 58.917969 C 171.859375 56.859375 172.582031 52.402344 172.835938 48.660156 C 172.917969 47.425781 173.03125 40.6875 172.277344 38.199219 C 171.765625 36.507812 171.464844 35.78125 170.804688 34.65625 C 168.460938 30.664062 163.941406 27.03125 160.867188 25.773438 L 159.949219 25.402344 C 158.429688 25.480469 157.585938 25.496094 156.867188 25.710938 C 156.191406 25.910156 154.464844 26.773438 153.851562 27.21875 C 152.90625 27.902344 151.78125 28.964844 151.058594 29.851562 C 149.78125 31.417969 149.496094 31.867188 148.574219 33.761719 C 148.214844 34.507812 148.085938 34.605469 148.054688 34.167969 C 148.027344 33.847656 147.371094 31.242188 147.148438 30.28125 C 146.949219 29.414062 145.667969 27.023438 144.5625 25.453125 C 143.898438 24.507812 143.265625 23.910156 142.382812 23.394531 C 141.539062 22.898438 140.214844 22.382812 139.613281 22.320312 C 138.464844 22.195312 135.613281 22.683594 135.589844 22.6875 " fill-opacity="1" fill-rule="nonzero"/></g></g></g><g clip-path="url(#id10)"><g clip-path="url(#id11)"><g clip-path="url(#id12)"><path fill="rgb(26.669312%, 25.489807%, 23.139954%)" d="M 143.652344 71.992188 C 143.539062 72 143.535156 71.976562 143.617188 71.824219 C 143.742188 71.59375 143.75 71.582031 143.765625 71.8125 C 143.785156 71.8125 143.761719 71.984375 143.652344 71.992188 Z M 143.511719 68.957031 C 143.253906 69.257812 142.882812 70.300781 142.550781 70.40625 C 142.332031 70.476562 141.730469 71.304688 140.851562 72.753906 C 139.554688 74.886719 139.554688 74.886719 140.105469 75.320312 C 140.582031 75.695312 140.707031 75.480469 140.800781 75.761719 C 140.882812 76.007812 141.195312 76.261719 141.464844 76.304688 C 141.574219 76.324219 141.808594 76.273438 141.980469 76.195312 C 142.292969 76.054688 142.300781 76.054688 142.371094 76.292969 C 142.574219 76.960938 143.152344 77.132812 143.546875 76.640625 L 143.761719 76.371094 L 144.105469 76.546875 C 144.699219 76.847656 145.15625 76.707031 145.3125 76.175781 C 145.398438 75.875 145.253906 74.203125 145.113281 73.855469 C 144.914062 73.375 144.777344 70.191406 144.574219 69.886719 C 144.507812 69.789062 144.445312 69.59375 144.433594 69.457031 C 144.394531 68.929688 143.804688 68.613281 143.511719 68.957031 " fill-opacity="1" fill-rule="nonzero"/></g></g></g><g clip-path="url(#id13)"><g clip-path="url(#id14)"><g clip-path="url(#id15)"><path fill="rgb(100%, 100%, 100%)" d="M 138.476562 29.941406 C 138.183594 30.320312 138.46875 30.898438 138.929688 30.863281 C 139.257812 30.835938 139.441406 30.628906 139.40625 30.316406 C 139.351562 29.792969 138.769531 29.558594 138.476562 29.941406 " fill-opacity="1" fill-rule="nonzero"/></g></g></g><g clip-path="url(#id16)"><g clip-path="url(#id17)"><g clip-path="url(#id18)"><path fill="rgb(100%, 100%, 100%)" d="M 134.378906 32.054688 C 133.917969 32.582031 133.832031 32.824219 134 33.121094 C 134.089844 33.277344 134.199219 33.339844 134.382812 33.339844 C 134.6875 33.34375 134.699219 33.335938 135.167969 32.710938 C 135.550781 32.199219 135.601562 31.914062 135.351562 31.703125 C 134.890625 31.3125 134.429688 32.050781 134.378906 32.054688 " fill-opacity="1" fill-rule="nonzero"/></g></g></g><g clip-path="url(#id19)"><g clip-path="url(#id20)"><g clip-path="url(#id21)"><path fill="rgb(100%, 100%, 100%)" d="M 125.292969 34.246094 C 124.882812 34.726562 125.539062 35.175781 125.824219 35.152344 C 126.308594 35.113281 126.425781 34.484375 126.003906 34.199219 C 125.480469 33.847656 125.34375 34.242188 125.292969 34.246094 " fill-opacity="1" fill-rule="nonzero"/></g></g></g><g clip-path="url(#id22)"><g clip-path="url(#id23)"><g clip-path="url(#id24)"><path fill="rgb(100%, 100%, 100%)" d="M 133.207031 36.726562 C 132.867188 37.042969 132.511719 36.96875 132.355469 37.316406 C 132.257812 37.535156 132.261719 37.570312 132.441406 37.773438 C 133.09375 38.523438 134.585938 37.230469 133.921875 36.660156 C 133.515625 36.3125 133.246094 36.722656 133.207031 36.726562 " fill-opacity="1" fill-rule="nonzero"/></g></g></g><g clip-path="url(#id25)"><g clip-path="url(#id26)"><g clip-path="url(#id27)"><path fill="rgb(100%, 100%, 100%)" d="M 165.222656 34.320312 C 164.984375 34.601562 164.988281 34.722656 165.246094 34.996094 C 165.394531 35.15625 165.511719 35.195312 165.753906 35.175781 C 166.679688 35.105469 166.089844 34.039062 165.59375 34.078125 C 165.410156 34.09375 165.242188 34.320312 165.222656 34.320312 " fill-opacity="1" fill-rule="nonzero"/></g></g></g><g clip-path="url(#id28)"><g clip-path="url(#id29)"><g clip-path="url(#id30)"><path fill="rgb(100%, 100%, 100%)" d="M 129.40625 39.507812 C 129.238281 39.726562 129.253906 40.207031 129.429688 40.386719 C 129.558594 40.519531 129.933594 40.527344 130.085938 40.40625 C 130.261719 40.269531 130.351562 39.933594 130.277344 39.683594 C 130.152344 39.269531 129.667969 39.171875 129.40625 39.507812 " fill-opacity="1" fill-rule="nonzero"/></g></g></g><g clip-path="url(#id31)"><g clip-path="url(#id32)"><g clip-path="url(#id33)"><path fill="rgb(100%, 100%, 100%)" d="M 159.582031 37.308594 C 159.164062 37.578125 159.125 37.992188 159.492188 38.238281 C 159.96875 38.5625 160.472656 38.304688 160.429688 37.761719 C 160.390625 37.28125 159.96875 37.054688 159.582031 37.308594 " fill-opacity="1" fill-rule="nonzero"/></g></g></g><g clip-path="url(#id34)"><g clip-path="url(#id35)"><g clip-path="url(#id36)"><path fill="rgb(100%, 100%, 100%)" d="M 166.480469 39.949219 C 166.382812 40.167969 166.386719 40.199219 166.566406 40.40625 C 166.839844 40.71875 167.3125 40.71875 167.578125 40.410156 C 168.308594 39.542969 166.804688 39.230469 166.480469 39.949219 " fill-opacity="1" fill-rule="nonzero"/></g></g></g><g clip-path="url(#id37)"><g clip-path="url(#id38)"><g clip-path="url(#id39)"><path fill="rgb(100%, 100%, 100%)" d="M 134.9375 43.636719 C 134.832031 43.835938 134.832031 43.898438 134.945312 44.085938 C 135.4375 44.917969 136.675781 44.59375 136.628906 44.011719 C 136.59375 43.578125 136.535156 43.550781 135.332031 43.433594 C 134.941406 43.394531 134.992188 43.632812 134.9375 43.636719 " fill-opacity="1" fill-rule="nonzero"/></g></g></g><g clip-path="url(#id40)"><g clip-path="url(#id41)"><g clip-path="url(#id42)"><path fill="rgb(100%, 100%, 100%)" d="M 127.167969 44.46875 C 127 44.695312 127.035156 45.28125 127.238281 45.542969 C 127.554688 45.957031 128.109375 45.96875 128.226562 45.5625 C 128.300781 45.3125 128.019531 44.503906 127.808594 44.363281 C 127.601562 44.222656 127.320312 44.269531 127.167969 44.46875 " fill-opacity="1" fill-rule="nonzero"/></g></g></g><g clip-path="url(#id43)"><g clip-path="url(#id44)"><g clip-path="url(#id45)"><path fill="rgb(100%, 100%, 100%)" d="M 166.488281 45.15625 C 165.78125 45.542969 166.15625 46.375 166.921875 46.117188 C 167.429688 45.945312 167.601562 45.300781 167.203125 45.066406 C 166.957031 44.917969 166.910156 44.925781 166.488281 45.15625 " fill-opacity="1" fill-rule="nonzero"/></g></g></g><g clip-path="url(#id46)"><g clip-path="url(#id47)"><g clip-path="url(#id48)"><path fill="rgb(100%, 100%, 100%)" d="M 128.375 50.035156 C 128.207031 50.253906 128.25 50.589844 128.464844 50.761719 C 128.847656 51.058594 129.902344 50.886719 130.070312 50.496094 C 130.179688 50.242188 130.050781 49.917969 129.816406 49.847656 C 129.707031 49.816406 129.367188 49.808594 129.058594 49.828125 C 128.320312 49.882812 128.433594 50.03125 128.375 50.035156 " fill-opacity="1" fill-rule="nonzero"/></g></g></g><g clip-path="url(#id49)"><g clip-path="url(#id50)"><g clip-path="url(#id51)"><path fill="rgb(100%, 100%, 100%)" d="M 161.195312 48.414062 C 160.476562 48.957031 161.246094 49.839844 161.863281 49.167969 C 162.109375 48.898438 162.109375 48.507812 161.859375 48.320312 C 161.496094 48.039062 161.28125 48.410156 161.195312 48.414062 " fill-opacity="1" fill-rule="nonzero"/></g></g></g><g clip-path="url(#id52)"><g clip-path="url(#id53)"><g clip-path="url(#id54)"><path fill="rgb(100%, 100%, 100%)" d="M 132.605469 51.054688 C 132.34375 51.125 132.242188 51.316406 132.296875 51.628906 C 132.363281 52 132.65625 52.117188 133.246094 52 C 133.742188 51.90625 133.917969 51.753906 133.894531 51.445312 C 133.835938 50.703125 132.699219 51.046875 132.605469 51.054688 " fill-opacity="1" fill-rule="nonzero"/></g></g></g><g clip-path="url(#id55)"><g clip-path="url(#id56)"><g clip-path="url(#id57)"><path fill="rgb(100%, 100%, 100%)" d="M 168.164062 51.011719 C 168.347656 51.234375 168.726562 51.214844 168.910156 50.976562 C 169.117188 50.707031 169.128906 50.207031 168.929688 50.019531 C 168.664062 49.769531 168.3125 49.847656 168.132812 50.195312 C 168.203125 50.191406 167.796875 50.570312 168.164062 51.011719 " fill-opacity="1" fill-rule="nonzero"/></g></g></g><g clip-path="url(#id58)"><g clip-path="url(#id59)"><g clip-path="url(#id60)"><path fill="rgb(100%, 100%, 100%)" d="M 167.488281 53.328125 C 167.433594 53.640625 167.832031 54.007812 168.109375 53.902344 C 168.488281 53.757812 168.601562 53.207031 168.304688 52.953125 C 168.128906 52.800781 167.714844 52.820312 167.605469 52.980469 C 167.625 52.980469 167.539062 53.03125 167.488281 53.328125 " fill-opacity="1" fill-rule="nonzero"/></g></g></g><g clip-path="url(#id61)"><g clip-path="url(#id62)"><g clip-path="url(#id63)"><path fill="rgb(100%, 100%, 100%)" d="M 126.511719 57.644531 C 126.734375 58.011719 126.835938 58.097656 127.03125 58.109375 C 127.316406 58.121094 127.578125 57.875 127.558594 57.621094 C 127.535156 57.351562 127.179688 56.644531 126.964844 56.433594 C 126.660156 56.136719 125.570312 56.085938 126.511719 57.644531 " fill-opacity="1" fill-rule="nonzero"/></g></g></g><g clip-path="url(#id64)"><g clip-path="url(#id65)"><g clip-path="url(#id66)"><path fill="rgb(100%, 100%, 100%)" d="M 162.644531 54.828125 C 162.832031 55.269531 163.433594 55.179688 163.59375 54.6875 C 163.738281 54.25 163.703125 54.074219 163.433594 53.894531 C 163.160156 53.714844 163.144531 53.714844 162.929688 53.859375 C 162.953125 53.859375 162.386719 54.21875 162.644531 54.828125 " fill-opacity="1" fill-rule="nonzero"/></g></g></g><g clip-path="url(#id67)"><g clip-path="url(#id68)"><g clip-path="url(#id69)"><path fill="rgb(100%, 100%, 100%)" d="M 130.253906 63.789062 C 130.066406 64.011719 130.070312 64.152344 130.28125 64.496094 C 130.46875 64.796875 130.578125 64.871094 130.816406 64.855469 C 131.269531 64.824219 131.378906 64.109375 130.984375 63.769531 C 130.53125 63.378906 130.273438 63.789062 130.253906 63.789062 " fill-opacity="1" fill-rule="nonzero"/></g></g></g><g clip-path="url(#id70)"><g clip-path="url(#id71)"><g clip-path="url(#id72)"><path fill="rgb(100%, 100%, 100%)" d="M 155.304688 61.953125 C 155.011719 62.300781 155.332031 62.839844 155.808594 62.804688 C 156.058594 62.785156 156.320312 62.46875 156.296875 62.210938 C 156.265625 61.8125 155.574219 61.632812 155.304688 61.953125 " fill-opacity="1" fill-rule="nonzero"/></g></g></g><g clip-path="url(#id73)"><g clip-path="url(#id74)"><g clip-path="url(#id75)"><path fill="rgb(100%, 100%, 100%)" d="M 161.914062 61.472656 C 161.621094 61.742188 161.683594 62.160156 162.035156 62.296875 C 162.339844 62.414062 162.816406 62.1875 162.933594 61.867188 C 163.128906 61.320312 162.386719 61.035156 161.914062 61.472656 " fill-opacity="1" fill-rule="nonzero"/></g></g></g><g clip-path="url(#id76)"><g clip-path="url(#id77)"><g clip-path="url(#id78)"><path fill="rgb(100%, 100%, 100%)" d="M 156.734375 67.640625 C 156.953125 67.699219 157.386719 67.425781 157.457031 67.183594 C 157.535156 66.914062 157.402344 66.585938 157.1875 66.523438 C 156.234375 66.238281 155.898438 67.417969 156.734375 67.640625 " fill-opacity="1" fill-rule="nonzero"/></g></g></g><g clip-path="url(#id79)"><g clip-path="url(#id80)"><g clip-path="url(#id81)"><path fill="rgb(100%, 100%, 100%)" d="M 145.253906 42.832031 C 146.082031 43.0625 145.425781 43.191406 146.824219 43.191406 C 147.949219 43.191406 148.457031 43.339844 149.664062 44.015625 C 151.257812 44.910156 153.039062 46.582031 153.898438 47.996094 C 154.589844 49.128906 154.726562 49.6875 154.605469 50.886719 C 154.464844 52.261719 154.019531 53.175781 152.996094 54.183594 C 151.773438 55.386719 150.613281 55.875 148.777344 55.957031 C 147.804688 56 147.578125 55.980469 146.929688 55.800781 C 145.511719 55.402344 144.035156 54.890625 142.617188 55.140625 C 141.878906 55.269531 140.589844 55.148438 139.960938 54.890625 C 139.3125 54.628906 138.578125 53.808594 138.261719 53 C 137.832031 51.90625 137.980469 50.203125 138.621094 48.871094 C 139.679688 46.671875 142.300781 43.75 143.878906 43.007812 C 144.722656 42.605469 145.273438 42.832031 145.253906 42.832031 Z M 143.910156 42.292969 C 143.519531 42.425781 142.574219 43.03125 141.972656 43.539062 C 141.695312 43.769531 141.03125 44.460938 140.488281 45.082031 C 138.433594 47.421875 137.15625 49.390625 137.457031 52.1875 C 137.585938 53.378906 137.761719 53.777344 138.53125 54.601562 C 139.542969 55.691406 140.117188 55.859375 142.539062 55.78125 C 144.507812 55.714844 144.128906 55.683594 145.949219 56.210938 C 149.332031 57.1875 152.257812 56.472656 154.332031 53.613281 C 155.257812 52.339844 155.550781 50.0625 154.976562 48.613281 C 154.054688 46.285156 150.484375 43.1875 148.09375 42.640625 C 146.996094 42.390625 146.828125 42.800781 145.808594 42.394531 C 144.769531 41.980469 143.933594 42.289062 143.910156 42.292969 " fill-opacity="1" fill-rule="nonzero"/></g></g></g><g clip-path="url(#id82)"><g clip-path="url(#id83)"><g clip-path="url(#id84)"><path fill="rgb(26.669312%, 25.489807%, 23.139954%)" d="M 144.914062 45.445312 C 144.207031 46.304688 139.964844 48.476562 140.214844 51.644531 C 140.269531 52.316406 140.429688 52.652344 140.855469 52.976562 C 141.238281 53.265625 141.613281 53.324219 142.292969 53.210938 C 144.171875 52.886719 145.488281 50.042969 145.664062 48.332031 C 145.824219 46.785156 146.066406 45.503906 145.691406 45.214844 C 145.433594 45.019531 145.207031 45.085938 144.914062 45.445312 " fill-opacity="1" fill-rule="nonzero"/></g></g></g><g clip-path="url(#id85)"><g clip-path="url(#id86)"><g clip-path="url(#id87)"><path fill="rgb(26.669312%, 25.489807%, 23.139954%)" d="M 149.121094 47.875 C 149.296875 50.179688 150.066406 51.617188 151.34375 52.039062 C 152.09375 52.285156 152.648438 51.996094 152.945312 51.207031 C 153.117188 50.75 153.128906 50.609375 153.054688 49.722656 C 152.96875 48.6875 152.941406 48.003906 150.835938 46.1875 C 149.777344 45.273438 149.597656 45.203125 149.292969 45.589844 C 149.453125 45.578125 148.921875 45.328125 149.121094 47.875 " fill-opacity="1" fill-rule="nonzero"/></g></g></g><g clip-path="url(#id88)"><g clip-path="url(#id89)"><g clip-path="url(#id90)"><path fill="rgb(38.819885%, 47.44873%, 21.569824%)" d="M 178.472656 16.679688 C 178.375 11.710938 177.9375 8.722656 174.652344 4.996094 C 173.394531 3.566406 172.398438 2.695312 171.003906 1.804688 C 169.074219 0.566406 167.949219 0.332031 165.472656 0.652344 C 164.089844 0.828125 163.613281 0.941406 162.992188 1.234375 C 162.492188 1.472656 162.402344 1.625 162.289062 2.441406 C 161.90625 5.15625 163.050781 7.175781 164.804688 9.238281 C 169.164062 14.347656 173.953125 15.15625 176.15625 16.980469 C 177.121094 17.78125 177.472656 18.023438 177.734375 18.066406 C 178.046875 18.121094 178.292969 17.957031 178.402344 17.628906 C 178.519531 17.265625 178.460938 16.886719 178.472656 16.679688 " fill-opacity="1" fill-rule="nonzero"/></g></g></g><g fill="rgb(38.819885%, 47.44873%, 21.569824%)" fill-opacity="1"><g transform="translate(29.995831, 58.128371)"><g><path d="M 4.253906 -11.925781 L 4.253906 0 L 6.226562 0 L 6.226562 -11.925781 L 10.347656 -11.925781 L 10.347656 -13.800781 L 0.117188 -13.800781 L 0.117188 -11.925781 Z M 4.253906 -11.925781 "/></g></g></g><g fill="rgb(38.819885%, 47.44873%, 21.569824%)" fill-opacity="1"><g transform="translate(40.476023, 58.128371)"><g><path d="M 11.828125 -5.738281 C 11.613281 -9.058594 9.039062 -10.71875 6.421875 -10.71875 C 3.632812 -10.71875 0.9375 -8.902344 0.9375 -5.269531 C 0.9375 -1.640625 3.667969 0.195312 6.382812 0.195312 C 8.550781 0.195312 10.71875 -0.957031 11.515625 -3.261719 L 9.546875 -3.261719 C 8.921875 -2.070312 7.710938 -1.503906 6.402344 -1.503906 C 4.820312 -1.503906 2.851562 -2.753906 2.851562 -4.820312 L 11.789062 -4.820312 C 11.828125 -4.996094 11.847656 -5.191406 11.847656 -5.40625 C 11.847656 -5.523438 11.847656 -5.621094 11.828125 -5.738281 Z M 9.820312 -6.402344 L 2.929688 -6.402344 C 3.320312 -8.277344 4.878906 -9.039062 6.421875 -9.039062 C 7.945312 -9.039062 9.449219 -8.296875 9.820312 -6.402344 Z M 9.820312 -6.402344 "/></g></g></g><g fill="rgb(38.819885%, 47.44873%, 21.569824%)" fill-opacity="1"><g transform="translate(53.356707, 58.128371)"><g><path d="M 1.347656 -13.273438 C 1.347656 -12.53125 1.953125 -12.160156 2.539062 -12.160156 C 3.144531 -12.160156 3.726562 -12.53125 3.726562 -13.273438 C 3.726562 -14.015625 3.144531 -14.367188 2.558594 -14.367188 C 1.953125 -14.367188 1.347656 -13.996094 1.347656 -13.273438 Z M 1.582031 -10.679688 L 3.496094 -10.679688 L 3.496094 0 L 1.582031 0 Z M 1.582031 -10.679688 "/></g></g></g><g fill="rgb(38.819885%, 47.44873%, 21.569824%)" fill-opacity="1"><g transform="translate(58.606559, 58.128371)"><g><path d="M 1.464844 0 L 3.378906 0 L 3.378906 -13.664062 L 1.464844 -13.664062 Z M 1.464844 0 "/></g></g></g><g fill="rgb(38.819885%, 47.44873%, 21.569824%)" fill-opacity="1"><g transform="translate(63.446574, 58.128371)"><g/></g></g><g fill="rgb(38.819885%, 47.44873%, 21.569824%)" fill-opacity="1"><g transform="translate(68.306108, 58.128371)"><g><path d="M 11.847656 -13.664062 L 9.9375 -13.664062 L 9.9375 -9.195312 C 9.019531 -10.445312 7.691406 -10.738281 6.382812 -10.738281 C 2.8125 -10.738281 0.78125 -8.355469 0.78125 -5.328125 C 0.78125 -2.1875 2.714844 0.175781 6.402344 0.175781 C 7.730469 0.15625 9.175781 -0.273438 9.9375 -1.425781 L 9.9375 0 L 11.847656 0 Z M 9.9375 -5.289062 C 9.9375 -2.753906 8.160156 -1.523438 6.363281 -1.523438 C 4.039062 -1.523438 2.695312 -3.125 2.695312 -5.289062 C 2.695312 -7.183594 4.039062 -9.058594 6.382812 -9.058594 C 8.160156 -9.058594 9.9375 -7.808594 9.9375 -5.289062 Z M 9.9375 -5.289062 "/></g></g></g><g fill="rgb(38.819885%, 47.44873%, 21.569824%)" fill-opacity="1"><g transform="translate(81.655178, 58.128371)"><g><path d="M 11.828125 -5.738281 C 11.613281 -9.058594 9.039062 -10.71875 6.421875 -10.71875 C 3.632812 -10.71875 0.9375 -8.902344 0.9375 -5.269531 C 0.9375 -1.640625 3.667969 0.195312 6.382812 0.195312 C 8.550781 0.195312 10.71875 -0.957031 11.515625 -3.261719 L 9.546875 -3.261719 C 8.921875 -2.070312 7.710938 -1.503906 6.402344 -1.503906 C 4.820312 -1.503906 2.851562 -2.753906 2.851562 -4.820312 L 11.789062 -4.820312 C 11.828125 -4.996094 11.847656 -5.191406 11.847656 -5.40625 C 11.847656 -5.523438 11.847656 -5.621094 11.828125 -5.738281 Z M 9.820312 -6.402344 L 2.929688 -6.402344 C 3.320312 -8.277344 4.878906 -9.039062 6.421875 -9.039062 C 7.945312 -9.039062 9.449219 -8.296875 9.820312 -6.402344 Z M 9.820312 -6.402344 "/></g></g></g><g fill="rgb(38.819885%, 47.44873%, 21.569824%)" fill-opacity="1"><g transform="translate(94.535862, 58.128371)"><g><path d="M 1.347656 -13.273438 C 1.347656 -12.53125 1.953125 -12.160156 2.539062 -12.160156 C 3.144531 -12.160156 3.726562 -12.53125 3.726562 -13.273438 C 3.726562 -14.015625 3.144531 -14.367188 2.558594 -14.367188 C 1.953125 -14.367188 1.347656 -13.996094 1.347656 -13.273438 Z M 1.582031 -10.679688 L 3.496094 -10.679688 L 3.496094 0 L 1.582031 0 Z M 1.582031 -10.679688 "/></g></g></g><g fill="rgb(38.819885%, 47.44873%, 21.569824%)" fill-opacity="1"><g transform="translate(99.785713, 58.128371)"><g><path d="M 3.378906 -9.253906 L 3.378906 -10.5625 L 1.464844 -10.5625 L 1.464844 0 L 3.378906 0 L 3.378906 -5.738281 C 3.378906 -7.574219 4.46875 -9.019531 6.480469 -9.019531 C 8.785156 -9.019531 9.3125 -7.652344 9.3125 -5.660156 L 9.3125 0 L 11.203125 0 L 11.203125 -5.679688 C 11.203125 -8.707031 9.839844 -10.71875 6.617188 -10.71875 C 5.289062 -10.71875 4.15625 -10.386719 3.378906 -9.253906 Z M 3.378906 -9.253906 "/></g></g></g><g fill="rgb(77.648926%, 30.979919%, 25.099182%)" fill-opacity="1"><g transform="translate(177.0877, 58.090983)"><g><path d="M 3.429688 -9.179688 L 3.429688 -13.644531 L 1.519531 -13.644531 L 1.519531 0 L 3.429688 0 L 3.429688 -1.421875 C 4.191406 -0.273438 5.632812 0.15625 6.9375 0.175781 C 10.621094 0.175781 12.394531 -2.417969 12.394531 -5.320312 C 12.394531 -8.167969 10.542969 -10.71875 6.976562 -10.71875 C 5.671875 -10.71875 4.347656 -10.425781 3.429688 -9.179688 Z M 3.429688 -5.28125 C 3.429688 -7.796875 5.203125 -9.042969 6.976562 -9.042969 C 9.316406 -9.042969 10.484375 -7.171875 10.484375 -5.28125 C 10.484375 -3.371094 9.296875 -1.519531 6.957031 -1.519531 C 5.203125 -1.519531 3.429688 -2.746094 3.429688 -5.28125 Z M 3.429688 -5.28125 "/></g></g></g><g fill="rgb(77.648926%, 30.979919%, 25.099182%)" fill-opacity="1"><g transform="translate(190.360124, 58.090983)"><g><path d="M 2.785156 -7.503906 C 2.785156 -8.59375 3.878906 -9.042969 5.046875 -9.042969 C 6.199219 -9.042969 7.191406 -8.59375 7.289062 -7.660156 L 9.179688 -7.660156 C 9.042969 -9.863281 7.191406 -10.757812 5.105469 -10.757812 C 3.058594 -10.757812 0.898438 -9.902344 0.898438 -7.464844 C 0.898438 -5.105469 3.136719 -4.523438 5.027344 -4.445312 C 5.945312 -4.40625 7.582031 -4.210938 7.582031 -3.039062 C 7.582031 -1.792969 6.082031 -1.480469 5.125 -1.480469 C 3.820312 -1.480469 2.730469 -2.066406 2.652344 -3.234375 L 0.742188 -3.234375 C 0.878906 -0.742188 2.902344 0.175781 5.085938 0.175781 C 7.074219 0.175781 9.492188 -0.546875 9.492188 -3 C 9.492188 -5.398438 7.230469 -6.023438 5.242188 -6.160156 C 4.308594 -6.21875 2.785156 -6.179688 2.785156 -7.503906 Z M 2.785156 -7.503906 "/></g></g></g><g fill="rgb(77.648926%, 30.979919%, 25.099182%)" fill-opacity="1"><g transform="translate(200.514208, 58.090983)"><g><path d="M 3.957031 -10.542969 L 3.957031 -12.882812 L 2.046875 -12.511719 L 2.046875 -10.542969 L 0.46875 -10.542969 L 0.46875 -9.023438 L 2.046875 -9.023438 L 2.046875 -3.097656 C 2.046875 -0.644531 3.390625 0.0585938 5.457031 0.0585938 C 5.730469 0.0585938 6.023438 0.0390625 6.335938 0.0195312 L 6.335938 -1.578125 C 6.042969 -1.558594 5.769531 -1.539062 5.535156 -1.539062 C 4.578125 -1.539062 3.957031 -1.832031 3.957031 -3.078125 L 3.957031 -9.023438 L 6.277344 -9.023438 L 6.277344 -10.542969 Z M 3.957031 -10.542969 "/></g></g></g></svg>