<svg xmlns="http://www.w3.org/2000/svg" xmlns:xlink="http://www.w3.org/1999/xlink" width="48" zoomAndPan="magnify" viewBox="0 0 36 36.000001" height="48" preserveAspectRatio="xMidYMid meet" version="1.0"><defs><clipPath id="id1"><path d="M 3 10 L 28 10 L 28 33 L 3 33 Z M 3 10 " clip-rule="nonzero"/></clipPath><clipPath id="id2"><path d="M 2.703125 4.371094 L 26.769531 3.503906 L 27.816406 32.675781 L 3.753906 33.539062 Z M 2.703125 4.371094 " clip-rule="nonzero"/></clipPath><clipPath id="id3"><path d="M 2.703125 4.371094 L 26.769531 3.503906 L 27.816406 32.675781 L 3.753906 33.539062 Z M 2.703125 4.371094 " clip-rule="nonzero"/></clipPath><clipPath id="id4"><path d="M 16 3 L 24 3 L 24 15 L 16 15 Z M 16 3 " clip-rule="nonzero"/></clipPath><clipPath id="id5"><path d="M 2.703125 4.371094 L 26.769531 3.503906 L 27.816406 32.675781 L 3.753906 33.539062 Z M 2.703125 4.371094 " clip-rule="nonzero"/></clipPath><clipPath id="id6"><path d="M 2.703125 4.371094 L 26.769531 3.503906 L 27.816406 32.675781 L 3.753906 33.539062 Z M 2.703125 4.371094 " clip-rule="nonzero"/></clipPath><clipPath id="id7"><path d="M 5 11 L 26 11 L 26 32 L 5 32 Z M 5 11 " clip-rule="nonzero"/></clipPath><clipPath id="id8"><path d="M 2.703125 4.371094 L 26.769531 3.503906 L 27.816406 32.675781 L 3.753906 33.539062 Z M 2.703125 4.371094 " clip-rule="nonzero"/></clipPath><clipPath id="id9"><path d="M 2.703125 4.371094 L 26.769531 3.503906 L 27.816406 32.675781 L 3.753906 33.539062 Z M 2.703125 4.371094 " clip-rule="nonzero"/></clipPath><clipPath id="id10"><path d="M 12 29 L 15 29 L 15 33 L 12 33 Z M 12 29 " clip-rule="nonzero"/></clipPath><clipPath id="id11"><path d="M 2.703125 4.371094 L 26.769531 3.503906 L 27.816406 32.675781 L 3.753906 33.539062 Z M 2.703125 4.371094 " clip-rule="nonzero"/></clipPath><clipPath id="id12"><path d="M 2.703125 4.371094 L 26.769531 3.503906 L 27.816406 32.675781 L 3.753906 33.539062 Z M 2.703125 4.371094 " clip-rule="nonzero"/></clipPath><clipPath id="id13"><path d="M 12 14 L 14 14 L 14 15 L 12 15 Z M 12 14 " clip-rule="nonzero"/></clipPath><clipPath id="id14"><path d="M 2.703125 4.371094 L 26.769531 3.503906 L 27.816406 32.675781 L 3.753906 33.539062 Z M 2.703125 4.371094 " clip-rule="nonzero"/></clipPath><clipPath id="id15"><path d="M 2.703125 4.371094 L 26.769531 3.503906 L 27.816406 32.675781 L 3.753906 33.539062 Z M 2.703125 4.371094 " clip-rule="nonzero"/></clipPath><clipPath id="id16"><path d="M 10 15 L 12 15 L 12 16 L 10 16 Z M 10 15 " clip-rule="nonzero"/></clipPath><clipPath id="id17"><path d="M 2.703125 4.371094 L 26.769531 3.503906 L 27.816406 32.675781 L 3.753906 33.539062 Z M 2.703125 4.371094 " clip-rule="nonzero"/></clipPath><clipPath id="id18"><path d="M 2.703125 4.371094 L 26.769531 3.503906 L 27.816406 32.675781 L 3.753906 33.539062 Z M 2.703125 4.371094 " clip-rule="nonzero"/></clipPath><clipPath id="id19"><path d="M 7 15 L 8 15 L 8 17 L 7 17 Z M 7 15 " clip-rule="nonzero"/></clipPath><clipPath id="id20"><path d="M 2.703125 4.371094 L 26.769531 3.503906 L 27.816406 32.675781 L 3.753906 33.539062 Z M 2.703125 4.371094 " clip-rule="nonzero"/></clipPath><clipPath id="id21"><path d="M 2.703125 4.371094 L 26.769531 3.503906 L 27.816406 32.675781 L 3.753906 33.539062 Z M 2.703125 4.371094 " clip-rule="nonzero"/></clipPath><clipPath id="id22"><path d="M 10 17 L 11 17 L 11 18 L 10 18 Z M 10 17 " clip-rule="nonzero"/></clipPath><clipPath id="id23"><path d="M 2.703125 4.371094 L 26.769531 3.503906 L 27.816406 32.675781 L 3.753906 33.539062 Z M 2.703125 4.371094 " clip-rule="nonzero"/></clipPath><clipPath id="id24"><path d="M 2.703125 4.371094 L 26.769531 3.503906 L 27.816406 32.675781 L 3.753906 33.539062 Z M 2.703125 4.371094 " clip-rule="nonzero"/></clipPath><clipPath id="id25"><path d="M 23 16 L 24 16 L 24 18 L 23 18 Z M 23 16 " clip-rule="nonzero"/></clipPath><clipPath id="id26"><path d="M 2.703125 4.371094 L 26.769531 3.503906 L 27.816406 32.675781 L 3.753906 33.539062 Z M 2.703125 4.371094 " clip-rule="nonzero"/></clipPath><clipPath id="id27"><path d="M 2.703125 4.371094 L 26.769531 3.503906 L 27.816406 32.675781 L 3.753906 33.539062 Z M 2.703125 4.371094 " clip-rule="nonzero"/></clipPath><clipPath id="id28"><path d="M 8 18 L 10 18 L 10 19 L 8 19 Z M 8 18 " clip-rule="nonzero"/></clipPath><clipPath id="id29"><path d="M 2.703125 4.371094 L 26.769531 3.503906 L 27.816406 32.675781 L 3.753906 33.539062 Z M 2.703125 4.371094 " clip-rule="nonzero"/></clipPath><clipPath id="id30"><path d="M 2.703125 4.371094 L 26.769531 3.503906 L 27.816406 32.675781 L 3.753906 33.539062 Z M 2.703125 4.371094 " clip-rule="nonzero"/></clipPath><clipPath id="id31"><path d="M 20 17 L 22 17 L 22 19 L 20 19 Z M 20 17 " clip-rule="nonzero"/></clipPath><clipPath id="id32"><path d="M 2.703125 4.371094 L 26.769531 3.503906 L 27.816406 32.675781 L 3.753906 33.539062 Z M 2.703125 4.371094 " clip-rule="nonzero"/></clipPath><clipPath id="id33"><path d="M 2.703125 4.371094 L 26.769531 3.503906 L 27.816406 32.675781 L 3.753906 33.539062 Z M 2.703125 4.371094 " clip-rule="nonzero"/></clipPath><clipPath id="id34"><path d="M 23 18 L 24 18 L 24 20 L 23 20 Z M 23 18 " clip-rule="nonzero"/></clipPath><clipPath id="id35"><path d="M 2.703125 4.371094 L 26.769531 3.503906 L 27.816406 32.675781 L 3.753906 33.539062 Z M 2.703125 4.371094 " clip-rule="nonzero"/></clipPath><clipPath id="id36"><path d="M 2.703125 4.371094 L 26.769531 3.503906 L 27.816406 32.675781 L 3.753906 33.539062 Z M 2.703125 4.371094 " clip-rule="nonzero"/></clipPath><clipPath id="id37"><path d="M 11 19 L 12 19 L 12 21 L 11 21 Z M 11 19 " clip-rule="nonzero"/></clipPath><clipPath id="id38"><path d="M 2.703125 4.371094 L 26.769531 3.503906 L 27.816406 32.675781 L 3.753906 33.539062 Z M 2.703125 4.371094 " clip-rule="nonzero"/></clipPath><clipPath id="id39"><path d="M 2.703125 4.371094 L 26.769531 3.503906 L 27.816406 32.675781 L 3.753906 33.539062 Z M 2.703125 4.371094 " clip-rule="nonzero"/></clipPath><clipPath id="id40"><path d="M 7 19 L 9 19 L 9 21 L 7 21 Z M 7 19 " clip-rule="nonzero"/></clipPath><clipPath id="id41"><path d="M 2.703125 4.371094 L 26.769531 3.503906 L 27.816406 32.675781 L 3.753906 33.539062 Z M 2.703125 4.371094 " clip-rule="nonzero"/></clipPath><clipPath id="id42"><path d="M 2.703125 4.371094 L 26.769531 3.503906 L 27.816406 32.675781 L 3.753906 33.539062 Z M 2.703125 4.371094 " clip-rule="nonzero"/></clipPath><clipPath id="id43"><path d="M 23 20 L 24 20 L 24 22 L 23 22 Z M 23 20 " clip-rule="nonzero"/></clipPath><clipPath id="id44"><path d="M 2.703125 4.371094 L 26.769531 3.503906 L 27.816406 32.675781 L 3.753906 33.539062 Z M 2.703125 4.371094 " clip-rule="nonzero"/></clipPath><clipPath id="id45"><path d="M 2.703125 4.371094 L 26.769531 3.503906 L 27.816406 32.675781 L 3.753906 33.539062 Z M 2.703125 4.371094 " clip-rule="nonzero"/></clipPath><clipPath id="id46"><path d="M 8 22 L 10 22 L 10 23 L 8 23 Z M 8 22 " clip-rule="nonzero"/></clipPath><clipPath id="id47"><path d="M 2.703125 4.371094 L 26.769531 3.503906 L 27.816406 32.675781 L 3.753906 33.539062 Z M 2.703125 4.371094 " clip-rule="nonzero"/></clipPath><clipPath id="id48"><path d="M 2.703125 4.371094 L 26.769531 3.503906 L 27.816406 32.675781 L 3.753906 33.539062 Z M 2.703125 4.371094 " clip-rule="nonzero"/></clipPath><clipPath id="id49"><path d="M 21 22 L 22 22 L 22 23 L 21 23 Z M 21 22 " clip-rule="nonzero"/></clipPath><clipPath id="id50"><path d="M 2.703125 4.371094 L 26.769531 3.503906 L 27.816406 32.675781 L 3.753906 33.539062 Z M 2.703125 4.371094 " clip-rule="nonzero"/></clipPath><clipPath id="id51"><path d="M 2.703125 4.371094 L 26.769531 3.503906 L 27.816406 32.675781 L 3.753906 33.539062 Z M 2.703125 4.371094 " clip-rule="nonzero"/></clipPath><clipPath id="id52"><path d="M 9 22 L 11 22 L 11 24 L 9 24 Z M 9 22 " clip-rule="nonzero"/></clipPath><clipPath id="id53"><path d="M 2.703125 4.371094 L 26.769531 3.503906 L 27.816406 32.675781 L 3.753906 33.539062 Z M 2.703125 4.371094 " clip-rule="nonzero"/></clipPath><clipPath id="id54"><path d="M 2.703125 4.371094 L 26.769531 3.503906 L 27.816406 32.675781 L 3.753906 33.539062 Z M 2.703125 4.371094 " clip-rule="nonzero"/></clipPath><clipPath id="id55"><path d="M 23 22 L 25 22 L 25 24 L 23 24 Z M 23 22 " clip-rule="nonzero"/></clipPath><clipPath id="id56"><path d="M 2.703125 4.371094 L 26.769531 3.503906 L 27.816406 32.675781 L 3.753906 33.539062 Z M 2.703125 4.371094 " clip-rule="nonzero"/></clipPath><clipPath id="id57"><path d="M 2.703125 4.371094 L 26.769531 3.503906 L 27.816406 32.675781 L 3.753906 33.539062 Z M 2.703125 4.371094 " clip-rule="nonzero"/></clipPath><clipPath id="id58"><path d="M 23 23 L 25 23 L 25 25 L 23 25 Z M 23 23 " clip-rule="nonzero"/></clipPath><clipPath id="id59"><path d="M 2.703125 4.371094 L 26.769531 3.503906 L 27.816406 32.675781 L 3.753906 33.539062 Z M 2.703125 4.371094 " clip-rule="nonzero"/></clipPath><clipPath id="id60"><path d="M 2.703125 4.371094 L 26.769531 3.503906 L 27.816406 32.675781 L 3.753906 33.539062 Z M 2.703125 4.371094 " clip-rule="nonzero"/></clipPath><clipPath id="id61"><path d="M 7 24 L 8 24 L 8 26 L 7 26 Z M 7 24 " clip-rule="nonzero"/></clipPath><clipPath id="id62"><path d="M 2.703125 4.371094 L 26.769531 3.503906 L 27.816406 32.675781 L 3.753906 33.539062 Z M 2.703125 4.371094 " clip-rule="nonzero"/></clipPath><clipPath id="id63"><path d="M 2.703125 4.371094 L 26.769531 3.503906 L 27.816406 32.675781 L 3.753906 33.539062 Z M 2.703125 4.371094 " clip-rule="nonzero"/></clipPath><clipPath id="id64"><path d="M 21 24 L 23 24 L 23 25 L 21 25 Z M 21 24 " clip-rule="nonzero"/></clipPath><clipPath id="id65"><path d="M 2.703125 4.371094 L 26.769531 3.503906 L 27.816406 32.675781 L 3.753906 33.539062 Z M 2.703125 4.371094 " clip-rule="nonzero"/></clipPath><clipPath id="id66"><path d="M 2.703125 4.371094 L 26.769531 3.503906 L 27.816406 32.675781 L 3.753906 33.539062 Z M 2.703125 4.371094 " clip-rule="nonzero"/></clipPath><clipPath id="id67"><path d="M 8 27 L 10 27 L 10 29 L 8 29 Z M 8 27 " clip-rule="nonzero"/></clipPath><clipPath id="id68"><path d="M 2.703125 4.371094 L 26.769531 3.503906 L 27.816406 32.675781 L 3.753906 33.539062 Z M 2.703125 4.371094 " clip-rule="nonzero"/></clipPath><clipPath id="id69"><path d="M 2.703125 4.371094 L 26.769531 3.503906 L 27.816406 32.675781 L 3.753906 33.539062 Z M 2.703125 4.371094 " clip-rule="nonzero"/></clipPath><clipPath id="id70"><path d="M 18 27 L 20 27 L 20 28 L 18 28 Z M 18 27 " clip-rule="nonzero"/></clipPath><clipPath id="id71"><path d="M 2.703125 4.371094 L 26.769531 3.503906 L 27.816406 32.675781 L 3.753906 33.539062 Z M 2.703125 4.371094 " clip-rule="nonzero"/></clipPath><clipPath id="id72"><path d="M 2.703125 4.371094 L 26.769531 3.503906 L 27.816406 32.675781 L 3.753906 33.539062 Z M 2.703125 4.371094 " clip-rule="nonzero"/></clipPath><clipPath id="id73"><path d="M 21 27 L 22 27 L 22 28 L 21 28 Z M 21 27 " clip-rule="nonzero"/></clipPath><clipPath id="id74"><path d="M 2.703125 4.371094 L 26.769531 3.503906 L 27.816406 32.675781 L 3.753906 33.539062 Z M 2.703125 4.371094 " clip-rule="nonzero"/></clipPath><clipPath id="id75"><path d="M 2.703125 4.371094 L 26.769531 3.503906 L 27.816406 32.675781 L 3.753906 33.539062 Z M 2.703125 4.371094 " clip-rule="nonzero"/></clipPath><clipPath id="id76"><path d="M 19 29 L 20 29 L 20 30 L 19 30 Z M 19 29 " clip-rule="nonzero"/></clipPath><clipPath id="id77"><path d="M 2.703125 4.371094 L 26.769531 3.503906 L 27.816406 32.675781 L 3.753906 33.539062 Z M 2.703125 4.371094 " clip-rule="nonzero"/></clipPath><clipPath id="id78"><path d="M 2.703125 4.371094 L 26.769531 3.503906 L 27.816406 32.675781 L 3.753906 33.539062 Z M 2.703125 4.371094 " clip-rule="nonzero"/></clipPath><clipPath id="id79"><path d="M 11 19 L 19 19 L 19 26 L 11 26 Z M 11 19 " clip-rule="nonzero"/></clipPath><clipPath id="id80"><path d="M 2.703125 4.371094 L 26.769531 3.503906 L 27.816406 32.675781 L 3.753906 33.539062 Z M 2.703125 4.371094 " clip-rule="nonzero"/></clipPath><clipPath id="id81"><path d="M 2.703125 4.371094 L 26.769531 3.503906 L 27.816406 32.675781 L 3.753906 33.539062 Z M 2.703125 4.371094 " clip-rule="nonzero"/></clipPath><clipPath id="id82"><path d="M 13 20 L 16 20 L 16 24 L 13 24 Z M 13 20 " clip-rule="nonzero"/></clipPath><clipPath id="id83"><path d="M 2.703125 4.371094 L 26.769531 3.503906 L 27.816406 32.675781 L 3.753906 33.539062 Z M 2.703125 4.371094 " clip-rule="nonzero"/></clipPath><clipPath id="id84"><path d="M 2.703125 4.371094 L 26.769531 3.503906 L 27.816406 32.675781 L 3.753906 33.539062 Z M 2.703125 4.371094 " clip-rule="nonzero"/></clipPath><clipPath id="id85"><path d="M 16 20 L 19 20 L 19 24 L 16 24 Z M 16 20 " clip-rule="nonzero"/></clipPath><clipPath id="id86"><path d="M 2.703125 4.371094 L 26.769531 3.503906 L 27.816406 32.675781 L 3.753906 33.539062 Z M 2.703125 4.371094 " clip-rule="nonzero"/></clipPath><clipPath id="id87"><path d="M 2.703125 4.371094 L 26.769531 3.503906 L 27.816406 32.675781 L 3.753906 33.539062 Z M 2.703125 4.371094 " clip-rule="nonzero"/></clipPath><clipPath id="id88"><path d="M 22 2 L 32 2 L 32 13 L 22 13 Z M 22 2 " clip-rule="nonzero"/></clipPath><clipPath id="id89"><path d="M 32.003906 3.117188 L 31.515625 12.589844 L 22.039062 12.097656 L 22.53125 2.625 Z M 32.003906 3.117188 " clip-rule="nonzero"/></clipPath><clipPath id="id90"><path d="M 32.003906 3.117188 L 31.515625 12.589844 L 22.039062 12.097656 L 22.53125 2.625 Z M 32.003906 3.117188 " clip-rule="nonzero"/></clipPath></defs><g clip-path="url(#id1)"><g clip-path="url(#id2)"><g clip-path="url(#id3)"><path fill="#c64f40" d="M 10.617188 10.167969 C 6.410156 10.828125 4.242188 15.875 3.628906 20.054688 C 3.339844 22.035156 3.539062 23.746094 4.296875 25.824219 C 4.683594 26.882812 5.003906 27.382812 6.203125 28.832031 C 8.875 32.054688 11.253906 31.582031 12.777344 32.015625 C 13.46875 32.210938 13.652344 32.222656 14.449219 32.4375 C 15.4375 32.699219 15.269531 32.660156 17.316406 32.996094 C 19.117188 32.933594 19.5625 32.933594 20.273438 32.742188 C 21.386719 32.441406 22.457031 31.902344 23.300781 31.089844 C 23.695312 30.707031 24.5625 29.71875 24.792969 29.386719 C 25.765625 27.976562 26.972656 24.941406 27.257812 22.339844 C 27.378906 21.269531 27.347656 19.546875 27.199219 18.777344 C 27.007812 17.785156 26.664062 16.808594 26.207031 15.964844 C 25.203125 14.109375 24.480469 12.738281 22.433594 11.800781 C 21.640625 11.4375 21.128906 11.363281 19.25 11.332031 C 17.132812 11.300781 17.675781 10.992188 16.066406 10.730469 C 14.964844 10.550781 14.496094 10.226562 13.675781 10.121094 C 13.398438 10.085938 11.578125 10.015625 10.617188 10.167969 " fill-opacity="1" fill-rule="nonzero"/></g></g></g><g clip-path="url(#id4)"><g clip-path="url(#id5)"><g clip-path="url(#id6)"><path fill="#44413b" d="M 22.609375 3.851562 C 22.5625 3.890625 22.464844 4.050781 22.382812 4.214844 C 21.796875 5.410156 20.75 5.789062 18.378906 9.371094 C 17.246094 11.082031 17.160156 11.617188 16.578125 14.179688 C 16.503906 14.507812 16.519531 14.597656 16.648438 14.589844 C 16.773438 14.585938 16.890625 14.417969 16.984375 14.113281 C 17.183594 13.453125 17.476562 12.71875 17.945312 11.710938 C 19.214844 8.996094 20.058594 8.1875 21.839844 5.910156 C 23.015625 4.410156 23.03125 4.542969 23.03125 4.164062 C 23.027344 4.023438 23.011719 3.984375 22.914062 3.890625 C 22.707031 3.6875 22.636719 3.851562 22.609375 3.851562 " fill-opacity="1" fill-rule="nonzero"/></g></g></g><g clip-path="url(#id7)"><g clip-path="url(#id8)"><g clip-path="url(#id9)"><path fill="#fcddd0" d="M 11.6875 11.691406 C 10.773438 11.867188 9.425781 12.40625 8.695312 12.898438 C 6.867188 14.117188 5.472656 16.136719 5.113281 19.6875 C 5.058594 20.21875 5.109375 22.542969 5.1875 23.214844 C 5.523438 26.03125 7.277344 28.957031 9.832031 30.082031 C 10.316406 30.296875 10.570312 30.488281 11.140625 30.59375 C 11.472656 30.65625 12.117188 30.609375 12.488281 30.496094 C 13.105469 30.3125 13.601562 29.921875 14.15625 29.1875 L 14.53125 28.6875 C 14.621094 29.800781 14.582031 29.769531 15.046875 30.546875 C 15.292969 30.960938 15.34375 31.023438 15.664062 31.308594 C 16.378906 31.945312 16.71875 32.039062 18.164062 31.988281 C 18.894531 31.960938 19.203125 31.917969 19.75 31.757812 C 21.617188 31.226562 22.785156 30.273438 24.078125 28.226562 C 24.347656 27.800781 24.804688 26.886719 25.003906 26.371094 C 25.308594 25.582031 25.667969 23.859375 25.828125 22.410156 C 25.882812 21.929688 26.039062 19.3125 25.785156 18.332031 C 25.613281 17.664062 25.507812 17.375 25.269531 16.929688 C 24.417969 15.335938 22.710938 13.851562 21.527344 13.308594 L 21.175781 13.148438 C 20.578125 13.15625 20.246094 13.148438 19.964844 13.21875 C 19.695312 13.285156 19.003906 13.59375 18.757812 13.757812 C 18.375 14.007812 17.917969 14.402344 17.621094 14.734375 C 17.09375 15.324219 16.972656 15.492188 16.582031 16.214844 C 16.429688 16.5 16.378906 16.535156 16.371094 16.363281 C 16.367188 16.238281 16.152344 15.214844 16.082031 14.835938 C 16.019531 14.496094 15.558594 13.546875 15.152344 12.917969 C 14.90625 12.539062 14.667969 12.296875 14.332031 12.078125 C 14.011719 11.875 13.5 11.652344 13.265625 11.617188 C 12.820312 11.546875 11.695312 11.691406 11.6875 11.691406 " fill-opacity="1" fill-rule="nonzero"/></g></g></g><g clip-path="url(#id10)"><g clip-path="url(#id11)"><g clip-path="url(#id12)"><path fill="#44413b" d="M 14.015625 31.003906 C 13.972656 31.003906 13.96875 30.996094 14.003906 30.9375 C 14.054688 30.851562 14.058594 30.84375 14.0625 30.933594 C 14.070312 30.933594 14.058594 31.003906 14.015625 31.003906 Z M 14.011719 29.820312 C 13.90625 29.933594 13.742188 30.332031 13.613281 30.367188 C 13.523438 30.390625 13.273438 30.703125 12.90625 31.253906 C 12.363281 32.0625 12.363281 32.0625 12.570312 32.238281 C 12.75 32.394531 12.804688 32.3125 12.835938 32.421875 C 12.863281 32.519531 12.980469 32.625 13.085938 32.644531 C 13.128906 32.652344 13.222656 32.636719 13.289062 32.609375 C 13.414062 32.5625 13.417969 32.5625 13.441406 32.65625 C 13.507812 32.917969 13.734375 32.996094 13.894531 32.808594 L 13.984375 32.707031 L 14.117188 32.78125 C 14.34375 32.910156 14.527344 32.863281 14.59375 32.65625 C 14.632812 32.542969 14.605469 31.890625 14.554688 31.75 C 14.488281 31.5625 14.484375 30.320312 14.410156 30.199219 C 14.386719 30.160156 14.367188 30.085938 14.363281 30.03125 C 14.355469 29.824219 14.132812 29.691406 14.011719 29.820312 " fill-opacity="1" fill-rule="nonzero"/></g></g></g><g clip-path="url(#id13)"><g clip-path="url(#id14)"><g clip-path="url(#id15)"><path fill="#ffffff" d="M 12.695312 14.5625 C 12.574219 14.703125 12.675781 14.933594 12.855469 14.925781 C 12.984375 14.921875 13.058594 14.847656 13.050781 14.722656 C 13.039062 14.519531 12.816406 14.417969 12.695312 14.5625 " fill-opacity="1" fill-rule="nonzero"/></g></g></g><g clip-path="url(#id16)"><g clip-path="url(#id17)"><g clip-path="url(#id18)"><path fill="#ffffff" d="M 11.054688 15.316406 C 10.867188 15.515625 10.828125 15.605469 10.890625 15.726562 C 10.921875 15.789062 10.960938 15.8125 11.035156 15.816406 C 11.15625 15.824219 11.160156 15.820312 11.351562 15.585938 C 11.511719 15.390625 11.535156 15.28125 11.441406 15.195312 C 11.269531 15.035156 11.074219 15.316406 11.054688 15.316406 " fill-opacity="1" fill-rule="nonzero"/></g></g></g><g clip-path="url(#id19)"><g clip-path="url(#id20)"><g clip-path="url(#id21)"><path fill="#ffffff" d="M 7.460938 16.019531 C 7.292969 16.199219 7.542969 16.382812 7.65625 16.378906 C 7.84375 16.375 7.902344 16.128906 7.742188 16.011719 C 7.542969 15.867188 7.480469 16.019531 7.460938 16.019531 " fill-opacity="1" fill-rule="nonzero"/></g></g></g><g clip-path="url(#id22)"><g clip-path="url(#id23)"><g clip-path="url(#id24)"><path fill="#ffffff" d="M 10.515625 17.113281 C 10.378906 17.234375 10.242188 17.195312 10.175781 17.328125 C 10.132812 17.414062 10.132812 17.425781 10.199219 17.507812 C 10.441406 17.8125 11.046875 17.332031 10.800781 17.101562 C 10.644531 16.957031 10.535156 17.113281 10.515625 17.113281 " fill-opacity="1" fill-rule="nonzero"/></g></g></g><g clip-path="url(#id25)"><g clip-path="url(#id26)"><g clip-path="url(#id27)"><path fill="#ffffff" d="M 23.089844 16.707031 C 22.992188 16.8125 22.992188 16.859375 23.085938 16.96875 C 23.140625 17.035156 23.1875 17.050781 23.28125 17.046875 C 23.644531 17.035156 23.433594 16.613281 23.238281 16.617188 C 23.167969 16.621094 23.097656 16.707031 23.089844 16.707031 " fill-opacity="1" fill-rule="nonzero"/></g></g></g><g clip-path="url(#id28)"><g clip-path="url(#id29)"><g clip-path="url(#id30)"><path fill="#ffffff" d="M 8.984375 18.132812 C 8.914062 18.214844 8.910156 18.402344 8.980469 18.476562 C 9.027344 18.527344 9.171875 18.539062 9.234375 18.496094 C 9.304688 18.445312 9.347656 18.3125 9.320312 18.21875 C 9.28125 18.054688 9.089844 18.007812 8.984375 18.132812 " fill-opacity="1" fill-rule="nonzero"/></g></g></g><g clip-path="url(#id31)"><g clip-path="url(#id32)"><g clip-path="url(#id33)"><path fill="#ffffff" d="M 20.832031 17.773438 C 20.664062 17.875 20.640625 18.035156 20.78125 18.136719 C 20.960938 18.269531 21.164062 18.175781 21.15625 17.964844 C 21.148438 17.777344 20.988281 17.683594 20.832031 17.773438 " fill-opacity="1" fill-rule="nonzero"/></g></g></g><g clip-path="url(#id34)"><g clip-path="url(#id35)"><g clip-path="url(#id36)"><path fill="#ffffff" d="M 23.488281 18.914062 C 23.445312 19 23.445312 19.011719 23.511719 19.09375 C 23.613281 19.222656 23.800781 19.230469 23.910156 19.113281 C 24.210938 18.789062 23.625 18.640625 23.488281 18.914062 " fill-opacity="1" fill-rule="nonzero"/></g></g></g><g clip-path="url(#id37)"><g clip-path="url(#id38)"><g clip-path="url(#id39)"><path fill="#ffffff" d="M 11.078125 19.832031 C 11.035156 19.90625 11.035156 19.929688 11.074219 20.003906 C 11.253906 20.335938 11.742188 20.230469 11.734375 20.003906 C 11.730469 19.835938 11.707031 19.824219 11.238281 19.757812 C 11.085938 19.738281 11.101562 19.832031 11.078125 19.832031 " fill-opacity="1" fill-rule="nonzero"/></g></g></g><g clip-path="url(#id40)"><g clip-path="url(#id41)"><g clip-path="url(#id42)"><path fill="#ffffff" d="M 8.023438 20.027344 C 7.953125 20.113281 7.960938 20.339844 8.035156 20.445312 C 8.152344 20.613281 8.367188 20.625 8.421875 20.46875 C 8.453125 20.371094 8.355469 20.054688 8.277344 19.996094 C 8.199219 19.9375 8.085938 19.953125 8.023438 20.027344 " fill-opacity="1" fill-rule="nonzero"/></g></g></g><g clip-path="url(#id43)"><g clip-path="url(#id44)"><g clip-path="url(#id45)"><path fill="#ffffff" d="M 23.402344 20.941406 C 23.121094 21.078125 23.253906 21.410156 23.558594 21.320312 C 23.757812 21.265625 23.835938 21.015625 23.683594 20.917969 C 23.589844 20.855469 23.570312 20.859375 23.402344 20.941406 " fill-opacity="1" fill-rule="nonzero"/></g></g></g><g clip-path="url(#id46)"><g clip-path="url(#id47)"><g clip-path="url(#id48)"><path fill="#ffffff" d="M 8.402344 22.210938 C 8.335938 22.292969 8.34375 22.425781 8.425781 22.496094 C 8.570312 22.617188 8.988281 22.566406 9.058594 22.417969 C 9.105469 22.320312 9.0625 22.195312 8.96875 22.164062 C 8.929688 22.148438 8.796875 22.140625 8.675781 22.144531 C 8.386719 22.152344 8.425781 22.210938 8.402344 22.210938 " fill-opacity="1" fill-rule="nonzero"/></g></g></g><g clip-path="url(#id49)"><g clip-path="url(#id50)"><g clip-path="url(#id51)"><path fill="#ffffff" d="M 21.277344 22.121094 C 20.984375 22.320312 21.273438 22.675781 21.523438 22.425781 C 21.625 22.324219 21.632812 22.171875 21.539062 22.09375 C 21.398438 21.980469 21.3125 22.121094 21.277344 22.121094 " fill-opacity="1" fill-rule="nonzero"/></g></g></g><g clip-path="url(#id52)"><g clip-path="url(#id53)"><g clip-path="url(#id54)"><path fill="#ffffff" d="M 10.042969 22.675781 C 9.9375 22.699219 9.894531 22.773438 9.910156 22.894531 C 9.929688 23.042969 10.042969 23.089844 10.277344 23.054688 C 10.472656 23.027344 10.542969 22.972656 10.539062 22.851562 C 10.53125 22.5625 10.078125 22.675781 10.042969 22.675781 " fill-opacity="1" fill-rule="nonzero"/></g></g></g><g clip-path="url(#id55)"><g clip-path="url(#id56)"><g clip-path="url(#id57)"><path fill="#ffffff" d="M 23.960938 23.246094 C 24.027344 23.335938 24.175781 23.335938 24.253906 23.246094 C 24.339844 23.144531 24.351562 22.949219 24.277344 22.875 C 24.179688 22.773438 24.039062 22.796875 23.964844 22.929688 C 23.988281 22.929688 23.824219 23.070312 23.960938 23.246094 " fill-opacity="1" fill-rule="nonzero"/></g></g></g><g clip-path="url(#id58)"><g clip-path="url(#id59)"><g clip-path="url(#id60)"><path fill="#ffffff" d="M 23.65625 24.136719 C 23.632812 24.257812 23.78125 24.40625 23.890625 24.371094 C 24.042969 24.320312 24.09375 24.109375 23.984375 24.003906 C 23.917969 23.941406 23.753906 23.941406 23.710938 24.003906 C 23.71875 24.003906 23.683594 24.019531 23.65625 24.136719 " fill-opacity="1" fill-rule="nonzero"/></g></g></g><g clip-path="url(#id61)"><g clip-path="url(#id62)"><g clip-path="url(#id63)"><path fill="#ffffff" d="M 7.546875 25.140625 C 7.628906 25.285156 7.664062 25.324219 7.742188 25.328125 C 7.855469 25.339844 7.960938 25.246094 7.957031 25.148438 C 7.953125 25.042969 7.824219 24.761719 7.746094 24.675781 C 7.628906 24.554688 7.203125 24.519531 7.546875 25.140625 " fill-opacity="1" fill-rule="nonzero"/></g></g></g><g clip-path="url(#id64)"><g clip-path="url(#id65)"><g clip-path="url(#id66)"><path fill="#ffffff" d="M 21.738281 24.640625 C 21.804688 24.816406 22.039062 24.789062 22.109375 24.601562 C 22.175781 24.433594 22.164062 24.363281 22.0625 24.289062 C 21.957031 24.214844 21.953125 24.214844 21.863281 24.269531 C 21.875 24.269531 21.644531 24.398438 21.738281 24.640625 " fill-opacity="1" fill-rule="nonzero"/></g></g></g><g clip-path="url(#id67)"><g clip-path="url(#id68)"><g clip-path="url(#id69)"><path fill="#ffffff" d="M 8.910156 27.59375 C 8.832031 27.675781 8.832031 27.730469 8.90625 27.867188 C 8.976562 27.988281 9.019531 28.019531 9.109375 28.015625 C 9.289062 28.011719 9.34375 27.734375 9.195312 27.597656 C 9.023438 27.4375 8.917969 27.59375 8.910156 27.59375 " fill-opacity="1" fill-rule="nonzero"/></g></g></g><g clip-path="url(#id70)"><g clip-path="url(#id71)"><g clip-path="url(#id72)"><path fill="#ffffff" d="M 18.742188 27.289062 C 18.625 27.421875 18.742188 27.636719 18.925781 27.628906 C 19.027344 27.625 19.132812 27.507812 19.128906 27.40625 C 19.125 27.25 18.855469 27.171875 18.742188 27.289062 " fill-opacity="1" fill-rule="nonzero"/></g></g></g><g clip-path="url(#id73)"><g clip-path="url(#id74)"><g clip-path="url(#id75)"><path fill="#ffffff" d="M 21.339844 27.210938 C 21.21875 27.3125 21.238281 27.476562 21.371094 27.535156 C 21.492188 27.585938 21.679688 27.503906 21.730469 27.382812 C 21.816406 27.175781 21.53125 27.050781 21.339844 27.210938 " fill-opacity="1" fill-rule="nonzero"/></g></g></g><g clip-path="url(#id76)"><g clip-path="url(#id77)"><g clip-path="url(#id78)"><path fill="#ffffff" d="M 19.207031 29.527344 C 19.292969 29.550781 19.46875 29.453125 19.5 29.359375 C 19.535156 29.257812 19.488281 29.128906 19.40625 29.097656 C 19.035156 28.972656 18.882812 29.425781 19.207031 29.527344 " fill-opacity="1" fill-rule="nonzero"/></g></g></g><g clip-path="url(#id79)"><g clip-path="url(#id80)"><g clip-path="url(#id81)"><path fill="#ffffff" d="M 15.128906 19.6875 C 15.453125 19.789062 15.191406 19.828125 15.738281 19.855469 C 16.179688 19.871094 16.375 19.9375 16.835938 20.222656 C 17.445312 20.59375 18.113281 21.273438 18.429688 21.839844 C 18.679688 22.289062 18.722656 22.507812 18.65625 22.976562 C 18.578125 23.507812 18.386719 23.855469 17.972656 24.230469 C 17.472656 24.679688 17.011719 24.847656 16.289062 24.851562 C 15.910156 24.851562 15.820312 24.839844 15.570312 24.757812 C 15.023438 24.582031 14.453125 24.359375 13.890625 24.429688 C 13.601562 24.46875 13.097656 24.402344 12.855469 24.289062 C 12.609375 24.175781 12.332031 23.847656 12.222656 23.527344 C 12.074219 23.09375 12.160156 22.433594 12.433594 21.925781 C 12.886719 21.089844 13.957031 19.996094 14.589844 19.734375 C 14.925781 19.589844 15.136719 19.6875 15.128906 19.6875 Z M 14.613281 19.457031 C 14.457031 19.5 14.078125 19.722656 13.835938 19.910156 C 13.722656 19.996094 13.449219 20.25 13.226562 20.484375 C 12.382812 21.359375 11.851562 22.105469 11.921875 23.199219 C 11.953125 23.664062 12.015625 23.820312 12.300781 24.15625 C 12.679688 24.59375 12.902344 24.671875 13.851562 24.679688 C 14.621094 24.6875 14.476562 24.667969 15.179688 24.902344 C 16.488281 25.339844 17.644531 25.109375 18.503906 24.03125 C 18.886719 23.550781 19.039062 22.667969 18.839844 22.097656 C 18.519531 21.175781 17.171875 19.910156 16.246094 19.660156 C 15.820312 19.542969 15.746094 19.699219 15.355469 19.527344 C 14.957031 19.347656 14.621094 19.457031 14.613281 19.457031 " fill-opacity="1" fill-rule="nonzero"/></g></g></g><g clip-path="url(#id82)"><g clip-path="url(#id83)"><g clip-path="url(#id84)"><path fill="#44413b" d="M 14.953125 20.699219 C 14.664062 21.019531 12.964844 21.796875 13.011719 23.03125 C 13.019531 23.296875 13.078125 23.429688 13.238281 23.5625 C 13.382812 23.679688 13.53125 23.710938 13.796875 23.675781 C 14.539062 23.582031 15.101562 22.496094 15.199219 21.835938 C 15.289062 21.234375 15.40625 20.742188 15.261719 20.621094 C 15.164062 20.542969 15.074219 20.5625 14.953125 20.699219 " fill-opacity="1" fill-rule="nonzero"/></g></g></g><g clip-path="url(#id85)"><g clip-path="url(#id86)"><g clip-path="url(#id87)"><path fill="#44413b" d="M 16.558594 21.710938 C 16.589844 22.613281 16.867188 23.183594 17.359375 23.371094 C 17.648438 23.476562 17.871094 23.375 18 23.070312 C 18.074219 22.898438 18.082031 22.84375 18.070312 22.496094 C 18.050781 22.09375 18.054688 21.824219 17.261719 21.085938 C 16.859375 20.710938 16.792969 20.683594 16.664062 20.828125 C 16.730469 20.824219 16.523438 20.71875 16.558594 21.710938 " fill-opacity="1" fill-rule="nonzero"/></g></g></g><g clip-path="url(#id88)"><g clip-path="url(#id89)"><g clip-path="url(#id90)"><path fill="#637937" d="M 31.503906 11.785156 C 31.453125 9.050781 31.210938 7.410156 29.402344 5.355469 C 28.710938 4.570312 28.164062 4.089844 27.398438 3.601562 C 26.335938 2.921875 25.71875 2.792969 24.355469 2.964844 C 23.59375 3.0625 23.332031 3.125 22.992188 3.289062 C 22.714844 3.417969 22.667969 3.503906 22.601562 3.953125 C 22.394531 5.445312 23.023438 6.558594 23.988281 7.691406 C 26.386719 10.503906 29.019531 10.949219 30.230469 11.953125 C 30.761719 12.390625 30.957031 12.527344 31.097656 12.550781 C 31.269531 12.578125 31.40625 12.488281 31.464844 12.308594 C 31.53125 12.109375 31.5 11.898438 31.503906 11.785156 " fill-opacity="1" fill-rule="nonzero"/></g></g></g></svg>